<?xml version="1.0" encoding="utf-8"?>
<!-- Generator: Adobe Illustrator 27.5.0, SVG Export Plug-In . SVG Version: 6.00 Build 0)  -->
<svg version="1.1" xmlns="http://www.w3.org/2000/svg" xmlns:xlink="http://www.w3.org/1999/xlink" x="0px" y="0px"
	 viewBox="0 0 500 500" style="enable-background:new 0 0 500 500;" xml:space="preserve">
<g id="Background_Simple">
	<g>
		<path style="fill:#92E3A9;" d="M323.833,36.062c0,0-79.342-31.171-155.222,12.821C92.731,92.874,56.279,183.385,24.834,255.824
			c-31.445,72.44-10.206,147.607,49.578,183.277c59.784,35.67,98.467-13.379,180.987-13.52c82.52-0.141,105.06,12.726,172.29-33.764
			c67.23-46.49,76.547-160.451,20.216-246.535C391.574,59.198,323.833,36.062,323.833,36.062z"/>
		<path style="opacity:0.7;fill:#FFFFFF;" d="M323.833,36.062c0,0-79.342-31.171-155.222,12.821
			C92.731,92.874,56.279,183.385,24.834,255.824c-31.445,72.44-10.206,147.607,49.578,183.277
			c59.784,35.67,98.467-13.379,180.987-13.52c82.52-0.141,105.06,12.726,172.29-33.764c67.23-46.49,76.547-160.451,20.216-246.535
			C391.574,59.198,323.833,36.062,323.833,36.062z"/>
	</g>
</g>
<g id="Floor">
	<g>
		
			<line style="fill:none;stroke:#263238;stroke-linecap:round;stroke-linejoin:round;stroke-miterlimit:10;" x1="437.079" y1="450.604" x2="448.042" y2="450.604"/>
		
			<line style="fill:none;stroke:#263238;stroke-linecap:round;stroke-linejoin:round;stroke-miterlimit:10;" x1="38.317" y1="450.604" x2="429.16" y2="450.604"/>
	</g>
</g>
<g id="Plant">
	<g>
		<g>
			<g>
				<g>
					<path style="fill:#92E3A9;" d="M111.287,255.081c0,0,0-4.182-5.855-10.037c-5.855-5.855-9.619-9.2-9.619-9.2
						s-2.927,9.618,2.509,15.473c5.437,5.855,12.964,11.291,12.964,11.291V255.081z"/>
					<path style="fill:#92E3A9;" d="M102.79,281.199c0,0,0-4.182-5.855-10.037c-5.855-5.855-9.618-9.2-9.618-9.2
						s-2.928,9.618,2.509,15.473c5.437,5.855,12.964,11.291,12.964,11.291V281.199z"/>
					<path style="fill:#92E3A9;" d="M110.919,262.204c0,0,0.442-4.159,6.882-9.362s10.537-8.133,10.537-8.133
						s1.895,9.874-4.13,15.121c-6.025,5.247-14.085,9.858-14.085,9.858L110.919,262.204z"/>
					<path style="fill:#92E3A9;" d="M100.654,293.048c0,0,0.876-4.089,7.828-8.587c6.951-4.498,11.333-6.981,11.333-6.981
						s0.847,10.018-5.695,14.604c-6.543,4.585-15.042,8.324-15.042,8.324L100.654,293.048z"/>
					<path style="fill:#92E3A9;" d="M102.584,326.677c0,0,0-4.182,5.855-10.037c5.855-5.855,9.619-9.2,9.619-9.2
						s2.927,9.618-2.509,15.473c-5.436,5.855-12.964,11.291-12.964,11.291V326.677z"/>
					<path style="fill:#92E3A9;" d="M102.486,334.886c0,0,0.594-4.14-4.369-10.767c-4.963-6.627-8.214-10.474-8.214-10.474
						s-4.264,9.105,0.285,15.673c4.549,6.568,11.228,13.019,11.228,13.019L102.486,334.886z"/>
					<path style="fill:#92E3A9;" d="M96.713,359.212c0,0,0-4.182,5.855-10.036c5.855-5.855,9.618-9.2,9.618-9.2
						s2.927,9.618-2.509,15.473c-5.437,5.855-12.964,11.291-12.964,11.291V359.212z"/>
					<path style="fill:#92E3A9;" d="M100.623,381.268c0,0-1.059-4.046,3.122-11.192c4.181-7.147,6.975-11.336,6.975-11.336
						s5.268,8.564,1.492,15.604c-3.776,7.041-9.682,14.207-9.682,14.207L100.623,381.268z"/>
				</g>
				<path style="fill:none;stroke:#263238;stroke-width:0.5;stroke-linecap:round;stroke-linejoin:round;stroke-miterlimit:10;" d="
					M111.817,254.01c-0.343,4.47-0.851,9.095-1.604,12.985c-2.314,11.957-8.1,19.672-10.415,30.472
					c-2.314,10.8,4.33,24.715,2.55,38.587c-1.779,13.872-7.179,21.587-5.636,30.844c1.543,9.257,9.643,34.33,9.643,34.33"/>
				
					<line style="fill:none;stroke:#263238;stroke-width:0.5;stroke-linecap:round;stroke-linejoin:round;stroke-miterlimit:10;" x1="110.861" y1="264.983" x2="117.171" y2="260.142"/>
				
					<line style="fill:none;stroke:#263238;stroke-width:0.5;stroke-linecap:round;stroke-linejoin:round;stroke-miterlimit:10;" x1="111.155" y1="259.408" x2="108.514" y2="254.712"/>
				<path style="fill:none;stroke:#263238;stroke-width:0.5;stroke-linecap:round;stroke-linejoin:round;stroke-miterlimit:10;" d="
					M100.15,296.971c0,0,5.282-3.962,10.711-7.923"/>
				<path style="fill:none;stroke:#263238;stroke-width:0.5;stroke-linecap:round;stroke-linejoin:round;stroke-miterlimit:10;" d="
					M102.79,288.726c0,0-4.401-8.629-9.39-14.352"/>
				<path style="fill:none;stroke:#263238;stroke-width:0.5;stroke-linecap:round;stroke-linejoin:round;stroke-miterlimit:10;" d="
					M102.791,332.627c0,0,4.108-8.07,11.298-15.113"/>
				<path style="fill:none;stroke:#263238;stroke-width:0.5;stroke-linecap:round;stroke-linejoin:round;stroke-miterlimit:10;" d="
					M101.764,338.496c0,0-2.641-6.309-5.722-10.858c-3.081-4.549-3.522-5.136-3.522-5.136"/>
				<path style="fill:none;stroke:#263238;stroke-width:0.5;stroke-linecap:round;stroke-linejoin:round;stroke-miterlimit:10;" d="
					M96.713,366.898c0,0,2.116-5.365,4.757-9.62c2.641-4.255,6.163-8.07,6.163-8.07"/>
				<path style="fill:none;stroke:#263238;stroke-width:0.5;stroke-linecap:round;stroke-linejoin:round;stroke-miterlimit:10;" d="
					M102.529,388.55c0,0-0.618-5.008,1.583-9.263c2.201-4.255,4.695-9.831,5.722-12.032"/>
			</g>
			<g>
				<g>
					<path style="fill:#92E3A9;" d="M72.948,310.95c0,0-0.454-2.622,2.582-6.929c3.036-4.307,5.033-6.814,5.033-6.814
						s2.88,5.714,0.106,9.975c-2.774,4.262-6.904,8.488-6.904,8.488L72.948,310.95z"/>
					<path style="fill:#92E3A9;" d="M81.112,326.405c0,0-0.454-2.622,2.582-6.93c3.036-4.307,5.033-6.813,5.033-6.813
						s2.88,5.714,0.106,9.975c-2.774,4.262-6.904,8.488-6.904,8.488L81.112,326.405z"/>
					<path style="fill:#92E3A9;" d="M73.952,315.376c0,0-0.729-2.56-5.332-5.124c-4.604-2.564-7.49-3.956-7.49-3.956
						s-0.116,6.397,4.231,9.034c4.348,2.637,9.902,4.653,9.902,4.653L73.952,315.376z"/>
					<path style="fill:#92E3A9;" d="M83.737,333.604c0,0-0.993-2.469-5.841-4.535c-4.848-2.066-7.864-3.147-7.864-3.147
						s0.556,6.374,5.157,8.54c4.6,2.165,10.336,3.587,10.336,3.587L83.737,333.604z"/>
					<path style="fill:#92E3A9;" d="M86.178,354.901c0,0-0.454-2.622-4.761-5.658c-4.307-3.036-7.03-4.725-7.03-4.725
						s-0.792,6.349,3.253,9.431c4.045,3.081,9.355,5.673,9.355,5.673L86.178,354.901z"/>
					<path style="fill:#92E3A9;" d="M87.13,360.038c0,0-0.822-2.531,1.571-7.226c2.393-4.695,4.013-7.459,4.013-7.459
						s3.663,5.246,1.523,9.859c-2.14,4.612-5.628,9.383-5.628,9.383L87.13,360.038z"/>
					<path style="fill:#92E3A9;" d="M94.479,381.191c0,0,0.304-2.644,4.43-5.921c4.127-3.276,6.749-5.119,6.749-5.119
						s1.153,6.294-2.71,9.601c-3.862,3.307-9.016,6.198-9.016,6.198L94.479,381.191z"/>
					<path style="fill:#92E3A9;" d="M93.392,374.666c0,0-0.454-2.622-4.761-5.658c-4.307-3.036-7.03-4.725-7.03-4.725
						s-0.792,6.349,3.253,9.431c4.045,3.081,9.355,5.673,9.355,5.673L93.392,374.666z"/>
					<path style="fill:#92E3A9;" d="M93.334,388.921c0,0,0.225-2.652-3.173-6.68c-3.398-4.028-5.604-6.352-5.604-6.352
						s-2.374,5.942,0.759,9.947c3.133,4.005,7.614,7.858,7.614,7.858L93.334,388.921z"/>
				</g>
				<path style="fill:none;stroke:#263238;stroke-width:0.5;stroke-linecap:round;stroke-linejoin:round;stroke-miterlimit:10;" d="
					M72.499,310.336c0.7,2.766,1.521,5.611,2.415,7.968c2.749,7.247,7.215,11.457,9.839,17.978
					c2.624,6.521-0.032,15.968,2.59,24.474c2.622,8.506,6.845,12.757,6.883,18.73c0.037,5.973-2.32,22.574-2.32,22.574"/>
				
					<line style="fill:none;stroke:#263238;stroke-width:0.5;stroke-linecap:round;stroke-linejoin:round;stroke-miterlimit:10;" x1="74.29" y1="317.113" x2="69.808" y2="314.762"/>
				
					<line style="fill:none;stroke:#263238;stroke-width:0.5;stroke-linecap:round;stroke-linejoin:round;stroke-miterlimit:10;" x1="73.501" y1="313.648" x2="74.647" y2="310.417"/>
				<path style="fill:none;stroke:#263238;stroke-width:0.5;stroke-linecap:round;stroke-linejoin:round;stroke-miterlimit:10;" d="
					M84.479,336.009c0,0-3.743-1.911-7.577-3.806"/>
				<path style="fill:none;stroke:#263238;stroke-width:0.5;stroke-linecap:round;stroke-linejoin:round;stroke-miterlimit:10;" d="
					M81.929,331.125c0,0,1.823-5.889,4.33-10.019"/>
				<path style="fill:none;stroke:#263238;stroke-width:0.5;stroke-linecap:round;stroke-linejoin:round;stroke-miterlimit:10;" d="
					M86.694,358.655c0,0-3.452-4.615-8.726-8.251"/>
				<path style="fill:none;stroke:#263238;stroke-width:0.5;stroke-linecap:round;stroke-linejoin:round;stroke-miterlimit:10;" d="
					M87.975,362.224c0,0,0.971-4.243,2.41-7.43c1.439-3.187,1.651-3.603,1.651-3.603"/>
				<path style="fill:none;stroke:#263238;stroke-width:0.5;stroke-linecap:round;stroke-linejoin:round;stroke-miterlimit:10;" d="
					M94.022,384.016c0,0,2.971-3.642,4.82-5.004c1.849-1.363,3.13-2.722,3.13-2.722"/>
				<path style="fill:none;stroke:#263238;stroke-width:0.5;stroke-linecap:round;stroke-linejoin:round;stroke-miterlimit:10;" d="
					M94.226,379.486c0,0-1.909-3.135-4.028-5.516c-2.118-2.382-4.74-4.392-4.74-4.392"/>
				<path style="fill:none;stroke:#263238;stroke-width:0.5;stroke-linecap:round;stroke-linejoin:round;stroke-miterlimit:10;" d="
					M92.929,393.695c0,0-0.156-3.207-1.998-5.637c-1.842-2.429-4.012-5.655-4.895-6.924"/>
			</g>
		</g>
		<g>
			<path style="fill:#263238;" d="M111.98,450.604H86.207c-1.344,0-2.433-1.089-2.433-2.433l-3.83-49.006h38.299l-3.83,49.006
				C114.413,449.514,113.324,450.604,111.98,450.604z"/>
		</g>
	</g>
</g>
<g id="Picture">
	<g style="opacity:0.3;">
		
			<rect x="42.695" y="38.088" style="fill:none;stroke:#000000;stroke-linecap:round;stroke-linejoin:round;stroke-miterlimit:10;" width="113.702" height="151.363"/>
		
			<rect x="46.404" y="43.026" style="fill:none;stroke:#000000;stroke-linecap:round;stroke-linejoin:round;stroke-miterlimit:10;" width="106.285" height="141.489"/>
		<path style="fill:none;stroke:#000000;stroke-linecap:round;stroke-linejoin:round;stroke-miterlimit:10;" d="M46.402,146.929
			c11.91-6.17,37.67-22.62,44.71-52.26c5.56-23.42,13.62-40.52,25.92-51.64"/>
		<path style="fill:none;stroke:#000000;stroke-linecap:round;stroke-linejoin:round;stroke-miterlimit:10;" d="M98.112,184.519
			c-7.34-23.83-16.56-70.05,9.17-100.74c16.24-19.37,32.48-30.53,45.41-36.95"/>
		<path style="fill:none;stroke:#000000;stroke-linecap:round;stroke-linejoin:round;stroke-miterlimit:10;" d="M53.462,43.029
			c4.94,6.16,10.29,16.83,8.6,33.16c-1.81,17.49-9.74,27.38-15.66,32.45"/>
		<path style="fill:none;stroke:#000000;stroke-linecap:round;stroke-linejoin:round;stroke-miterlimit:10;" d="M139.832,184.519
			c-8.31-12.66-21.35-10.75-30.24-22.52c-11.22-14.85-0.33-36.96,25.41-47.2c8.05-3.2,13.71-7.82,17.69-12.66"/>
		<path style="fill:none;stroke:#000000;stroke-linecap:round;stroke-linejoin:round;stroke-miterlimit:10;" d="M46.402,175.459
			c7.8-11.9,17.58-23.14,23.58-16.43c5,5.59,6.2,15.85,5.99,25.49"/>
		<path style="fill:none;stroke:#000000;stroke-linecap:round;stroke-linejoin:round;stroke-miterlimit:10;" d="M73.322,43.029
			c0.27,13.78,1.93,39.35,10.52,28.54c5.99-7.52,10.73-19.11,13.91-28.54"/>
		<path style="fill:none;stroke:#000000;stroke-linecap:round;stroke-linejoin:round;stroke-miterlimit:10;" d="M152.692,63.059
			c-13.97,12.05-38.25,34.44-21.98,31.28c8.67-1.69,16.12-7.02,21.98-12.89"/>
	</g>
</g>
<g id="Window">
	<g style="opacity:0.3;">
		<path style="fill:none;stroke:#000000;stroke-linecap:round;stroke-linejoin:round;stroke-miterlimit:10;" d="M456.238,71.341
			c3.801,8.497,5.914,17.913,5.914,27.823v202.63H325.741V99.164c0-37.669,30.537-68.206,68.206-68.206h0
			c25.712,0,48.101,14.228,59.724,35.24"/>
		<path style="fill:none;stroke:#000000;stroke-linecap:round;stroke-linejoin:round;stroke-miterlimit:10;" d="M373.393,52.709
			c6.318-2.672,13.263-4.15,20.554-4.15h0c29.163,0,52.804,23.641,52.804,52.805v199.697"/>
		<path style="fill:none;stroke:#000000;stroke-linecap:round;stroke-linejoin:round;stroke-miterlimit:10;" d="M341.142,301.061
			V101.364c0-20.64,11.842-38.514,29.102-47.199"/>
		
			<line style="fill:none;stroke:#000000;stroke-linecap:round;stroke-linejoin:round;stroke-miterlimit:10;" x1="393.947" y1="112.739" x2="393.947" y2="301.427"/>
		
			<line style="fill:none;stroke:#000000;stroke-linecap:round;stroke-linejoin:round;stroke-miterlimit:10;" x1="393.947" y1="30.958" x2="393.947" y2="106.82"/>
		
			<line style="fill:none;stroke:#000000;stroke-linecap:round;stroke-linejoin:round;stroke-miterlimit:10;" x1="326.474" y1="91.28" x2="461.236" y2="91.28"/>
		
			<line style="fill:none;stroke:#000000;stroke-linecap:round;stroke-linejoin:round;stroke-miterlimit:10;" x1="347.554" y1="133.663" x2="461.236" y2="133.663"/>
		
			<line style="fill:none;stroke:#000000;stroke-linecap:round;stroke-linejoin:round;stroke-miterlimit:10;" x1="326.474" y1="133.663" x2="343.115" y2="133.663"/>
		
			<line style="fill:none;stroke:#000000;stroke-linecap:round;stroke-linejoin:round;stroke-miterlimit:10;" x1="326.474" y1="176.2" x2="461.236" y2="176.2"/>
		
			<line style="fill:none;stroke:#000000;stroke-linecap:round;stroke-linejoin:round;stroke-miterlimit:10;" x1="440.412" y1="218.737" x2="461.236" y2="218.737"/>
		
			<line style="fill:none;stroke:#000000;stroke-linecap:round;stroke-linejoin:round;stroke-miterlimit:10;" x1="326.474" y1="218.737" x2="434.123" y2="218.737"/>
		
			<line style="fill:none;stroke:#000000;stroke-linecap:round;stroke-linejoin:round;stroke-miterlimit:10;" x1="374.191" y1="261.274" x2="461.236" y2="261.274"/>
		
			<line style="fill:none;stroke:#000000;stroke-linecap:round;stroke-linejoin:round;stroke-miterlimit:10;" x1="326.474" y1="261.274" x2="368.642" y2="261.274"/>
		
			<line style="fill:none;stroke:#000000;stroke-linecap:round;stroke-linejoin:round;stroke-miterlimit:10;" x1="344.493" y1="52.244" x2="356.714" y2="63.372"/>
		
			<line style="fill:none;stroke:#000000;stroke-linecap:round;stroke-linejoin:round;stroke-miterlimit:10;" x1="442.888" y1="52.244" x2="430.667" y2="63.372"/>
	</g>
</g>
<g id="Speech_Bubble">
	<g>
		<path style="fill:#263238;stroke:#263238;stroke-linecap:round;stroke-linejoin:round;stroke-miterlimit:10;" d="M335.263,68.489
			h-40.4c-5.803,0-10.507,4.704-10.507,10.507v18.586c0,5.077,3.601,9.313,8.388,10.293l-8.723,11.289l20.765-11.075h30.478
			c5.803,0,10.507-4.704,10.507-10.507V78.996C345.771,73.193,341.066,68.489,335.263,68.489z"/>
		<path style="fill:#FFFFFF;stroke:#263238;stroke-linecap:round;stroke-linejoin:round;stroke-miterlimit:10;" d="M334.08,64.15
			h-40.4c-5.803,0-10.507,4.704-10.507,10.507v18.586c0,5.077,3.601,9.313,8.388,10.293l-8.723,11.289l20.765-11.075h30.478
			c5.803,0,10.507-4.704,10.507-10.507V74.657C344.587,68.854,339.883,64.15,334.08,64.15z"/>
		<g>
			<path style="fill:#263238;stroke:#263238;stroke-linecap:round;stroke-linejoin:round;stroke-miterlimit:10;" d="M305.322,84.789
				c0,1.39-1.127,2.517-2.517,2.517c-1.39,0-2.517-1.127-2.517-2.517s1.127-2.517,2.517-2.517
				C304.196,82.272,305.322,83.399,305.322,84.789z"/>
			<path style="fill:#263238;stroke:#263238;stroke-linecap:round;stroke-linejoin:round;stroke-miterlimit:10;" d="M316.901,84.789
				c0,1.39-1.127,2.517-2.517,2.517c-1.39,0-2.517-1.127-2.517-2.517s1.127-2.517,2.517-2.517
				C315.774,82.272,316.901,83.399,316.901,84.789z"/>
			<path style="fill:#263238;stroke:#263238;stroke-linecap:round;stroke-linejoin:round;stroke-miterlimit:10;" d="M328.479,84.789
				c0,1.39-1.127,2.517-2.517,2.517c-1.39,0-2.517-1.127-2.517-2.517s1.127-2.517,2.517-2.517
				C327.352,82.272,328.479,83.399,328.479,84.789z"/>
		</g>
	</g>
</g>
<g id="Character">
	<g>
		<g>
			<path style="fill:#FFFFFF;stroke:#263238;stroke-linecap:round;stroke-linejoin:round;stroke-miterlimit:10;" d="M206.927,366.11
				l-4.761,80.385c0,0-12.604,7.002-16.805,12.604c-4.201,5.602-1.12,10.363,5.042,8.683c6.162-1.68,21.567-13.164,22.687-18.206
				c1.12-5.042,20.446-81.225,20.446-81.225L206.927,366.11z"/>
			<path style="fill:#92E3A9;stroke:#263238;stroke-linecap:round;stroke-linejoin:round;stroke-miterlimit:10;" d="
				M196.564,454.338c-1.428-1.666-3.457-1.714-4.036-1.691c-2.832,2.052-5.591,4.351-7.167,6.452
				c-4.201,5.602-1.12,10.363,5.042,8.683c6.162-1.68,21.567-13.164,22.687-18.206c0.012-0.056,0.03-0.132,0.047-0.206
				c-5.741,5.019-13.491,8.609-13.491,8.609S198.244,456.299,196.564,454.338z"/>
		</g>
		<g>
			<path style="fill:#FFFFFF;stroke:#263238;stroke-linecap:round;stroke-linejoin:round;stroke-miterlimit:10;" d="M285.912,366.11
				l4.762,80.385c0,0,12.604,7.002,16.805,12.604c4.201,5.602,1.12,10.363-5.042,8.683c-6.162-1.68-21.567-13.164-22.687-18.206
				c-1.12-5.042-20.446-81.225-20.446-81.225L285.912,366.11z"/>
			<path style="fill:#92E3A9;stroke:#263238;stroke-linecap:round;stroke-linejoin:round;stroke-miterlimit:10;" d="
				M296.275,454.338c1.428-1.666,3.458-1.714,4.036-1.691c2.832,2.052,5.591,4.351,7.167,6.452c4.201,5.602,1.12,10.363-5.042,8.683
				c-6.162-1.68-21.567-13.164-22.687-18.206c-0.013-0.056-0.03-0.132-0.047-0.206c5.74,5.019,13.491,8.609,13.491,8.609
				S294.594,456.299,296.275,454.338z"/>
		</g>
		<path style="fill:#263238;stroke:#263238;stroke-linecap:round;stroke-linejoin:round;stroke-miterlimit:10;" d="M209.991,251.087
			c0,0-6.273,22.569-8.547,58.963c-2.275,36.394,1.927,59.48,1.927,59.48s17.103,6.568,39.585,6.499
			c27.733-0.085,50.219-5.317,50.219-5.317s6.206-38.04,0.681-76.709c-5.524-38.669-8.152-46.49-8.152-46.49h-75.868
			L209.991,251.087z"/>
		<g>
			<path style="fill:#92E3A9;stroke:#263238;stroke-linecap:round;stroke-linejoin:round;stroke-miterlimit:10;" d="
				M209.836,243.779c0,0-2.784,9.849-0.857,11.776c1.927,1.927,10.38,5.607,40.569,6.464c30.19,0.856,39.294-4.751,39.937-9.247
				c0.642-4.496-1.071-8.35-1.071-8.35L209.836,243.779z"/>
			<path style="fill:#263238;stroke:#263238;stroke-linecap:round;stroke-linejoin:round;stroke-miterlimit:10;" d="M261.478,79.127
				c0,0,0-3.517-6.507-6.507c-6.507-2.99-14.245-3.341-26.38,10.024c-12.135,13.366-4.924,27.259-6.155,33.063
				c-1.231,5.804-17.311,13.844-17.938,26.907c-0.627,13.064,17.059,21.104,33.239,20.049c16.18-1.055,13.893-3.693,22.335-3.165
				c8.442,0.528,17.762,0.879,20.928-2.11c3.166-2.99,5.1-11.783,2.462-21.104c-2.638-9.321-7.485-18.158-8.716-25.896
				c-1.231-7.738,1.039-21.864-4.765-27.14C264.177,77.972,261.478,79.127,261.478,79.127z"/>
			<path style="fill:#92E3A9;stroke:#263238;stroke-linecap:round;stroke-linejoin:round;stroke-miterlimit:10;" d="
				M237.526,145.822c0,0-19.953,2.644-24.521,8.414c-4.567,5.77-2.885,24.521-2.885,24.521l7.212,37.743
				c0,0-10.436,22.782-8.585,29.393c1.851,6.611,22.742,10.313,45.748,9.784c23.006-0.529,35.171-3.702,35.699-11.371
				c0.529-7.669-9.156-35.74-9.156-35.74s14.184-44.714,3.846-56.013c-5.624-6.147-28.607-6.731-28.607-6.731H237.526z"/>
			<path style="fill:#92E3A9;stroke:#263238;stroke-linecap:round;stroke-linejoin:round;stroke-miterlimit:10;" d="
				M276.728,148.689c0,0,9.538,1.363,13.625,4.671c4.088,3.309,6.229,10.122,6.813,17.713c0.584,7.591,1.557,22.774,1.557,24.525
				c0,1.752,5.45,17.518,1.557,30.56c-3.893,13.041-17.713-14.015-17.713-16.35c0-2.336-1.557-7.202-1.557-7.202
				s0.898-12.969,1.482-21.339"/>
			<g>
				<polygon style="fill:#FFFFFF;stroke:#263238;stroke-linecap:round;stroke-linejoin:round;stroke-miterlimit:10;" points="
					238.534,129.806 238.4,139.049 259.966,139.049 259.832,129.94 				"/>
				<path style="fill:#92E3A9;stroke:#263238;stroke-linecap:round;stroke-linejoin:round;stroke-miterlimit:10;" d="
					M261.573,135.164c0,0-4.384,2.699-10.558,2.789c-10.103,0.148-13.955-4.128-14.357-2.655
					c-0.402,1.473-2.411,10.314-2.411,11.922c0,1.607,5.75,5.024,14.865,5.231c10.022,0.228,13.13-2.016,14.47-2.82
					c1.34-0.804,1.072-1.34,0.536-4.286C263.945,144.394,262.511,134.628,261.573,135.164z"/>
				<g>
					<path style="fill:#FFFFFF;stroke:#263238;stroke-linecap:round;stroke-linejoin:round;stroke-miterlimit:10;" d="
						M258.032,90.554c0,0-2.747,5.38-5.723,7.326c-2.976,1.946-0.115-4.579-0.115-4.579s-1.603,5.723-5.952,7.211
						c-4.35,1.488-9.272-0.115-10.874,1.03c-1.603,1.145-3.777,5.036-3.548,6.982c0.229,1.946,2.404,14.995,3.777,18.658
						c1.374,3.663,5.494,7.326,13.278,8.127c7.784,0.801,12.591-4.121,14.537-7.44c1.946-3.32,3.091-22.664,3.205-25.068
						c0.115-2.404-3.091-3.434-5.494-5.609C258.719,95.018,258.032,90.554,258.032,90.554z"/>
					<path style="fill:#FFFFFF;stroke:#263238;stroke-linecap:round;stroke-linejoin:round;stroke-miterlimit:10;" d="
						M232.163,110.013c0,0-2.862-3.319-3.892,0.115s5.38,9.959,5.38,9.959L232.163,110.013z"/>
					<path style="fill:#FFFFFF;stroke:#263238;stroke-linecap:round;stroke-linejoin:round;stroke-miterlimit:10;" d="
						M266.159,108.067c0,0,2.518-3.091,3.663,0.687c1.145,3.777-4.235,8.814-4.235,8.814L266.159,108.067z"/>
					<path style="fill:none;stroke:#263238;stroke-linecap:round;stroke-linejoin:round;stroke-miterlimit:10;" d="M247.043,118.827
						c0,0,2.747,2.518,5.723-0.115"/>
					<path style="fill:none;stroke:#263238;stroke-linecap:round;stroke-linejoin:round;stroke-miterlimit:10;" d="M238.916,111.73
						c0,0,2.862,2.175,5.952-0.343"/>
					<path style="fill:none;stroke:#263238;stroke-linecap:round;stroke-linejoin:round;stroke-miterlimit:10;" d="M254.369,111.73
						c0,0,2.862,2.175,5.952-0.343"/>
					<path style="fill:#263238;" d="M246.013,123.52c0,0,2.633,2.747,7.898,0c0,0-0.809,3.395-3.663,4.006
						C247.043,128.214,246.013,123.52,246.013,123.52z"/>
					<path style="fill:none;stroke:#263238;stroke-width:2;stroke-linecap:round;stroke-linejoin:round;stroke-miterlimit:10;" d="
						M237.085,107.838c0,0,1.946-3.205,7.555-2.06"/>
					<path style="fill:none;stroke:#263238;stroke-width:2;stroke-linecap:round;stroke-linejoin:round;stroke-miterlimit:10;" d="
						M261.695,107.838c0,0-1.946-3.205-7.555-2.06"/>
				</g>
			</g>
			<g>
				<path style="fill:#92E3A9;stroke:#263238;stroke-linecap:round;stroke-linejoin:round;stroke-miterlimit:10;" d="
					M301.348,220.976c0,0-1.898,13.962-3.931,14.505c-2.033,0.542-9.625-3.525-16.945-11.251
					c-7.32-7.727-14.233-23.858-14.233-23.858l-7.727-5.829c0,0,6.236-8.133,7.32-10.845c1.085-2.711,3.253-5.558,3.253-5.558
					s1.898,6.236,3.389,11.658c1.491,5.422,2.169,6.642,2.169,6.642l23.577,18.951"/>
				<path style="fill:#FFFFFF;stroke:#263238;stroke-linecap:round;stroke-linejoin:round;stroke-miterlimit:10;" d="
					M274.643,196.44c0,0-0.678-1.22-2.169-6.642s-3.389-11.658-3.389-11.658s-2.169,2.847-3.253,5.558
					c-1.085,2.711-7.32,10.845-7.32,10.845l7.727,5.829c0,0,3.049,7.11,7.239,14.151c2.519-2.186,6.205-6.116,10.09-10.887
					L274.643,196.44z"/>
			</g>
			<g>
				<path style="fill:#92E3A9;stroke:#263238;stroke-linecap:round;stroke-linejoin:round;stroke-miterlimit:10;" d="
					M222.381,149.187c0,0-9.856-0.24-18.511,6.491c-8.654,6.731-2.217,52.926-1.496,59.417c0.721,6.491-0.297,14.837,7.986,17.752
					c2.957,1.04,46.878-35.098,46.878-35.098s3.943-3.192,5.825-3.414c1.882-0.221,4.65-4.097,5.536-5.315
					c0.886-1.218,3.432-6.976,3.765-8.969s-1.55-1.55-2.104-0.775c-0.554,0.775-2.436,5.647-2.436,5.647s2.436-8.194,2.325-11.405
					c-0.111-3.211-1.218-2.436-1.218-2.436s-0.111-3.433-0.886-3.765c-0.775-0.332-1.55,0.221-1.882,1.107
					c-0.332,0.886-2.215,3.986-2.215,3.986s1.993-5.093,1.661-6.201c-0.332-1.107-2.215,0.111-2.768,1.218
					c-0.554,1.107-3.875,4.983-4.54,5.647s-2.104,1.772-2.104,1.772s1.55-2.879,2.325-4.651c0.775-1.772-0.886-3.211-1.882-1.55
					c-0.997,1.661-2.436,4.761-2.879,5.536c-0.443,0.775-3.876,5.426-4.208,7.64c-0.332,2.215-0.775,5.979-0.886,7.197
					c-0.111,1.218-0.997,1.772-1.55,2.99c-0.554,1.218-26.796,13.952-26.796,13.952l-0.331-21.772"/>
				
					<line style="fill:none;stroke:#263238;stroke-linecap:round;stroke-linejoin:round;stroke-miterlimit:10;" x1="209.218" y1="211.035" x2="206.826" y2="212.127"/>
				
					<line style="fill:none;stroke:#263238;stroke-linecap:round;stroke-linejoin:round;stroke-miterlimit:10;" x1="220.323" y1="205.96" x2="211.66" y2="209.919"/>
				<path style="fill:#FFFFFF;stroke:#263238;stroke-linecap:round;stroke-linejoin:round;stroke-miterlimit:10;" d="
					M263.064,194.334c1.882-0.221,4.65-4.097,5.536-5.315c0.886-1.218,3.433-6.976,3.765-8.969s-1.55-1.55-2.104-0.775
					c-0.554,0.775-2.436,5.647-2.436,5.647s2.436-8.194,2.325-11.405c-0.111-3.211-1.218-2.436-1.218-2.436
					s-0.111-3.433-0.886-3.765c-0.775-0.332-1.55,0.221-1.882,1.107c-0.332,0.886-2.215,3.986-2.215,3.986s1.993-5.094,1.661-6.201
					c-0.332-1.107-2.215,0.111-2.768,1.218c-0.554,1.107-3.875,4.983-4.54,5.647c-0.664,0.664-2.104,1.772-2.104,1.772
					s1.55-2.879,2.325-4.65c0.775-1.772-0.886-3.211-1.882-1.55c-0.997,1.661-2.436,4.761-2.879,5.536
					c-0.443,0.775-3.876,5.426-4.208,7.64c-0.332,2.215-0.775,5.979-0.886,7.197c-0.111,1.218-0.997,1.772-1.55,2.99
					c-0.344,0.758-10.635,5.974-18.361,9.807c0.834,3.958,2.77,8.868,7.163,12.657c10.983-8.492,21.317-16.725,21.317-16.725
					S261.182,194.555,263.064,194.334z"/>
				<path style="fill:#FFFFFF;stroke:#263238;stroke-linecap:round;stroke-linejoin:round;stroke-miterlimit:10;" d="M263.95,172.41
					c0,0-3.49,5.789-4.928,7.586"/>
				<path style="fill:#FFFFFF;stroke:#263238;stroke-linecap:round;stroke-linejoin:round;stroke-miterlimit:10;" d="
					M268.933,171.081c0,0-3.322,8.795-6.077,12.149"/>
				
					<line style="fill:#FFFFFF;stroke:#263238;stroke-linecap:round;stroke-linejoin:round;stroke-miterlimit:10;" x1="267.826" y1="184.922" x2="265.97" y2="188.741"/>
			</g>
		</g>
	</g>
</g>
</svg>
