<?xml version="1.0" encoding="utf-8"?>
<!-- Generator: Adobe Illustrator 27.5.0, SVG Export Plug-In . SVG Version: 6.00 Build 0)  -->
<svg version="1.1" xmlns="http://www.w3.org/2000/svg" xmlns:xlink="http://www.w3.org/1999/xlink" x="0px" y="0px"
	 viewBox="0 0 500 500" style="enable-background:new 0 0 500 500;" xml:space="preserve">
<g id="Background_Simple">
	<g>
		<path style="fill:#92E3A9;" d="M459.914,95.773c-1.584-2.687-3.246-5.323-4.987-7.903
			c-23.183-34.346-63.071-57.838-102.312-68.458c-17.184-4.651-34.93-7.089-52.711-7.692
			C183.289,7.767,136.841,99.675,98.299,123.394S0.462,187.63,4.415,272.62S69.64,437.659,188.231,442.6
			c118.591,4.941,126.497-48.424,192.71-68.19c43.819-13.08,74.952-57.26,90.197-98.088
			C491.913,220.681,490.934,148.407,459.914,95.773z"/>
		<path style="opacity:0.7;fill:#FFFFFF;" d="M459.914,95.773c-1.584-2.687-3.246-5.323-4.987-7.903
			c-23.183-34.346-63.071-57.838-102.312-68.458c-17.184-4.651-34.93-7.089-52.711-7.692
			C183.289,7.767,136.841,99.675,98.299,123.394S0.462,187.63,4.415,272.62S69.64,437.659,188.231,442.6
			c118.591,4.941,126.497-48.424,192.71-68.19c43.819-13.08,74.952-57.26,90.197-98.088
			C491.913,220.681,490.934,148.407,459.914,95.773z"/>
	</g>
</g>
<g id="Floor">
	<g>
		
			<line style="fill:none;stroke:#263238;stroke-linecap:round;stroke-linejoin:round;stroke-miterlimit:10;" x1="334.18" y1="459.52" x2="460.536" y2="459.52"/>
		
			<line style="fill:none;stroke:#263238;stroke-linecap:round;stroke-linejoin:round;stroke-miterlimit:10;" x1="23.856" y1="459.52" x2="327.633" y2="459.52"/>
	</g>
</g>
<g id="Plant_1_">
	<g>
		<path style="fill:#92E3A9;stroke:#263238;stroke-linecap:round;stroke-linejoin:round;stroke-miterlimit:10;" d="M66.701,330.067
			c0,0-2.521,6.932-7.877,7.877s-14.808-9.452-8.822-14.808C55.989,317.779,64.18,326.286,66.701,330.067z"/>
		<path style="fill:#92E3A9;stroke:#263238;stroke-linecap:round;stroke-linejoin:round;stroke-miterlimit:10;" d="M74.893,296.039
			c0,0-7.877,19.219-4.726,28.671c3.151,9.452,22.685,16.384,28.356,4.096c5.671-12.288-6.932-29.617-11.658-33.398
			C82.14,291.628,76.468,292.888,74.893,296.039z"/>
		<path style="fill:#92E3A9;stroke:#263238;stroke-linecap:round;stroke-linejoin:round;stroke-miterlimit:10;" d="M120.893,304.231
			c0,0-13.548,12.288-15.123,24.576c-1.575,12.288,7.562,16.699,17.014,15.124c9.452-1.576,14.178-25.521,11.343-36.548
			C131.291,296.354,120.893,304.231,120.893,304.231z"/>
		<path style="fill:#92E3A9;stroke:#263238;stroke-linecap:round;stroke-linejoin:round;stroke-miterlimit:10;" d="M123.414,372.286
			c0,0-15.123,0.63-15.753,7.877c-0.63,7.247,6.616,8.822,13.863,2.521C128.77,376.383,129.715,372.602,123.414,372.286z"/>
		<path style="fill:#92E3A9;stroke:#263238;stroke-linecap:round;stroke-linejoin:round;stroke-miterlimit:10;" d="M85.92,387.41
			c0,0-1.575,7.562-7.247,10.397c-5.671,2.836-15.754-3.151-10.397-12.288C73.632,376.383,83.085,383.629,85.92,387.41z"/>
		<path style="fill:#92E3A9;stroke:#263238;stroke-linecap:round;stroke-linejoin:round;stroke-miterlimit:10;" d="M72.687,363.78
			c0,0-2.836-6.301-13.863-2.206c-11.028,4.096-15.439,10.397-8.507,12.603C57.249,376.383,72.687,363.78,72.687,363.78z"/>
		<path style="fill:#92E3A9;stroke:#263238;stroke-linecap:round;stroke-linejoin:round;stroke-miterlimit:10;" d="M104.195,288.162
			c0,0,1.89,4.411,5.671,3.466c3.781-0.945,4.726-6.616,10.713-5.041c5.986,1.575,11.027,8.507,11.027,5.356
			c0-3.151-7.562-11.343-16.069-11.343S104.51,284.066,104.195,288.162z"/>
		<path style="fill:none;stroke:#263238;stroke-linecap:round;stroke-linejoin:round;stroke-miterlimit:10;" d="M88.608,335.752
			c0,0,6.591,19.303,8.004,35.78c1.412,16.478,0,42.843,0,42.843"/>
		<path style="fill:none;stroke:#263238;stroke-linecap:round;stroke-linejoin:round;stroke-miterlimit:10;" d="M111.677,342.343
			c0,0-7.533,22.128-9.416,36.251c-1.883,14.124-2.354,35.781-2.354,35.781"/>
		<path style="fill:none;stroke:#263238;stroke-linecap:round;stroke-linejoin:round;stroke-miterlimit:10;" d="M107.911,381.89
			c0,0-3.296,0.942-5.179,32.956"/>
		<path style="fill:none;stroke:#263238;stroke-linecap:round;stroke-linejoin:round;stroke-miterlimit:10;" d="M85.92,387.41
			c0,0,3.159-2.695,5.042,3.425c1.883,6.12,0.942,23.069,0.942,23.069"/>
		<path style="fill:none;stroke:#263238;stroke-linecap:round;stroke-linejoin:round;stroke-miterlimit:10;" d="M94.067,384.377
			c2.463,13.801,0.191,29.057,0.191,29.057"/>
		<path style="fill:none;stroke:#263238;stroke-linecap:round;stroke-linejoin:round;stroke-miterlimit:10;" d="M72.687,363.78
			c0,0,13.567-2.604,19.216,12.461c0.554,1.478,1.022,3.024,1.416,4.611"/>
		<path style="fill:#92E3A9;stroke:#263238;stroke-linecap:round;stroke-linejoin:round;stroke-miterlimit:10;" d="M129.307,349.185
			c0,0,2.836-6.301,13.863-2.206c11.027,4.096,15.438,10.397,8.507,12.603C144.746,361.788,129.307,349.185,129.307,349.185z"/>
		<path style="fill:none;stroke:#263238;stroke-linecap:round;stroke-linejoin:round;stroke-miterlimit:10;" d="M117.247,351.944
			c-2.727,1.866-5.347,4.878-7.156,9.702c-5.649,15.065-5.005,52.258-5.005,52.258"/>
		<path style="fill:none;stroke:#263238;stroke-linecap:round;stroke-linejoin:round;stroke-miterlimit:10;" d="M129.307,349.185
			c0,0-4.497-0.863-9.391,1.279"/>
		<path style="fill:none;stroke:#263238;stroke-linecap:round;stroke-linejoin:round;stroke-miterlimit:10;" d="M81.559,339.678
			c2.943,3.456,5.797,8.128,7.991,14.435c7.533,21.657,10.357,49.434,8.945,59.791"/>
		<path style="fill:none;stroke:#263238;stroke-linecap:round;stroke-linejoin:round;stroke-miterlimit:10;" d="M66.701,330.067
			c0,0,6.569,1.025,13.219,7.815"/>
		<path style="fill:none;stroke:#263238;stroke-linecap:round;stroke-linejoin:round;stroke-miterlimit:10;" d="M100.69,359.946
			c-0.459,27.332-0.783,54.43-0.783,54.43"/>
		<path style="fill:none;stroke:#263238;stroke-linecap:round;stroke-linejoin:round;stroke-miterlimit:10;" d="M104.195,288.162
			c0,0-1.463-1.373-2.404,23.108c-0.366,9.513-0.732,27.201-1.042,45.274"/>
		<path style="fill:#263238;stroke:#263238;stroke-linecap:round;stroke-linejoin:round;stroke-miterlimit:10;" d="M114.988,462.396
			H84.355c-2.101,0-3.859-1.595-4.062-3.686l-4.397-45.276h47.55l-4.397,45.276C118.847,460.801,117.089,462.396,114.988,462.396z"
			/>
		<g>
			<polygon style="fill:#FFFFFF;stroke:#263238;stroke-linecap:round;stroke-linejoin:round;stroke-miterlimit:10;" points="
				77.314,428.028 77.817,433.207 121.527,433.207 122.029,428.028 			"/>
			<polygon style="fill:#FFFFFF;stroke:#263238;stroke-linecap:round;stroke-linejoin:round;stroke-miterlimit:10;" points="
				120.429,444.506 120.704,441.681 78.64,441.681 78.914,444.506 			"/>
		</g>
	</g>
</g>
<g id="Graphics">
	<g>
		<g>
			
				<rect x="280.266" y="321.646" style="fill:#92E3A9;stroke:#263238;stroke-linecap:round;stroke-linejoin:round;stroke-miterlimit:10;" width="10.714" height="22.07"/>
			
				<rect x="294.927" y="316.917" style="fill:none;stroke:#000000;stroke-linecap:round;stroke-linejoin:round;stroke-miterlimit:10;" width="10.714" height="26.799"/>
			
				<rect x="309.589" y="304.831" style="fill:#92E3A9;stroke:#263238;stroke-linecap:round;stroke-linejoin:round;stroke-miterlimit:10;" width="10.714" height="38.885"/>
			
				<rect x="324.251" y="297.474" style="fill:none;stroke:#000000;stroke-linecap:round;stroke-linejoin:round;stroke-miterlimit:10;" width="10.714" height="46.241"/>
		</g>
		<g>
			
				<line style="fill:none;stroke:#263238;stroke-linecap:round;stroke-linejoin:round;stroke-miterlimit:10;" x1="280.04" y1="281.298" x2="311.794" y2="281.298"/>
			
				<line style="fill:none;stroke:#263238;stroke-linecap:round;stroke-linejoin:round;stroke-miterlimit:10;" x1="280.04" y1="288.269" x2="311.794" y2="288.269"/>
			
				<line style="fill:none;stroke:#263238;stroke-linecap:round;stroke-linejoin:round;stroke-miterlimit:10;" x1="280.04" y1="295.239" x2="311.794" y2="295.239"/>
		</g>
	</g>
	<g>
		<path style="fill:none;stroke:#000000;stroke-linecap:round;stroke-linejoin:round;stroke-miterlimit:10;" d="M213.031,307.061
			h-45.677c-1.246,0-2.256-1.01-2.256-2.256v0c0-1.246,1.01-2.256,2.256-2.256h45.677c1.246,0,2.256,1.01,2.256,2.256v0
			C215.287,306.051,214.277,307.061,213.031,307.061z"/>
		<path style="fill:#92E3A9;stroke:#263238;stroke-linecap:round;stroke-linejoin:round;stroke-miterlimit:10;" d="M197.221,302.55
			h-29.867c-1.246,0-2.256,1.01-2.256,2.256c0,1.246,1.01,2.256,2.256,2.256h29.867V302.55z"/>
		<path style="fill:none;stroke:#000000;stroke-linecap:round;stroke-linejoin:round;stroke-miterlimit:10;" d="M213.031,318.903
			h-45.677c-1.246,0-2.256-1.01-2.256-2.256l0,0c0-1.246,1.01-2.256,2.256-2.256h45.677c1.246,0,2.256,1.01,2.256,2.256l0,0
			C215.287,317.893,214.277,318.903,213.031,318.903z"/>
		<path style="fill:#92E3A9;stroke:#263238;stroke-linecap:round;stroke-linejoin:round;stroke-miterlimit:10;" d="M208.688,314.392
			h-41.334c-1.246,0-2.256,1.01-2.256,2.256c0,1.246,1.01,2.256,2.256,2.256h41.334V314.392z"/>
		<path style="fill:none;stroke:#000000;stroke-linecap:round;stroke-linejoin:round;stroke-miterlimit:10;" d="M213.031,330.745
			h-45.677c-1.246,0-2.256-1.01-2.256-2.256l0,0c0-1.246,1.01-2.256,2.256-2.256h45.677c1.246,0,2.256,1.01,2.256,2.256l0,0
			C215.287,329.735,214.277,330.745,213.031,330.745z"/>
		<path style="fill:#92E3A9;stroke:#263238;stroke-linecap:round;stroke-linejoin:round;stroke-miterlimit:10;" d="M176.836,326.234
			h-9.482c-1.246,0-2.256,1.01-2.256,2.256c0,1.246,1.01,2.256,2.256,2.256h9.482V326.234z"/>
		<path style="fill:none;stroke:#000000;stroke-linecap:round;stroke-linejoin:round;stroke-miterlimit:10;" d="M213.031,342.587
			h-45.677c-1.246,0-2.256-1.01-2.256-2.256l0,0c0-1.246,1.01-2.256,2.256-2.256h45.677c1.246,0,2.256,1.01,2.256,2.256l0,0
			C215.287,341.578,214.277,342.587,213.031,342.587z"/>
		<path style="fill:#92E3A9;stroke:#263238;stroke-linecap:round;stroke-linejoin:round;stroke-miterlimit:10;" d="M212.191,338.076
			h-44.837c-1.246,0-2.256,1.01-2.256,2.256c0,1.246,1.01,2.256,2.256,2.256h44.837V338.076z"/>
		<g>
			
				<line style="fill:none;stroke:#263238;stroke-linecap:round;stroke-linejoin:round;stroke-miterlimit:10;" x1="174.251" y1="281.298" x2="206.005" y2="281.298"/>
			
				<line style="fill:none;stroke:#263238;stroke-linecap:round;stroke-linejoin:round;stroke-miterlimit:10;" x1="174.251" y1="288.269" x2="206.005" y2="288.269"/>
			
				<line style="fill:none;stroke:#263238;stroke-linecap:round;stroke-linejoin:round;stroke-miterlimit:10;" x1="174.251" y1="295.239" x2="206.005" y2="295.239"/>
		</g>
	</g>
	<g>
		<path style="fill:none;stroke:#000000;stroke-linecap:round;stroke-linejoin:round;stroke-miterlimit:10;" d="M391.439,90.714
			c0-2.449-1.985-4.434-4.434-4.434c-2.449,0-4.434,1.985-4.434,4.434c0,2.449,1.985,4.434,4.434,4.434
			C389.454,95.148,391.439,93.163,391.439,90.714z"/>
		<path style="fill:#92E3A9;stroke:#263238;stroke-linecap:round;stroke-linejoin:round;stroke-miterlimit:10;" d="M406.403,90.714
			c0-2.449-1.985-4.434-4.434-4.434c-2.449,0-4.434,1.985-4.434,4.434c0,2.449,1.985,4.434,4.434,4.434
			C404.418,95.148,406.403,93.163,406.403,90.714z"/>
		<path style="fill:none;stroke:#000000;stroke-linecap:round;stroke-linejoin:round;stroke-miterlimit:10;" d="M391.439,104.569
			c0-2.449-1.985-4.434-4.434-4.434c-2.449,0-4.434,1.985-4.434,4.434s1.985,4.434,4.434,4.434
			C389.454,109.003,391.439,107.018,391.439,104.569z"/>
		<path style="fill:none;stroke:#000000;stroke-linecap:round;stroke-linejoin:round;stroke-miterlimit:10;" d="M406.403,104.569
			c0-2.449-1.985-4.434-4.434-4.434c-2.449,0-4.434,1.985-4.434,4.434s1.985,4.434,4.434,4.434
			C404.418,109.003,406.403,107.018,406.403,104.569z"/>
		<path style="fill:#263238;stroke:#263238;stroke-linecap:round;stroke-linejoin:round;stroke-miterlimit:10;" d="M391.439,118.424
			c0-2.449-1.985-4.434-4.434-4.434c-2.449,0-4.434,1.985-4.434,4.434c0,2.449,1.985,4.434,4.434,4.434
			C389.454,122.858,391.439,120.873,391.439,118.424z"/>
		<path style="fill:none;stroke:#000000;stroke-linecap:round;stroke-linejoin:round;stroke-miterlimit:10;" d="M406.403,118.424
			c0-2.449-1.985-4.434-4.434-4.434c-2.449,0-4.434,1.985-4.434,4.434c0,2.449,1.985,4.434,4.434,4.434
			C404.418,122.858,406.403,120.873,406.403,118.424z"/>
	</g>
	<g>
		
			<circle style="fill:none;stroke:#000000;stroke-linecap:round;stroke-linejoin:round;stroke-miterlimit:10;" cx="240.653" cy="305.475" r="4.434"/>
		
			<circle style="fill:none;stroke:#000000;stroke-linecap:round;stroke-linejoin:round;stroke-miterlimit:10;" cx="255.617" cy="305.475" r="4.434"/>
		
			<circle style="fill:#92E3A9;stroke:#263238;stroke-linecap:round;stroke-linejoin:round;stroke-miterlimit:10;" cx="240.653" cy="319.331" r="4.434"/>
		
			<circle style="fill:#92E3A9;stroke:#263238;stroke-linecap:round;stroke-linejoin:round;stroke-miterlimit:10;" cx="255.617" cy="319.331" r="4.434"/>
		<path style="fill:none;stroke:#000000;stroke-linecap:round;stroke-linejoin:round;stroke-miterlimit:10;" d="M245.087,333.186
			c0-2.449-1.985-4.434-4.434-4.434c-2.449,0-4.434,1.985-4.434,4.434c0,2.449,1.985,4.434,4.434,4.434
			C243.102,337.619,245.087,335.634,245.087,333.186z"/>
		<path style="fill:#263238;stroke:#263238;stroke-linecap:round;stroke-linejoin:round;stroke-miterlimit:10;" d="M260.051,333.186
			c0-2.449-1.985-4.434-4.434-4.434c-2.449,0-4.434,1.985-4.434,4.434c0,2.449,1.985,4.434,4.434,4.434
			C258.066,337.619,260.051,335.634,260.051,333.186z"/>
	</g>
</g>
<g id="Gears">
	<g style="opacity:0.3;">
		<path style="fill:none;stroke:#000000;stroke-linecap:round;stroke-linejoin:round;stroke-miterlimit:10;" d="M140.365,85.856
			V75.404l-10.438-1.161c-0.573-2.208-1.444-4.294-2.559-6.221l6.593-8.243l-7.391-7.391l-8.207,6.564
			c-1.919-1.129-4-2.011-6.203-2.599l-1.166-10.486h-10.452l-1.161,10.438c-2.208,0.572-4.294,1.444-6.221,2.559l-8.243-6.593
			l-7.391,7.391l6.564,8.207c-1.129,1.919-2.011,4.001-2.599,6.203L71.007,75.24v10.452l10.438,1.161
			c0.573,2.208,1.444,4.294,2.559,6.221l-6.593,8.243l7.391,7.391l8.207-6.564c1.919,1.129,4.001,2.011,6.203,2.599l1.166,10.486
			h10.452l1.161-10.438c2.208-0.573,4.293-1.444,6.22-2.559l8.243,6.593l7.391-7.391l-6.564-8.207
			c1.129-1.919,2.011-4.001,2.599-6.203L140.365,85.856z M105.686,93.022c-6.889,0-12.474-5.585-12.474-12.474
			c0-6.889,5.585-12.474,12.474-12.474c6.889,0,12.474,5.585,12.474,12.474C118.16,87.437,112.575,93.022,105.686,93.022z"/>
		<path style="fill:none;stroke:#000000;stroke-linecap:round;stroke-linejoin:round;stroke-miterlimit:10;" d="M181.439,64.876
			l-1.158-6.92l-7.039,0.388c-0.624-1.398-1.432-2.683-2.384-3.835l3.451-6.188l-5.712-4.074l-4.706,5.255
			c-1.396-0.535-2.871-0.888-4.395-1.033l-1.934-6.813l-6.92,1.158l0.388,7.039c-1.398,0.624-2.683,1.431-3.835,2.384l-6.188-3.451
			l-4.074,5.712l5.255,4.706c-0.535,1.396-0.888,2.871-1.033,4.395l-6.813,1.934l1.158,6.92l7.039-0.388
			c0.624,1.398,1.432,2.682,2.384,3.835l-3.451,6.188l5.712,4.074l4.706-5.255c1.396,0.535,2.871,0.888,4.395,1.033l1.934,6.813
			l6.92-1.158l-0.388-7.039c1.398-0.624,2.683-1.432,3.835-2.384l6.188,3.451l4.074-5.712l-5.255-4.706
			c0.535-1.396,0.888-2.871,1.033-4.395L181.439,64.876z M159.273,73.463c-4.561,0.763-8.877-2.315-9.641-6.876
			c-0.763-4.561,2.315-8.877,6.876-9.641c4.561-0.763,8.877,2.315,9.64,6.876C166.913,68.383,163.834,72.7,159.273,73.463z"/>
	</g>
	<g style="opacity:0.3;">
		<path style="fill:none;stroke:#000000;stroke-linecap:round;stroke-linejoin:round;stroke-miterlimit:10;" d="M379.846,179.589
			v-10.452l-10.438-1.161c-0.573-2.208-1.444-4.294-2.559-6.22l6.593-8.243l-7.391-7.391l-8.207,6.564
			c-1.919-1.129-4-2.011-6.203-2.599l-1.166-10.486h-10.452l-1.161,10.438c-2.208,0.572-4.293,1.444-6.22,2.559l-8.243-6.593
			l-7.391,7.391l6.564,8.207c-1.129,1.919-2.011,4.001-2.599,6.203l-10.486,1.166v10.452l10.438,1.161
			c0.573,2.208,1.444,4.294,2.559,6.221l-6.593,8.243l7.391,7.391l8.207-6.564c1.919,1.129,4.001,2.011,6.203,2.599l1.166,10.486
			h10.452l1.161-10.438c2.208-0.572,4.294-1.444,6.221-2.559l8.243,6.593l7.391-7.391l-6.564-8.207
			c1.129-1.919,2.011-4.001,2.599-6.203L379.846,179.589z M345.167,186.755c-6.889,0-12.474-5.585-12.474-12.474
			c0-6.889,5.585-12.474,12.474-12.474c6.889,0,12.474,5.585,12.474,12.474C357.641,181.17,352.056,186.755,345.167,186.755z"/>
		<path style="fill:none;stroke:#000000;stroke-linecap:round;stroke-linejoin:round;stroke-miterlimit:10;" d="M420.919,158.609
			l-1.158-6.92l-7.039,0.388c-0.624-1.398-1.432-2.683-2.384-3.835l3.451-6.188l-5.712-4.074l-4.706,5.255
			c-1.396-0.535-2.871-0.888-4.395-1.033l-1.934-6.813l-6.92,1.158l0.388,7.039c-1.398,0.624-2.682,1.432-3.835,2.384l-6.188-3.451
			l-4.074,5.712l5.255,4.706c-0.535,1.396-0.888,2.871-1.033,4.395l-6.813,1.934l1.158,6.92l7.039-0.388
			c0.624,1.398,1.432,2.682,2.384,3.835l-3.452,6.188l5.712,4.074l4.706-5.255c1.396,0.535,2.871,0.888,4.395,1.033l1.934,6.813
			l6.92-1.158l-0.388-7.039c1.398-0.624,2.683-1.432,3.835-2.384l6.188,3.451l4.074-5.712l-5.255-4.706
			c0.535-1.396,0.888-2.871,1.033-4.395L420.919,158.609z M398.754,167.196c-4.561,0.763-8.877-2.315-9.641-6.876
			c-0.763-4.561,2.315-8.877,6.876-9.641c4.561-0.763,8.877,2.315,9.641,6.876C406.394,162.117,403.315,166.433,398.754,167.196z"/>
	</g>
</g>
<g id="Screen">
	<g>
		<path style="fill:#263238;stroke:#263238;stroke-linecap:round;stroke-linejoin:round;stroke-miterlimit:10;" d="M357.862,272.077
			H99.846c-4.133,0-7.483-3.35-7.483-7.483V80.911c0-4.133,3.35-7.483,7.483-7.483h258.015c4.133,0,7.483,3.35,7.483,7.483v183.683
			C365.345,268.727,361.995,272.077,357.862,272.077z"/>
		<path style="fill:#FFFFFF;stroke:#263238;stroke-linecap:round;stroke-linejoin:round;stroke-miterlimit:10;" d="M361.79,266.84
			H103.775c-4.133,0-7.483-3.35-7.483-7.483V75.673c0-4.133,3.35-7.483,7.483-7.483H361.79c4.133,0,7.483,3.35,7.483,7.483v183.683
			C369.273,263.489,365.923,266.84,361.79,266.84z"/>
	</g>
</g>
<g id="Icons_1_">
	<g>
		<path style="fill:#263238;stroke:#263238;stroke-linecap:round;stroke-linejoin:round;stroke-miterlimit:10;" d="M343.458,97.963
			v22.6c0,1.57-1.27,2.84-2.84,2.84h-36.56c-1.57,0-2.84-1.27-2.84-2.84v-22.6c0-1.57,1.27-2.84,2.84-2.84h36.56
			C342.188,95.123,343.458,96.393,343.458,97.963z"/>
		<path style="fill:#FFFFFF;stroke:#263238;stroke-linecap:round;stroke-linejoin:round;stroke-miterlimit:10;" d="M346.071,95.35
			v22.6c0,1.57-1.27,2.84-2.84,2.84h-36.56c-1.57,0-2.84-1.27-2.84-2.84v-22.6c0-1.57,1.27-2.84,2.84-2.84h36.56
			C344.801,92.51,346.071,93.78,346.071,95.35z"/>
		
			<rect x="303.831" y="101.94" style="fill:#263238;stroke:#263238;stroke-linecap:round;stroke-linejoin:round;stroke-miterlimit:10;" width="42.24" height="7.16"/>
		<path style="fill:#FFFFFF;stroke:#263238;stroke-linecap:round;stroke-linejoin:round;stroke-miterlimit:10;" d="M337.397,97.978
			c0,1.146-0.928,2.074-2.074,2.074s-2.074-0.929-2.074-2.074c0-1.145,0.929-2.074,2.074-2.074S337.397,96.832,337.397,97.978z"/>
		<path style="fill:#FFFFFF;stroke:#263238;stroke-linecap:round;stroke-linejoin:round;stroke-miterlimit:10;" d="M341.357,97.978
			c0,1.146-0.929,2.074-2.074,2.074c-1.145,0-2.074-0.929-2.074-2.074c0-1.145,0.929-2.074,2.074-2.074
			C340.428,95.904,341.357,96.832,341.357,97.978z"/>
	</g>
	<g>
		<g>
			
				<rect x="115.692" y="96.739" style="fill:#263238;stroke:#263238;stroke-linecap:round;stroke-linejoin:round;stroke-miterlimit:10;" width="44.121" height="25.266"/>
			
				<rect x="117.987" y="94.018" style="fill:#FFFFFF;stroke:#263238;stroke-linecap:round;stroke-linejoin:round;stroke-miterlimit:10;" width="44.121" height="25.266"/>
			<path style="fill:#FFFFFF;stroke:#263238;stroke-linecap:round;stroke-linejoin:round;stroke-miterlimit:10;" d="M122.002,100.4
				v12.409c1.399,0,2.534,1.134,2.534,2.534c0,0.032-0.008,0.061-0.009,0.093h31.042c-0.001-0.032-0.009-0.061-0.009-0.093
				c0-1.399,1.134-2.534,2.534-2.534V100.4c-1.4,0-2.534-1.134-2.534-2.534h-31.023C124.536,99.266,123.401,100.4,122.002,100.4z
				 M140.048,101.183c3.02,0,5.468,2.448,5.468,5.468s-2.448,5.468-5.468,5.468c-3.02,0-5.468-2.448-5.468-5.468
				S137.028,101.183,140.048,101.183z"/>
		</g>
		<g>
			<path style="fill:#263238;" d="M140.185,111.413v-0.754c-0.616-0.024-1.075-0.225-1.377-0.601
				c-0.303-0.377-0.469-0.912-0.498-1.606l1.148-0.224c0.012,0.281,0.045,0.529,0.099,0.745c0.054,0.215,0.139,0.381,0.256,0.498
				c0.116,0.117,0.27,0.175,0.462,0.175c0.215,0,0.369-0.064,0.462-0.193c0.093-0.128,0.139-0.291,0.139-0.489
				c0-0.317-0.073-0.577-0.22-0.781c-0.146-0.203-0.336-0.407-0.569-0.61l-0.925-0.808c-0.167-0.149-0.313-0.307-0.439-0.471
				c-0.125-0.165-0.224-0.35-0.296-0.556c-0.071-0.206-0.107-0.447-0.107-0.722c0-0.545,0.155-0.971,0.467-1.279
				c0.311-0.308,0.729-0.477,1.256-0.507v-0.727h0.386v0.718c0.305,0.018,0.557,0.085,0.754,0.202
				c0.197,0.117,0.355,0.266,0.471,0.449c0.116,0.183,0.203,0.387,0.26,0.615c0.058,0.227,0.092,0.463,0.104,0.708l-1.131,0.197
				c-0.012-0.227-0.035-0.432-0.071-0.614c-0.036-0.183-0.104-0.326-0.202-0.431c-0.099-0.105-0.243-0.151-0.435-0.139
				c-0.204,0.006-0.357,0.072-0.463,0.197c-0.104,0.125-0.156,0.284-0.156,0.476c0,0.257,0.057,0.465,0.17,0.623
				c0.114,0.159,0.255,0.315,0.422,0.471l0.915,0.798c0.191,0.174,0.369,0.362,0.534,0.565c0.164,0.204,0.296,0.431,0.395,0.682
				c0.099,0.251,0.148,0.539,0.148,0.861c0,0.323-0.064,0.612-0.193,0.866c-0.129,0.254-0.309,0.459-0.543,0.614
				c-0.233,0.156-0.511,0.252-0.834,0.287v0.763H140.185z"/>
		</g>
	</g>
	<g>
		<path style="fill:#263238;stroke:#263238;stroke-linecap:round;stroke-linejoin:round;stroke-miterlimit:10;" d="M334.929,144.552
			C334.929,144.552,334.929,144.552,334.929,144.552l0-0.507c0-1.829-1.483-3.313-3.313-3.313h-18.537
			c-1.829,0-3.313,1.483-3.313,3.313v0.507v3.646v28.48v2.54v0.507c0,1.829,1.483,3.313,3.313,3.313h0.506c0,0,0,0,0.001,0h17.523
			c0,0,0,0,0.001,0h0.506c1.829,0,3.313-1.483,3.313-3.313v-0.506c0,0,0-0.001,0-0.001V144.552z"/>
		<g>
			<path style="fill:#FFFFFF;stroke:#263238;stroke-linecap:round;stroke-linejoin:round;stroke-miterlimit:10;" d="
				M333.712,179.887h-17.523c-2.109,0-3.82-1.71-3.82-3.82v-34.667c0-2.109,1.71-3.82,3.82-3.82h17.523c2.109,0,3.82,1.71,3.82,3.82
				v34.667C337.532,178.177,335.822,179.887,333.712,179.887z"/>
			<path style="fill:#FFFFFF;stroke:#263238;stroke-linecap:round;stroke-linejoin:round;stroke-miterlimit:10;" d="
				M337.532,145.047v-4.153c0-1.83-1.483-3.313-3.313-3.313h-18.537c-1.829,0-3.313,1.483-3.313,3.313v4.153H337.532z"/>
			<path style="fill:#FFFFFF;stroke:#263238;stroke-linecap:round;stroke-linejoin:round;stroke-miterlimit:10;" d="M312.37,173.527
				v3.047c0,1.829,1.483,3.313,3.313,3.313h18.537c1.829,0,3.313-1.483,3.313-3.313v-3.047H312.37z"/>
		</g>
	</g>
	<g>
		<path style="fill:#263238;stroke:#263238;stroke-linecap:round;stroke-linejoin:round;stroke-miterlimit:10;" d="M164.996,177.523
			v-32.955c0-1.36-1.103-2.463-2.463-2.463h-47.478c-1.36,0-2.463,1.103-2.463,2.463v32.955h-3.975l1.679,1.864
			c1.418,1.574,3.437,2.473,5.555,2.473h47.26c2.118,0,4.137-0.899,5.555-2.473l1.679-1.864H164.996z"/>
		<g>
			<path style="fill:#FFFFFF;stroke:#263238;stroke-linecap:round;stroke-linejoin:round;stroke-miterlimit:10;" d="
				M166.862,175.283h-52.404v-32.955c0-1.36,1.103-2.463,2.463-2.463h47.478c1.36,0,2.463,1.103,2.463,2.463V175.283z"/>
			<path style="fill:#FFFFFF;stroke:#263238;stroke-linecap:round;stroke-linejoin:round;stroke-miterlimit:10;" d="
				M165.022,176.473h-48.724v-32.492c0-1.36,1.103-2.463,2.463-2.463h43.798c1.36,0,2.463,1.103,2.463,2.463V176.473z"/>
			<path style="fill:#FFFFFF;stroke:#263238;stroke-linecap:round;stroke-linejoin:round;stroke-miterlimit:10;" d="M117.717,179.62
				h47.26c2.118,0,4.137-0.899,5.555-2.473l1.679-1.864h-61.728l1.679,1.864C113.579,178.721,115.598,179.62,117.717,179.62z"/>
		</g>
	</g>
	<g>
		<path style="fill:#263238;stroke:#263238;stroke-linecap:round;stroke-linejoin:round;stroke-miterlimit:10;" d="M335.132,206.033
			H312.52c-2.096,0-3.796,1.699-3.796,3.796v10.814c0,2.096,1.699,3.796,3.796,3.796h20.985l5.423,6.829v-10.625v-10.814
			C338.928,207.732,337.228,206.033,335.132,206.033z"/>
		<path style="fill:#FFFFFF;stroke:#263238;stroke-linecap:round;stroke-linejoin:round;stroke-miterlimit:10;" d="M336.555,204.183
			h-22.612c-2.096,0-3.796,1.699-3.796,3.796v10.814c0,2.096,1.699,3.796,3.796,3.796h20.985l5.423,6.829v-10.625v-10.814
			C340.35,205.883,338.651,204.183,336.555,204.183z"/>
		<path style="fill:#263238;stroke:#263238;stroke-linecap:round;stroke-linejoin:round;stroke-miterlimit:10;" d="M305.482,218.84
			h14.965c1.387,0,2.512,1.125,2.512,2.512v7.157c0,1.387-1.125,2.512-2.512,2.512h-13.888l-3.589,4.52v-7.032v-7.157
			C302.97,219.965,304.095,218.84,305.482,218.84z"/>
		<path style="fill:#FFFFFF;stroke:#263238;stroke-linecap:round;stroke-linejoin:round;stroke-miterlimit:10;" d="M306.651,217.458
			h14.965c1.387,0,2.512,1.125,2.512,2.512v7.157c0,1.387-1.125,2.512-2.512,2.512h-13.888l-3.589,4.52v-7.032v-7.157
			C304.139,218.583,305.263,217.458,306.651,217.458z"/>
		
			<line style="fill:none;stroke:#263238;stroke-linecap:round;stroke-linejoin:round;stroke-miterlimit:10;" x1="315.533" y1="209.387" x2="334.734" y2="209.387"/>
		
			<line style="fill:none;stroke:#263238;stroke-linecap:round;stroke-linejoin:round;stroke-miterlimit:10;" x1="315.533" y1="213.417" x2="334.734" y2="213.417"/>
		
			<line style="fill:none;stroke:#263238;stroke-linecap:round;stroke-linejoin:round;stroke-miterlimit:10;" x1="315.533" y1="217.447" x2="334.734" y2="217.447"/>
		
			<line style="fill:none;stroke:#263238;stroke-linecap:round;stroke-linejoin:round;stroke-miterlimit:10;" x1="307.237" y1="222.188" x2="321.637" y2="222.188"/>
		
			<line style="fill:none;stroke:#263238;stroke-linecap:round;stroke-linejoin:round;stroke-miterlimit:10;" x1="307.237" y1="225.506" x2="321.637" y2="225.506"/>
	</g>
	<g>
		
			<circle style="fill:#263238;stroke:#263238;stroke-linecap:round;stroke-linejoin:round;stroke-miterlimit:10;" cx="140.283" cy="223.711" r="21.273"/>
		
			<circle style="fill:#FFFFFF;stroke:#263238;stroke-linecap:round;stroke-linejoin:round;stroke-miterlimit:10;" cx="141.266" cy="220.764" r="21.273"/>
		<path style="fill:#263238;stroke:#263238;stroke-linecap:round;stroke-linejoin:round;stroke-miterlimit:10;" d="M130.608,207.729
			c-3.436,2.531-2.804,8.366-0.949,11.618c2.148,3.765,5.622,6.608,8.881,9.371c0.351,0.298,0.704,0.594,1.044,0.904
			c2.444,2.221,5.756,3.971,9.049,4.45c3.157,0.459,4.93-1.717,5.544-4.608c0.127-0.601-0.065-1.224-0.5-1.658l-4.898-4.898
			c0,0-0.876-0.511-1.533,0.146s-2.846,2.481-2.846,2.481s-4.306-1.533-8.903-8.903c0,0,2.481-2.7,2.7-3.138
			c0.219-0.438,0.146-1.168-0.292-1.752c-0.749-0.998-1.857-1.827-2.77-2.669C133.698,207.748,132.575,206.281,130.608,207.729z"/>
	</g>
</g>
<g id="Check_Marks">
	<g>
		<g>
			
				<ellipse transform="matrix(0.9731 -0.2305 0.2305 0.9731 -13.7389 72.6556)" style="fill:#263238;stroke:#263238;stroke-linecap:round;stroke-linejoin:round;stroke-miterlimit:10;" cx="304.058" cy="95.123" rx="7.836" ry="7.836"/>
			<g>
				<path style="fill:#92E3A9;stroke:#263238;stroke-linecap:round;stroke-linejoin:round;stroke-miterlimit:10;" d="
					M304.891,98.647c-0.067,0-0.135-0.004-0.202-0.014c-0.474-0.064-0.889-0.351-1.117-0.772l-2.465-4.551
					c-0.395-0.729-0.123-1.639,0.605-2.033c0.727-0.396,1.639-0.125,2.033,0.604l1.487,2.748l8.439-8.762
					c0.575-0.597,1.523-0.614,2.12-0.04c0.597,0.575,0.615,1.524,0.04,2.121l-9.86,10.24
					C305.686,98.483,305.295,98.647,304.891,98.647z"/>
			</g>
		</g>
		<g>
			
				<circle style="fill:#263238;stroke:#263238;stroke-linecap:round;stroke-linejoin:round;stroke-miterlimit:10;" cx="163.225" cy="140.359" r="7.836"/>
			<g>
				<path style="fill:#92E3A9;stroke:#263238;stroke-linecap:round;stroke-linejoin:round;stroke-miterlimit:10;" d="
					M164.058,143.884c-0.067,0-0.135-0.004-0.202-0.014c-0.474-0.064-0.889-0.351-1.117-0.772l-2.465-4.551
					c-0.395-0.729-0.123-1.639,0.605-2.033c0.727-0.395,1.639-0.125,2.033,0.605l1.487,2.748l8.439-8.762
					c0.575-0.597,1.523-0.614,2.12-0.04c0.597,0.575,0.615,1.524,0.04,2.121l-9.86,10.24
					C164.854,143.72,164.462,143.884,164.058,143.884z"/>
			</g>
		</g>
		<g>
			
				<circle style="fill:#263238;stroke:#263238;stroke-linecap:round;stroke-linejoin:round;stroke-miterlimit:10;" cx="310.633" cy="205.24" r="7.836"/>
			<g>
				<path style="fill:#92E3A9;stroke:#263238;stroke-linecap:round;stroke-linejoin:round;stroke-miterlimit:10;" d="
					M311.466,208.765c-0.067,0-0.135-0.004-0.202-0.014c-0.474-0.065-0.889-0.351-1.117-0.772l-2.465-4.551
					c-0.395-0.729-0.123-1.639,0.605-2.033c0.727-0.396,1.639-0.125,2.033,0.604l1.487,2.748l8.438-8.762
					c0.575-0.597,1.523-0.614,2.12-0.04c0.597,0.575,0.615,1.524,0.04,2.121l-9.86,10.24
					C312.262,208.601,311.87,208.765,311.466,208.765z"/>
			</g>
		</g>
	</g>
</g>
<g id="Character_2">
	<g>
		<path style="fill:#FFFFFF;stroke:#263238;stroke-linecap:round;stroke-linejoin:round;stroke-miterlimit:10;" d="M352.651,271.323
			c0,0-13.8,33.591-14.045,35.719c-0.245,2.129,1.515,5.567,3.382,6.213c1.867,0.646,8.153-3.374,9.201-4.979
			c1.048-1.605,8.996-27.458,8.996-27.458L352.651,271.323z"/>
		<g>
			<polygon style="fill:#263238;stroke:#263238;stroke-linecap:round;stroke-linejoin:round;stroke-miterlimit:10;" points="
				356.184,290.734 340.543,260.737 368.826,257.309 380.181,281.092 			"/>
			<polygon style="fill:#FFFFFF;stroke:#263238;stroke-linecap:round;stroke-linejoin:round;stroke-miterlimit:10;" points="
				358.271,288.274 344.674,262.018 367.648,259.206 377.181,279.835 			"/>
			<path style="fill:#FFFFFF;stroke:#263238;stroke-linecap:round;stroke-linejoin:round;stroke-miterlimit:10;" d="M345.9,260.094
				l0.146-2.239l4.942-0.927c0,0-0.927-3.398,2.411-3.69c2.561-0.224,3.428,3,3.428,3l4.355-0.133l2.287,2.061l-3.428,0.429
				l-0.61,2.246l-6.898,1.104l-2.785-2.357L345.9,260.094z"/>
		</g>
		<g>
			<path style="fill:#FFFFFF;stroke:#263238;stroke-linecap:round;stroke-linejoin:round;stroke-miterlimit:10;" d="
				M381.088,257.799c0,0-6.564-3.907-7.501-3.594c-0.938,0.313-5.939,5.782-5.314,7.189s2.032,0.625,2.657,2.344
				c0.625,1.719,6.408,2.032,7.501,0C379.525,261.706,381.088,257.799,381.088,257.799z"/>
			<path style="fill:#263238;stroke:#263238;stroke-linecap:round;stroke-linejoin:round;stroke-miterlimit:10;" d="
				M379.838,247.172l-5.782,13.44l1.719,0.313l6.408-13.44C382.182,247.484,382.025,245.609,379.838,247.172z"/>
			<path style="fill:#FFFFFF;stroke:#263238;stroke-linecap:round;stroke-linejoin:round;stroke-miterlimit:10;" d="
				M380.463,260.456c0,0-6.876-3.907-7.814-3.282c-0.938,0.625-3.594,5.001-3.751,5.626s1.094,1.563,2.032,0.938
				c0.938-0.625,2.032-1.563,2.032-1.563s1.563,1.563,3.438,1.719"/>
		</g>
		<g>
			<path style="fill:#FFFFFF;stroke:#263238;stroke-linecap:round;stroke-linejoin:round;stroke-miterlimit:10;" d="
				M397.437,209.819c0,0-2.208,3.318-4.281,4.913c-2.072,1.596-6.567,1.8-6.489,3.512c0.078,1.712,1.722,4.855,1.722,4.855
				s-1.099,13.562-0.185,14.808c0.914,1.245,6.305,1.858,6.305,1.858l-1.022,10.556l16.948,0.087l1.391-16.578
				c0,0-6.149-22.027-9.7-24.653C398.576,206.55,397.437,209.819,397.437,209.819z"/>
			<path style="fill:#263238;stroke:#263238;stroke-linecap:round;stroke-linejoin:round;stroke-miterlimit:10;" d="M407.913,200.36
				c0,0-5.193-6.439-9.104-2.829c-3.911,3.609-2.958,10.43-1.372,12.288c1.586,1.858,1.586,1.858,1.586,1.858
				s-2.588,4.407-2.481,6.762c0.107,2.354,2.812,5.234,2.812,5.234s-1.313,13.572,3.931,15.693
				c5.244,2.121,20.773-6.559,22.729-10.723c1.956-4.164-0.759-16.695-0.759-16.695l4.446-1.274c0,0-1.703,5.01,1.372,6.587
				c3.074,1.576,7.404,2.452,7.404,2.452s-11.101,5.867-9.7,13.096c1.401,7.229,17.355,10.188,19.612,3.222
				c2.257-6.966-0.407-14.819-0.407-14.819s14.399,0.632,12.959-12.171c-1.44-12.803-11.607-9.982-15.79-7.647
				c-4.184,2.335-6.888,4.174-6.888,4.174s-3.425-14-10.167-11.334c-6.742,2.666-6.607,11.032-6.607,11.032L407.913,200.36z"/>
			<path style="fill:#FFFFFF;stroke:#263238;stroke-linecap:round;stroke-linejoin:round;stroke-miterlimit:10;" d="
				M398.352,220.501c0,0-0.282,3.23-1.596,7.365c-1.313,4.135,1.352,6.159,3.629-0.38
				C402.662,220.949,401.455,218.001,398.352,220.501z"/>
		</g>
		<path style="fill:#FFFFFF;stroke:#263238;stroke-linecap:round;stroke-linejoin:round;stroke-miterlimit:10;" d="M429.89,264.808
			c0,0,0.286,19.002-0.596,27.235c-0.882,8.233-4.424,14.378-7.057,13.819c-2.632-0.559-9.703-4.704-9.703-4.704L429.89,264.808z"/>
		<path style="fill:#FFFFFF;stroke:#263238;stroke-linecap:round;stroke-linejoin:round;stroke-miterlimit:10;" d="M369.15,381.691
			c0,0,1.061,27.799,3.608,46.049c2.546,18.25,0.849,29.709,0.849,29.709s-2.547,2.546-5.73,3.82
			c-3.183,1.273-6.791,1.91-6.366,3.183c0.424,1.273,1.698,2.334,10.823,4.669c9.125,2.334,15.067,0.849,15.491-0.212
			c0.424-1.061-2.122-12.945-2.122-13.581s1.273-22.918,2.334-33.316c1.061-10.398,1.273-33.953,1.273-35.439c0-1.486,0-3.82,0-3.82
			L369.15,381.691z"/>
		<path style="fill:#263238;stroke:#263238;stroke-linecap:round;stroke-linejoin:round;stroke-miterlimit:10;" d="M372.333,469.121
			c9.125,2.334,15.067,0.849,15.491-0.212c0.193-0.484-0.231-3.219-0.75-6.111c-5.589,4.333-17.076,0.381-17.076,0.381
			s0,0,0.212-1.698c0.104-0.83,0.919-1.812,1.724-2.599c-1.034,0.796-2.467,1.75-4.058,2.387c-3.183,1.273-6.791,1.91-6.366,3.183
			C361.935,465.725,363.208,466.786,372.333,469.121z"/>
		<g>
			<path style="fill:#FFFFFF;stroke:#263238;stroke-linecap:round;stroke-linejoin:round;stroke-miterlimit:10;" d="
				M398.859,386.784l9.337,69.604c0,0,0.637,8.913,0.637,10.823c0,1.91,3.269,3.426,5.942,3.183
				c2.334-0.212,4.032-1.486,4.244-4.456c0.212-2.971-1.485-12.732-1.485-12.732l1.485-68.755L398.859,386.784z"/>
			<path style="fill:#263238;stroke:#263238;stroke-linecap:round;stroke-linejoin:round;stroke-miterlimit:10;" d="
				M414.774,470.394c2.334-0.212,4.032-1.486,4.244-4.456c0.053-0.748-0.014-1.926-0.145-3.27
				c-3.862,2.136-8.449,0.484-10.281-0.354c0.129,2.081,0.24,4.1,0.24,4.898C408.832,469.121,412.101,470.637,414.774,470.394z"/>
		</g>
		<path style="fill:#263238;stroke:#263238;stroke-linecap:round;stroke-linejoin:round;stroke-miterlimit:10;" d="M360.493,361.138
			l-1.176,33.206c0,0,19.111,6.469,37.047,5.881c22.403-0.735,33.224-6.174,33.224-6.174L429,358.198c0,0-38.517-8.821-52.042-6.469
			S360.493,361.138,360.493,361.138z"/>
		<path style="fill:#FFFFFF;stroke:#263238;stroke-linecap:round;stroke-linejoin:round;stroke-miterlimit:10;" d="M385.752,254.523
			c0,0-20.355,11.784-20.141,14.57c0.214,2.785,3,40.71,3,40.71s-7.928,23.569-8.142,32.782c-0.214,9.213-1.714,20.998-1.714,20.998
			l8.356,1.5l3.642-7.928l0.428,9.856c0,0,18.855,3.642,35.567,2.571c16.712-1.071,25.069-7.499,25.069-7.499
			s-0.214-18.427-4.928-32.354c-4.714-13.927-7.285-23.569-7.285-24.426c0-0.857,10.571-22.081,10.285-40.495
			c-0.06-3.862-10.499-9.428-10.499-9.428S405.893,248.31,385.752,254.523z"/>
		<path style="fill:#FFFFFF;stroke:#263238;stroke-linecap:round;stroke-linejoin:round;stroke-miterlimit:10;" d="M414.463,246.81
			c0,0-21.212-1.714-24.212,0.214c-3,1.928-7.071,10.07-7.071,10.07s13.07-4.499,21.855-4.285
			c8.785,0.214,14.355,2.571,14.355,2.571S417.677,248.524,414.463,246.81z"/>
		
			<line style="fill:none;stroke:#263238;stroke-linecap:round;stroke-linejoin:round;stroke-miterlimit:10;" x1="400.533" y1="305.861" x2="413.177" y2="294.162"/>
		
			<line style="fill:none;stroke:#263238;stroke-linecap:round;stroke-linejoin:round;stroke-miterlimit:10;" x1="390.252" y1="315.374" x2="395.453" y2="310.561"/>
		
			<line style="fill:none;stroke:#263238;stroke-linecap:round;stroke-linejoin:round;stroke-miterlimit:10;" x1="411.249" y1="303.375" x2="402.679" y2="312.803"/>
		<path style="fill:#FFFFFF;stroke:#263238;stroke-linecap:round;stroke-linejoin:round;stroke-miterlimit:10;" d="M365.611,269.093
			c0,0-24.22,31.95-25.506,33.878c-1.286,1.928-1.286,7.285,1.071,9.213c2.357,1.928,6.856,3.857,10.07,3.214
			c3.214-0.643,19.078-15.238,19.078-15.238S372.039,271.022,365.611,269.093z"/>
	</g>
</g>
<g id="Character_1">
	<g>
		<path style="fill:#FFFFFF;stroke:#263238;stroke-linecap:round;stroke-linejoin:round;stroke-miterlimit:10;" d="M273.866,211.943
			l-7.462,18.546l-2.878,1.371l3.152,15.624l23.226-31.249C289.904,216.235,286.124,207.513,273.866,211.943z"/>
		<polygon style="fill:#919191;stroke:#263238;stroke-linecap:round;stroke-linejoin:round;stroke-miterlimit:10;" points="
			257.385,266.84 265.282,266.671 265.282,245.565 194.726,245.565 194.726,266.84 		"/>
		<path style="fill:#263238;stroke:#263238;stroke-linecap:round;stroke-linejoin:round;stroke-miterlimit:10;" d="M214.006,140.788
			c0,0-31.624,12.198-33.205,15.812c-1.581,3.614-5.345,48.569-5.345,48.569s-0.302,9.71,1.731,10.613
			c2.033,0.904,16.264-2.936,16.264-2.936s-0.226,36.82,1.129,37.949c1.355,1.13,67.766-0.452,69.122-1.807
			c1.355-1.355,1.581-4.744,1.581-4.744l2.033-50.599l7.228,12.198c0,0-2.936,0.226-2.485,1.581
			c0.452,1.355,1.807,4.518,1.807,4.518s8.132-0.678,11.294,0.678c3.162,1.355,3.84,3.84,4.744,3.614
			c0.904-0.226,4.97-2.485,6.325-4.969c1.355-2.485,1.129-3.614,0.452-4.066c0,0,0.226-3.388-0.226-4.969
			c-0.452-1.581-4.066-4.97-6.099-6.325c-2.033-1.355-3.614-5.195-3.614-5.195s-13.101-36.594-15.134-38.175
			c-2.033-1.581-41.112-11.972-41.112-11.972L214.006,140.788z"/>
		<g>
			<path style="fill:#FFFFFF;stroke:#263238;stroke-linecap:round;stroke-linejoin:round;stroke-miterlimit:10;" d="
				M241.182,100.159c0,0,1.155,6.063,2.743,11.115s0,17.61-0.577,21.074c-0.577,3.464-4.763,4.042-5.774,4.042
				c-1.01,0-1.01,0-1.01,0s0.289,15.589,0.289,17.321c0,1.732-0.577,7.506-6.929,9.671c-6.351,2.165-14.002-0.722-16.167-5.774
				c-2.165-5.052-4.619-51.676-4.619-51.676s-1.01-5.629,3.897-9.527c4.908-3.897,15.156-3.609,20.497-2.887
				C238.872,94.24,241.182,100.159,241.182,100.159z"/>
			<path style="fill:#FFFFFF;stroke:#263238;stroke-linecap:round;stroke-linejoin:round;stroke-miterlimit:10;" d="
				M240.604,115.748c0,0,3.031-1.01,4.186-2.743c1.155-1.732-3.753-2.887-4.763-3.897c-1.01-1.01-1.155-6.929-1.155-6.929h1.876"/>
			<path style="fill:none;stroke:#263238;stroke-linecap:round;stroke-linejoin:round;stroke-miterlimit:10;" d="M226.603,116.614
				c0,0,4.475,5.341,7.362,5.196c2.887-0.144,6.784-0.866,6.784-0.866"/>
			
				<line style="fill:none;stroke:#263238;stroke-linecap:round;stroke-linejoin:round;stroke-miterlimit:10;" x1="228.335" y1="115.604" x2="224.871" y2="117.336"/>
			<path style="fill:none;stroke:#263238;stroke-linecap:round;stroke-linejoin:round;stroke-miterlimit:10;" d="M227.036,103.045
				c0,0,1.155-2.165,5.196-1.588"/>
			<path style="fill:#263238;" d="M231.799,108.242c0,1.036-0.452,1.877-1.01,1.877c-0.558,0-1.01-0.84-1.01-1.877
				c0-1.036,0.452-1.876,1.01-1.876C231.347,106.365,231.799,107.205,231.799,108.242z"/>
			<path style="fill:#263238;" d="M242.047,108.751c0,1.036-0.641,0.945-1.199,0.945s-0.822,0.092-0.822-0.945
				c0-1.036,0.452-1.877,1.01-1.877C241.595,106.874,242.047,107.715,242.047,108.751z"/>
			<path style="fill:#263238;" d="M236.563,136.389c0,0-5.341,0-7.795-0.577c-2.454-0.577-9.238-4.475-9.238-4.475
				s4.908,5.918,8.949,7.939c4.042,2.021,7.65,1.443,7.65,1.443L236.563,136.389z"/>
			<path style="fill:#92E3A9;stroke:#263238;stroke-linecap:round;stroke-linejoin:round;stroke-miterlimit:10;" d="
				M211.446,114.882c0,0,4.042-0.722,4.33-1.588c0.289-0.866-3.753-4.908-1.155-7.217c2.598-2.31,6.784-3.609,6.64-5.052
				c-0.144-1.443-5.485-3.176-1.155-5.774c4.33-2.598,16.744-0.866,18.621,1.01c1.876,1.877,2.454,4.619,4.042,3.464
				c1.588-1.155,5.63-8.228,4.186-10.682c-1.443-2.454-4.619,0.433-4.619,0.433s-2.309-7.65-4.619-5.196
				c-2.31,2.454-2.31,4.763-2.31,4.763s-14.867-2.31-26.415,2.887c-11.548,5.196-2.454,23.817-2.454,23.817L211.446,114.882z"/>
			<path style="fill:#FFFFFF;stroke:#263238;stroke-linecap:round;stroke-linejoin:round;stroke-miterlimit:10;" d="
				M213.179,116.758c0,0-4.475-6.929-6.64-5.341c-2.165,1.588-2.598,10.826,0.289,11.692c2.887,0.866,4.908-1.155,4.908-1.155"/>
		</g>
		<g>
			<path style="fill:#FFFFFF;stroke:#263238;stroke-linecap:round;stroke-linejoin:round;stroke-miterlimit:10;" d="M243.07,144.143
				c0,0,3.121-0.52,4.681-2.601c1.56-2.081,2.947-0.173,2.08,2.427c-0.867,2.601-5.721,5.201-5.721,5.201L243.07,144.143z"/>
			<path style="fill:#FFFFFF;stroke:#263238;stroke-linecap:round;stroke-linejoin:round;stroke-miterlimit:10;" d="
				M239.429,139.288c0,0-8.148,2.254-8.842,4.681c-0.693,2.427-0.665,19.413-0.665,19.413s-45.452,27.571-48.226,28.958
				c-2.774,1.387-5.895,1.56-7.975,3.988c-2.081,2.427,1.734,8.842,1.734,8.842s-3.467,0.694-2.427,2.774
				c1.04,2.08,1.907,1.04,1.907,1.04s0.098,7.915,0.52,9.709c0.693,2.947,5.245,3.315,7.282,2.601
				c5.688-1.996,53.745-54.612,53.745-54.612s2.774-0.52,3.294-2.601c0.52-2.081,0.52-2.947,0.52-2.947s4.161,0,4.854-1.04
				c0.693-1.04,1.387-3.467,1.56-5.201c0.173-1.734-1.734-8.322-1.734-8.322s-0.347-2.947-1.907-2.427
				c-1.56,0.52-7.628,3.121-7.628,3.121s-1.04-2.254,0.173-2.947c1.214-0.693,9.189-0.867,8.495-3.467
				C243.417,138.248,239.429,139.288,239.429,139.288z"/>
			<path style="fill:none;stroke:#263238;stroke-linecap:round;stroke-linejoin:round;stroke-miterlimit:10;" d="M245.844,150.037
				c0,0-0.347-2.947-1.907-2.601c-1.56,0.347-7.802,3.121-7.802,3.121"/>
			<path style="fill:none;stroke:#263238;stroke-linecap:round;stroke-linejoin:round;stroke-miterlimit:10;" d="M246.364,153.158
				c0,0-0.173-1.907-1.734-1.734c-1.56,0.173-7.779,2.286-7.779,2.286"/>
			<path style="fill:none;stroke:#263238;stroke-linecap:round;stroke-linejoin:round;stroke-miterlimit:10;" d="M242.723,156.279
				l-3.294,1.04c0,0-1.734,3.467,0.867,3.814"/>
			
				<line style="fill:none;stroke:#263238;stroke-linecap:round;stroke-linejoin:round;stroke-miterlimit:10;" x1="235.442" y1="147.263" x2="232.668" y2="148.824"/>
			<path style="fill:#263238;stroke:#263238;stroke-linecap:round;stroke-linejoin:round;stroke-miterlimit:10;" d="
				M188.167,188.564c-3.471,2.067-5.894,3.488-6.471,3.776c-2.774,1.387-5.895,1.56-7.975,3.988
				c-2.081,2.427,1.734,8.842,1.734,8.842s-3.467,0.694-2.427,2.774c1.04,2.08,1.907,1.04,1.907,1.04s0.098,7.915,0.52,9.709
				c0.693,2.947,5.245,3.315,7.282,2.601c1.608-0.564,6.606-5.179,12.947-11.505C190.567,204.569,188.784,194.549,188.167,188.564z"
				/>
		</g>
		<path style="fill:#FFFFFF;stroke:#263238;stroke-linecap:round;stroke-linejoin:round;stroke-miterlimit:10;" d="M267.315,231.821
			c0,0-7.906,7.454-7.906,8.81c0,1.355,1.581,2.711,2.485,1.807c0.904-0.904,8.81-5.647,9.035-7.228
			C271.155,233.628,270.026,230.24,267.315,231.821z"/>
		<path style="fill:#FFFFFF;stroke:#263238;stroke-linecap:round;stroke-linejoin:round;stroke-miterlimit:10;" d="M270.241,236.108
			c0,0,2.056,1.096,2.193,2.741c0.137,1.645-8.36,8.223-10.827,7.949c-2.467-0.274,0.287-4.361,0.287-4.361L270.241,236.108z"/>
		<path style="fill:#FFFFFF;stroke:#263238;stroke-linecap:round;stroke-linejoin:round;stroke-miterlimit:10;" d="M271.749,240.905
			c0,0,1.096,2.467,0.411,3.974c-0.685,1.508-6.716,3.152-8.634,3.015c-1.919-0.137-0.274-1.37-0.274-1.37
			S271.475,241.865,271.749,240.905z"/>
		<path style="fill:#FFFFFF;stroke:#263238;stroke-linecap:round;stroke-linejoin:round;stroke-miterlimit:10;" d="M271.201,246.25
			c0,0,0.137,2.193-0.548,3.152c-0.685,0.959-4.249,2.878-5.893,1.782c-1.645-1.096,3.975-4.112,3.975-4.112L271.201,246.25z"/>
	</g>
</g>
</svg>
