<?xml version="1.0" encoding="utf-8"?>
<!-- Generator: Adobe Illustrator 27.5.0, SVG Export Plug-In . SVG Version: 6.00 Build 0)  -->
<svg version="1.1" xmlns="http://www.w3.org/2000/svg" xmlns:xlink="http://www.w3.org/1999/xlink" x="0px" y="0px"
	 viewBox="0 0 750 500" style="enable-background:new 0 0 750 500;" xml:space="preserve">
<g id="Background_Simple">
	<g>
		<path style="fill:#92E3A9;" d="M713.57,196.363c0,0-16.016-81.682-130.532-132.133c-114.515-50.451-167.54-0.247-225.112,20.698
			s-88.804-7.885-184.901-21.498C76.928,49.815-6.356,185.151,20.871,290.858s87.288,143.344,218.62,167.369
			c131.332,24.024,209.011-55.256,301.904-40.841C634.29,431.8,744.801,350.918,713.57,196.363z"/>
		<path style="opacity:0.7;fill:#FFFFFF;" d="M713.57,196.363c0,0-16.016-81.682-130.532-132.133
			c-114.515-50.451-167.54-0.247-225.112,20.698s-88.804-7.885-184.901-21.498C76.928,49.815-6.356,185.151,20.871,290.858
			s87.288,143.344,218.62,167.369c131.332,24.024,209.011-55.256,301.904-40.841C634.29,431.8,744.801,350.918,713.57,196.363z"/>
	</g>
</g>
<g id="Floor">
	<g>
		
			<line style="fill:none;stroke:#263238;stroke-linecap:round;stroke-linejoin:round;stroke-miterlimit:10;" x1="34.728" y1="438.194" x2="25.53" y2="438.194"/>
		
			<line style="fill:none;stroke:#263238;stroke-linecap:round;stroke-linejoin:round;stroke-miterlimit:10;" x1="737.805" y1="438.194" x2="49.675" y2="438.194"/>
	</g>
</g>
<g id="Clock">
	<g>
		<path style="fill:#263238;stroke:#263238;stroke-linecap:round;stroke-linejoin:round;stroke-miterlimit:10;" d="M217.3,86.28
			c-17.66,0-31.97,14.31-31.97,31.96c0,17.66,14.31,31.97,31.97,31.97c17.65,0,31.96-14.31,31.96-31.97
			C249.26,100.59,234.95,86.28,217.3,86.28z M217.3,143.88c-14.16,0-25.64-11.48-25.64-25.64S203.14,92.6,217.3,92.6
			s25.64,11.48,25.64,25.64S231.46,143.88,217.3,143.88z"/>
		
			<line style="fill:none;stroke:#263238;stroke-linecap:round;stroke-linejoin:round;stroke-miterlimit:10;" x1="218.514" y1="118.814" x2="229.75" y2="121.703"/>
		
			<line style="fill:none;stroke:#263238;stroke-linecap:round;stroke-linejoin:round;stroke-miterlimit:10;" x1="217.296" y1="118.244" x2="204.068" y2="98.911"/>
		<path style="fill:#FFFFFF;stroke:#263238;stroke-linecap:round;stroke-linejoin:round;stroke-miterlimit:10;" d="M220.457,118.244
			c0,1.746-1.415,3.161-3.161,3.161c-1.746,0-3.161-1.415-3.161-3.161c0-1.746,1.415-3.161,3.161-3.161
			C219.042,115.083,220.457,116.498,220.457,118.244z"/>
	</g>
</g>
<g id="Blackboard">
	<g>
		
			<rect x="365.595" y="87.849" style="fill:none;stroke:#263238;stroke-linecap:round;stroke-linejoin:round;stroke-miterlimit:10;" width="264.305" height="184.063"/>
		
			<rect x="372.445" y="92.619" style="fill:none;stroke:#263238;stroke-linecap:round;stroke-linejoin:round;stroke-miterlimit:10;" width="250.605" height="174.522"/>
		
			<rect x="372.445" y="261.22" style="fill:none;stroke:#263238;stroke-linecap:round;stroke-linejoin:round;stroke-miterlimit:10;" width="250.605" height="5.921"/>
		
			<rect x="372.445" y="261.22" style="fill:none;stroke:#263238;stroke-linecap:round;stroke-linejoin:round;stroke-miterlimit:10;" width="241.827" height="5.921"/>
	</g>
</g>
<g id="Text">
	<g>
		<path style="fill:#263238;" d="M470.583,152.712c-0.296-0.268-0.444-0.585-0.444-0.952c0-0.254,0.056-0.564,0.17-0.931
			c0.084-0.395,0.126-0.691,0.126-0.889c0-2.511-0.14-7.337-0.423-14.476c-0.282-6.096-0.423-10.906-0.423-14.434
			c0-0.254,0.098-0.459,0.296-0.614c0.197-0.155,0.437-0.233,0.719-0.233c0.339,0,0.635,0.121,0.889,0.36
			c0.254,0.24,0.381,0.529,0.381,0.868c0,1.693,0.085,4.233,0.254,7.619c0.141,3.753,0.212,6.293,0.212,7.619l0.042,0.508v0.508
			v0.296v0.211c0.084,2.455,0.127,6.124,0.127,11.005v1.101h3.26c0.593,0.423,0.889,0.847,0.889,1.27
			c0,0.311-0.106,0.586-0.318,0.826c-0.212,0.24-0.458,0.36-0.741,0.36c-0.084,0-0.24-0.029-0.466-0.085l-0.169-0.042
			c-0.17,0.028-0.438,0.042-0.805,0.042h-0.719c-0.198-0.028-0.424-0.042-0.678-0.042c-0.282,0.339-0.677,0.508-1.185,0.508
			C471.211,153.115,470.879,152.98,470.583,152.712z"/>
		<path style="fill:#263238;" d="M481.228,152.691c-0.48-0.14-0.719-0.536-0.719-1.185v-24.593c0-0.48-0.085-1.199-0.254-2.158
			c-0.198-0.875-0.296-1.594-0.296-2.159v-0.127c0.479-0.79,0.832-1.298,1.057-1.524c0.396,0,0.917-0.056,1.567-0.169
			c0.593-0.112,1.114-0.169,1.566-0.169c0.451,0,0.889,0.135,1.313,0.402c0.423,0.269,0.635,0.586,0.635,0.952
			c0,0.847-0.65,1.27-1.947,1.27h-0.593c-0.169-0.028-0.367-0.042-0.593-0.042c-0.254,0-0.41,0.015-0.466,0.042
			c0,0.96,0.056,2.117,0.17,3.471l0.084,1.185l0.085,2.328c0,0.536-0.043,1.354-0.128,2.455l-0.084,2.37l0.592-0.127
			c0.565-0.169,1.03-0.254,1.397-0.254c0.31,0,0.593,0.121,0.847,0.36c0.253,0.24,0.381,0.515,0.381,0.825
			c0,0.339-0.106,0.642-0.318,0.91c-0.211,0.269-0.473,0.402-0.783,0.402l-0.508-0.042h-0.549c-0.424,0-0.72,0.099-0.89,0.296
			v13.079l2.371-0.127c1.608,0,2.413,0.367,2.413,1.101v0.169c-0.17,0.338-0.48,0.614-0.931,0.826
			c-0.452,0.211-0.889,0.345-1.313,0.402l-1.397,0.043h-1.312C482.089,152.903,481.623,152.832,481.228,152.691z"/>
		<path style="fill:#263238;" d="M491.768,153.03c-0.452-0.254-0.677-0.55-0.677-0.889c0-0.339,0.084-0.614,0.254-0.826
			c0.169-0.212,0.408-0.317,0.719-0.317c0.282,0,0.691,0.113,1.227,0.339c0.593,0.226,0.959,0.338,1.101,0.338
			c0.535,0,1.022-0.232,1.46-0.698c0.438-0.466,0.784-1.08,1.037-1.841c0.508-1.411,0.762-2.681,0.762-3.81
			c0-1.213-0.19-2.49-0.571-3.831c-0.382-1.34-0.896-2.646-1.545-3.916l-0.678-1.354c-0.705-1.411-1.248-2.525-1.63-3.344
			c-0.381-0.818-0.713-1.707-0.994-2.667c-0.424-1.354-0.636-2.667-0.636-3.937c0-1.016,0.176-1.975,0.53-2.878
			c0.353-0.902,0.881-1.665,1.587-2.285c0.705-0.678,1.58-1.016,2.624-1.016c0.507,0,1.001,0.148,1.481,0.444
			c0.479,0.296,0.818,0.67,1.015,1.121l-0.719,0.889c-0.734,0-1.285-0.141-1.651-0.423c-0.508,0.057-0.953,0.303-1.333,0.741
			c-0.381,0.437-0.67,0.938-0.868,1.503c-0.169,0.536-0.253,1.073-0.253,1.608c0,1.073,0.148,2.166,0.444,3.28
			c0.296,1.115,0.683,2.166,1.164,3.154l2.963,5.926c0.48,1.016,0.861,2.159,1.143,3.429c0.282,1.27,0.424,2.54,0.424,3.81
			c0,1.862-0.452,3.612-1.355,5.249c-0.48,0.846-1.101,1.517-1.862,2.01c-0.762,0.494-1.609,0.741-2.54,0.741
			C493.376,153.58,492.501,153.396,491.768,153.03z"/>
		<path style="fill:#263238;" d="M503.747,153.03c-0.452-0.254-0.677-0.55-0.677-0.889c0-0.339,0.084-0.614,0.254-0.826
			c0.169-0.212,0.408-0.317,0.719-0.317c0.282,0,0.691,0.113,1.227,0.339c0.593,0.226,0.959,0.338,1.101,0.338
			c0.535,0,1.022-0.232,1.46-0.698c0.438-0.466,0.784-1.08,1.037-1.841c0.508-1.411,0.762-2.681,0.762-3.81
			c0-1.213-0.19-2.49-0.571-3.831c-0.382-1.34-0.896-2.646-1.545-3.916l-0.678-1.354c-0.705-1.411-1.248-2.525-1.63-3.344
			c-0.381-0.818-0.713-1.707-0.994-2.667c-0.424-1.354-0.636-2.667-0.636-3.937c0-1.016,0.176-1.975,0.53-2.878
			c0.353-0.902,0.881-1.665,1.587-2.285c0.705-0.678,1.58-1.016,2.624-1.016c0.507,0,1.001,0.148,1.481,0.444
			c0.479,0.296,0.818,0.67,1.015,1.121l-0.719,0.889c-0.734,0-1.285-0.141-1.651-0.423c-0.508,0.057-0.953,0.303-1.333,0.741
			c-0.381,0.437-0.67,0.938-0.868,1.503c-0.169,0.536-0.253,1.073-0.253,1.608c0,1.073,0.148,2.166,0.444,3.28
			c0.296,1.115,0.683,2.166,1.164,3.154l2.963,5.926c0.48,1.016,0.861,2.159,1.143,3.429c0.282,1.27,0.424,2.54,0.424,3.81
			c0,1.862-0.452,3.612-1.355,5.249c-0.48,0.846-1.101,1.517-1.862,2.01c-0.762,0.494-1.609,0.741-2.54,0.741
			C505.355,153.58,504.48,153.396,503.747,153.03z"/>
		<path style="fill:#263238;" d="M520.425,153.072c-0.622-0.508-1.158-1.199-1.609-2.074c-0.818-1.524-1.425-3.612-1.82-6.265
			c-0.282-1.834-0.494-3.951-0.635-6.349l-0.042-2.244v-2.285c-0.029-0.734-0.043-1.623-0.043-2.667c0-1.693,0.07-3.188,0.212-4.486
			c0.113-1.354,0.395-2.695,0.847-4.021c0.451-1.156,1.101-1.974,1.948-2.455c0.507-0.226,1.015-0.339,1.524-0.339
			c1.495,0,2.681,0.593,3.555,1.778c0.959,1.327,1.594,2.808,1.904,4.445c0.452,1.976,0.705,3.866,0.762,5.672
			c0.113,2.004,0.17,3.894,0.17,5.672v2.413c0,0.48-0.071,1.383-0.212,2.709c-0.114,1.044-0.17,1.933-0.17,2.667v0.17
			c-0.169,0.79-0.254,1.721-0.254,2.794c0,0.79-0.169,1.608-0.507,2.455c-0.338,0.847-0.819,1.566-1.439,2.159
			c-0.621,0.678-1.327,1.016-2.116,1.016C521.737,153.834,521.044,153.58,520.425,153.072z M524.022,149.94
			c0.339-0.932,0.585-2.067,0.741-3.408c0.155-1.34,0.289-2.857,0.402-4.55c0.056-0.733,0.084-1.678,0.084-2.836l-0.042-3.894
			c-0.057-1.524-0.226-3.428-0.508-5.714c-0.226-1.947-0.65-3.668-1.27-5.164c-0.282-0.705-0.635-1.256-1.059-1.651
			c-0.423-0.395-0.875-0.593-1.354-0.593c-0.706,0-1.228,0.55-1.567,1.651c-0.423,1.158-0.705,2.427-0.847,3.81
			c-0.169,1.496-0.268,2.921-0.296,4.275l-0.042,1.397c-0.028,0.395-0.042,0.931-0.042,1.609v0.169c0,1.891,0.197,4.219,0.593,6.984
			c0.451,3.753,1.115,6.42,1.99,8c0.565,0.988,1.157,1.481,1.778,1.481C523.148,151.506,523.627,150.984,524.022,149.94z"/>
		<path style="fill:#263238;" d="M538.966,144.564c-1.976-6.801-3.683-13.051-5.122-18.752v13.884c0,1.185,0.112,3.203,0.339,6.053
			c0.197,3.104,0.296,5.108,0.296,6.011c0,0.254-0.156,0.473-0.465,0.656c-0.311,0.184-0.664,0.275-1.059,0.275
			c-0.593,0-0.889-0.225-0.889-0.677l0.084-1.228c0.056-0.902,0.086-1.495,0.086-1.778c0-1.495-0.086-3.866-0.254-7.111
			c-0.17-3.302-0.254-5.305-0.254-6.011v-5.418c0-0.875,0.042-2.173,0.127-3.894c0.112-1.495,0.17-2.794,0.17-3.894v-0.254
			c0-1.411,0.31-2.117,0.931-2.117c0.366,0,0.831,0.621,1.397,1.863c0.931,2.032,2.116,5.672,3.555,10.92
			c0.818,3.048,1.778,6.97,2.878,11.768c-0.029-0.112,0.197,0.861,0.677,2.921l0.042,0.211c0-2.737,0.028-5.191,0.084-7.365
			l0.085-7.365v-12.53c0.112-0.705,0.563-1.058,1.354-1.058c0.762,0,1.143,0.55,1.143,1.651v0.254
			c-0.169,0.339-0.254,0.748-0.254,1.227c0,1.722-0.042,4.318-0.127,7.788c-0.084,3.5-0.126,6.124-0.126,7.873v12.91
			c0,0.452-0.121,0.882-0.36,1.291c-0.24,0.409-0.529,0.614-0.868,0.614C541.871,153.284,540.714,150.378,538.966,144.564z"/>
		<path style="fill:#263238;" d="M501.948,193.132c0-1.778,0.211-3.95,0.635-6.518c0.395-2.709,0.621-4.797,0.677-6.265
			c-0.847-0.056-1.82-0.085-2.921-0.085l-1.015,0.085c-0.085,0.48-0.142,1.185-0.17,2.116c-0.226,3.246-0.438,5.658-0.635,7.239
			c-0.142,1.298-0.354,2.343-0.635,3.132c-0.254,0.79-0.55,1.185-0.889,1.185c-0.311,0-0.586-0.084-0.826-0.254
			c-0.24-0.17-0.359-0.381-0.359-0.635c0-3.329,0.493-7.548,1.481-12.656l-1.271,0.084c-1.157,0-1.734-0.451-1.734-1.354
			c0-0.62,0.662-0.931,1.989-0.931h0.72h0.55c0.253-1.467,0.465-3.302,0.635-5.503l-1.059,0.085c-1.327,0-1.99-0.409-1.99-1.228
			v-0.211l0.636-0.677h0.635h0.635c0.592,0,1.029-0.014,1.312-0.042l0.382-2.624c0.367-2.37,0.55-4.303,0.55-5.799v-0.381v-0.381
			c0-0.508,0.069-0.889,0.211-1.143c0.142-0.253,0.424-0.381,0.847-0.381h0.339l0.466,0.974c0,1.1-0.128,2.709-0.381,4.825
			c-0.254,2.117-0.382,3.683-0.382,4.699c0.17,0.057,0.55,0.084,1.143,0.084h0.72c0.847,0,1.452-0.056,1.82-0.169
			c0.281-1.213,0.649-3.442,1.101-6.688c0.113-0.874,0.267-1.905,0.465-3.09c0.31-0.423,0.663-0.635,1.059-0.635
			c0.225,0,0.451,0.092,0.677,0.275c0.226,0.184,0.339,0.374,0.339,0.572c0,1.044-0.24,2.638-0.719,4.783
			c-0.48,2.004-0.748,3.57-0.805,4.698h1.355l0.889,0.974c-0.057,0.282-0.114,0.501-0.17,0.656
			c-0.056,0.155-0.169,0.289-0.339,0.402c-0.198,0.142-0.396,0.212-0.592,0.212l-1.397-0.085c-0.282,1.468-0.451,3.288-0.507,5.46
			h0.211h0.212c1.185,0,1.778,0.423,1.778,1.27c0,0.706-0.536,1.058-1.608,1.058h-0.128l-0.593-0.042
			c-0.057,0.592-0.212,1.962-0.466,4.106c-0.48,3.923-0.719,6.872-0.719,8.846l-0.719,0.889
			C502.427,194.064,501.948,193.753,501.948,193.132z M503.217,178.106c0.395-2.427,0.621-4.233,0.677-5.418
			c-0.621-0.112-1.284-0.17-1.989-0.17c-0.734,0-1.327,0.043-1.779,0.127c-0.367,1.439-0.593,3.288-0.677,5.545
			c0.084,0.029,0.268,0.042,0.55,0.042C501.44,178.232,502.511,178.19,503.217,178.106z"/>
		<path style="fill:#263238;" d="M513.63,192.328c-0.198-0.141-0.296-0.451-0.296-0.932c0-0.31,0.07-0.522,0.211-0.635
			c0.142-0.112,0.438-0.169,0.889-0.169c0.621,0,0.932-0.24,0.932-0.72c0-2.794-0.212-6.913-0.636-12.36
			c-0.423-5.474-0.635-9.538-0.635-12.191c0-0.254,0.014-0.493,0.042-0.72v-0.804c0-1.326-0.48-1.99-1.438-1.99h-0.466l-0.508,0.043
			c-0.819,0-1.227-0.31-1.227-0.932c0-0.733,1.143-1.1,3.429-1.1c1.212,0,1.932,0.24,2.158,0.72
			c-0.169,0.762-0.254,1.354-0.254,1.778c0,0.762,0.112,2.046,0.338,3.852c0.198,1.609,0.296,2.907,0.296,3.894
			c0,2.004,0.156,5.333,0.466,9.989c0.31,4.12,0.466,7.478,0.466,10.074v0.254c0.112,0,0.267-0.014,0.465-0.042
			c0.197-0.027,0.395-0.042,0.593-0.042c0.112-0.028,0.282-0.042,0.508-0.042c1.185,0,1.778,0.353,1.778,1.058
			c0,0.819-1.609,1.227-4.825,1.227h-0.678h-0.593C514.165,192.54,513.826,192.469,513.63,192.328z"/>
	</g>
</g>
<g id="Chair">
	<g>
		<g>
			<path style="fill:#263238;stroke:#263238;stroke-linecap:round;stroke-linejoin:round;stroke-miterlimit:10;" d="
				M693.924,432.415c0-3.192,2.588-5.779,5.78-5.779c3.192,0,5.779,2.587,5.779,5.779c0,3.192-2.588,5.78-5.779,5.78
				C696.511,438.194,693.924,435.607,693.924,432.415z"/>
			<path style="fill:#FFFFFF;stroke:#263238;stroke-linecap:round;stroke-linejoin:round;stroke-miterlimit:10;" d="
				M696.814,432.415c0-1.596,1.294-2.889,2.89-2.889c1.596,0,2.889,1.294,2.889,2.889c0,1.596-1.294,2.89-2.889,2.89
				C698.107,435.305,696.814,434.011,696.814,432.415z"/>
		</g>
		<g>
			<path style="fill:#263238;stroke:#263238;stroke-linecap:round;stroke-linejoin:round;stroke-miterlimit:10;" d="
				M632.024,432.415c0-3.192,2.587-5.779,5.779-5.779c3.192,0,5.779,2.587,5.779,5.779c0,3.192-2.588,5.78-5.779,5.78
				C634.611,438.194,632.024,435.607,632.024,432.415z"/>
			<path style="fill:#FFFFFF;stroke:#263238;stroke-linecap:round;stroke-linejoin:round;stroke-miterlimit:10;" d="
				M634.913,432.415c0-1.596,1.294-2.889,2.89-2.889c1.596,0,2.89,1.294,2.89,2.889c0,1.596-1.294,2.89-2.89,2.89
				C636.207,435.305,634.913,434.011,634.913,432.415z"/>
		</g>
		<g>
			<path style="fill:#263238;stroke:#263238;stroke-linecap:round;stroke-linejoin:round;stroke-miterlimit:10;" d="
				M611.796,432.415c0-3.192,2.588-5.779,5.779-5.779c3.192,0,5.779,2.587,5.779,5.779c0,3.192-2.588,5.78-5.779,5.78
				C614.384,438.194,611.796,435.607,611.796,432.415z"/>
			<path style="fill:#FFFFFF;stroke:#263238;stroke-linecap:round;stroke-linejoin:round;stroke-miterlimit:10;" d="
				M614.686,432.415c0-1.596,1.294-2.889,2.89-2.889s2.89,1.294,2.89,2.889c0,1.596-1.294,2.89-2.89,2.89
				S614.686,434.011,614.686,432.415z"/>
		</g>
		<path style="fill:#263238;stroke:#263238;stroke-linecap:round;stroke-linejoin:round;stroke-miterlimit:10;" d="M646.761,425.807
			h12.224v-62.541c0-0.02-0.016-0.036-0.036-0.036h-12.152c-0.02,0-0.036,0.016-0.036,0.036V425.807z"/>
		
			<rect x="643.506" y="381.614" transform="matrix(-1 -1.224647e-16 1.224647e-16 -1 1305.7471 807.421)" style="fill:#263238;stroke:#263238;stroke-linecap:round;stroke-linejoin:round;stroke-miterlimit:10;" width="18.734" height="44.193"/>
		<path style="fill:#263238;stroke:#263238;stroke-linecap:round;stroke-linejoin:round;stroke-miterlimit:10;" d="M665.389,352.752
			h15.645c0.02,0,0.036-0.016,0.036-0.036v-33.634h-15.717v33.634C665.353,352.736,665.369,352.752,665.389,352.752z"/>
		<path style="fill:#263238;stroke:#263238;stroke-linecap:round;stroke-linejoin:round;stroke-miterlimit:10;" d="M642.265,319.098
			h61.193c6.029,0,10.875-4.967,10.726-10.994l-1.477-59.745c-0.144-5.82-4.904-10.464-10.726-10.464h-50.529
			c-5.296,0-9.799,3.864-10.604,9.098l-9.187,59.745C630.661,313.237,635.69,319.098,642.265,319.098z"/>
		
			<line style="fill:none;stroke:#263238;stroke-linecap:round;stroke-linejoin:round;stroke-miterlimit:10;" x1="662.26" y1="365.413" x2="689.109" y2="383.094"/>
		<path style="fill:#263238;stroke:#263238;stroke-linecap:round;stroke-linejoin:round;stroke-miterlimit:10;" d="M690.125,380.418
			l4.573,3.082c1.573,1.06,1.777,3.297,0.421,4.625l-0.317,0.31c-1.094,1.071-2.82,1.145-4.001,0.171l-4.202-3.465
			c-1.329-1.096-1.441-3.092-0.242-4.329l0,0C687.351,379.785,688.94,379.619,690.125,380.418z"/>
		<path style="fill:#263238;stroke:#263238;stroke-linecap:round;stroke-linejoin:round;stroke-miterlimit:10;" d="M603.104,368.469
			h99.538c5.305,0,9.605-4.3,9.605-9.605l0,0c0-5.305-4.3-9.605-9.605-9.605h-99.539c-5.304,0-9.604,4.3-9.604,9.604l0,0
			C593.5,364.169,597.8,368.469,603.104,368.469z"/>
		<path style="fill:#263238;stroke:#263238;stroke-linecap:round;stroke-linejoin:round;stroke-miterlimit:10;" d="M593.568,357.699
			c0.576-4.899,5.006-8.439,9.938-8.439h51.583c4.932,0,9.362,3.54,9.939,8.439c0.686,5.825-3.848,10.77-9.536,10.77h-52.389
			C597.416,368.469,592.883,363.524,593.568,357.699z"/>
		<path style="fill:#263238;stroke:#263238;stroke-linecap:round;stroke-linejoin:round;stroke-miterlimit:10;" d="M609.941,429.3
			h95.573l0,0c0-2.89-2.343-5.233-5.233-5.233h-85.108C612.283,424.067,609.941,426.41,609.941,429.3L609.941,429.3z"/>
		<path style="fill:#263238;stroke:#263238;stroke-linecap:round;stroke-linejoin:round;stroke-miterlimit:10;" d="M626.958,429.3
			h31.104v-5.233H632.19C629.3,424.067,626.958,426.41,626.958,429.3L626.958,429.3z"/>
	</g>
</g>
<g id="Books">
	<g>
		<g>
			<path style="fill:#8C8C8C;stroke:#263238;stroke-linecap:round;stroke-linejoin:round;stroke-miterlimit:10;" d="
				M642.328,283.688v-4.749c0-1.536,1.246-2.782,2.782-2.782h-36.967c-1.536,0-2.782,1.245-2.782,2.782v4.749
				c0,1.536,1.245,2.782,2.782,2.782h36.967C643.574,286.469,642.328,285.224,642.328,283.688z"/>
			<g>
				
					<path style="fill:#FFFFFF;stroke:#263238;stroke-width:0.5;stroke-linecap:round;stroke-linejoin:round;stroke-miterlimit:10;" d="
					M668.467,276.534l0.313-0.205c0.077-0.051,0.041-0.171-0.051-0.171H645.11c-1.536,0-2.782,1.245-2.782,2.782v4.749
					c0,1.536,1.245,2.782,2.782,2.782h23.619c0.093,0,0.128-0.12,0.051-0.171l-0.313-0.206V276.534z"/>
				
					<path style="fill:#FFFFFF;stroke:#263238;stroke-width:0.5;stroke-linecap:round;stroke-linejoin:round;stroke-miterlimit:10;" d="
					M647.18,276.534h21.287v9.559H647.18c-2.395,0-4.337-1.941-4.337-4.337v-0.886C642.843,278.475,644.784,276.534,647.18,276.534z
					"/>
				
					<line style="fill:#FFFFFF;stroke:#263238;stroke-width:0.5;stroke-linecap:round;stroke-linejoin:round;stroke-miterlimit:10;" x1="643.645" y1="278.293" x2="652.861" y2="278.293"/>
				
					<line style="fill:#FFFFFF;stroke:#263238;stroke-width:0.5;stroke-linecap:round;stroke-linejoin:round;stroke-miterlimit:10;" x1="650.441" y1="279.168" x2="659.039" y2="279.168"/>
				
					<line style="fill:#FFFFFF;stroke:#263238;stroke-width:0.5;stroke-linecap:round;stroke-linejoin:round;stroke-miterlimit:10;" x1="655.641" y1="280.25" x2="647.403" y2="280.25"/>
				
					<line style="fill:#FFFFFF;stroke:#263238;stroke-width:0.5;stroke-linecap:round;stroke-linejoin:round;stroke-miterlimit:10;" x1="643.851" y1="283.544" x2="649.257" y2="283.544"/>
				
					<line style="fill:#FFFFFF;stroke:#263238;stroke-width:0.5;stroke-linecap:round;stroke-linejoin:round;stroke-miterlimit:10;" x1="647.867" y1="284.317" x2="655.95" y2="284.317"/>
				
					<line style="fill:#FFFFFF;stroke:#263238;stroke-width:0.5;stroke-linecap:round;stroke-linejoin:round;stroke-miterlimit:10;" x1="646.888" y1="285.038" x2="649.051" y2="285.038"/>
				
					<line style="fill:#FFFFFF;stroke:#263238;stroke-width:0.5;stroke-linecap:round;stroke-linejoin:round;stroke-miterlimit:10;" x1="652.964" y1="282.824" x2="666.71" y2="282.824"/>
				
					<line style="fill:#FFFFFF;stroke:#263238;stroke-width:0.5;stroke-linecap:round;stroke-linejoin:round;stroke-miterlimit:10;" x1="668.306" y1="280.61" x2="665.474" y2="280.61"/>
				
					<line style="fill:#FFFFFF;stroke:#263238;stroke-width:0.5;stroke-linecap:round;stroke-linejoin:round;stroke-miterlimit:10;" x1="667.843" y1="279.889" x2="664.96" y2="279.889"/>
				
					<line style="fill:#FFFFFF;stroke:#263238;stroke-width:0.5;stroke-linecap:round;stroke-linejoin:round;stroke-miterlimit:10;" x1="667.843" y1="284.523" x2="660.635" y2="284.523"/>
			</g>
		</g>
		<g>
			<path style="fill:#92E3A9;stroke:#263238;stroke-linecap:round;stroke-linejoin:round;stroke-miterlimit:10;" d="
				M644.321,273.124v-4.749c0-1.536,1.246-2.782,2.782-2.782h-36.967c-1.536,0-2.782,1.245-2.782,2.782v4.749
				c0,1.536,1.245,2.782,2.782,2.782h36.967C645.567,275.906,644.321,274.66,644.321,273.124z"/>
			<g>
				<path style="fill:#8C8C8C;stroke:#263238;stroke-linecap:round;stroke-linejoin:round;stroke-miterlimit:10;" d="M670.46,265.97
					l0.313-0.205c0.077-0.051,0.041-0.171-0.051-0.171h-23.619c-1.536,0-2.782,1.245-2.782,2.782v4.749
					c0,1.536,1.246,2.782,2.782,2.782h23.619c0.093,0,0.128-0.12,0.051-0.171l-0.313-0.206V265.97z"/>
				
					<path style="fill:#FFFFFF;stroke:#263238;stroke-width:0.5;stroke-linecap:round;stroke-linejoin:round;stroke-miterlimit:10;" d="
					M649.173,265.97h21.288v9.559h-21.288c-2.395,0-4.337-1.941-4.337-4.337v-0.886C644.836,267.911,646.778,265.97,649.173,265.97z
					"/>
				
					<line style="fill:none;stroke:#263238;stroke-width:0.5;stroke-linecap:round;stroke-linejoin:round;stroke-miterlimit:10;" x1="645.638" y1="267.729" x2="654.854" y2="267.729"/>
				
					<line style="fill:none;stroke:#263238;stroke-width:0.5;stroke-linecap:round;stroke-linejoin:round;stroke-miterlimit:10;" x1="652.434" y1="268.605" x2="661.032" y2="268.605"/>
				
					<line style="fill:none;stroke:#263238;stroke-width:0.5;stroke-linecap:round;stroke-linejoin:round;stroke-miterlimit:10;" x1="657.634" y1="269.686" x2="649.396" y2="269.686"/>
				
					<line style="fill:none;stroke:#263238;stroke-width:0.5;stroke-linecap:round;stroke-linejoin:round;stroke-miterlimit:10;" x1="645.844" y1="272.981" x2="651.25" y2="272.981"/>
				
					<line style="fill:none;stroke:#263238;stroke-width:0.5;stroke-linecap:round;stroke-linejoin:round;stroke-miterlimit:10;" x1="649.86" y1="273.753" x2="657.943" y2="273.753"/>
				
					<line style="fill:none;stroke:#263238;stroke-width:0.5;stroke-linecap:round;stroke-linejoin:round;stroke-miterlimit:10;" x1="648.882" y1="274.474" x2="651.044" y2="274.474"/>
				
					<line style="fill:none;stroke:#263238;stroke-width:0.5;stroke-linecap:round;stroke-linejoin:round;stroke-miterlimit:10;" x1="654.957" y1="272.26" x2="668.703" y2="272.26"/>
				
					<line style="fill:none;stroke:#263238;stroke-width:0.5;stroke-linecap:round;stroke-linejoin:round;stroke-miterlimit:10;" x1="670.299" y1="270.046" x2="667.468" y2="270.046"/>
				
					<line style="fill:none;stroke:#263238;stroke-width:0.5;stroke-linecap:round;stroke-linejoin:round;stroke-miterlimit:10;" x1="669.836" y1="269.325" x2="666.953" y2="269.325"/>
				
					<line style="fill:none;stroke:#263238;stroke-width:0.5;stroke-linecap:round;stroke-linejoin:round;stroke-miterlimit:10;" x1="669.836" y1="273.959" x2="662.628" y2="273.959"/>
			</g>
		</g>
		<g>
			<path style="fill:#263238;" d="M613.737,273.196v-5.144h1.994v0.534h-1.277v1.702h1.035v0.508h-1.035v1.887h1.289v0.514H613.737z
				"/>
			<path style="fill:#263238;" d="M616.321,273.196v-5.144h0.489l1.461,3.417v-3.417h0.597v5.144h-0.457l-1.48-3.512v3.512H616.321z
				"/>
			<path style="fill:#263238;" d="M620.901,273.26c-0.322,0-0.579-0.069-0.772-0.206c-0.193-0.138-0.333-0.337-0.419-0.6
				c-0.087-0.262-0.13-0.578-0.13-0.946v-1.721c0-0.377,0.039-0.697,0.117-0.962c0.078-0.264,0.218-0.467,0.419-0.606
				c0.201-0.14,0.482-0.21,0.841-0.21c0.322,0,0.581,0.054,0.778,0.162c0.197,0.108,0.34,0.273,0.428,0.496
				c0.089,0.222,0.133,0.502,0.133,0.842v0.19h-0.673v-0.159c0-0.224-0.015-0.407-0.044-0.549c-0.03-0.142-0.09-0.248-0.181-0.318
				c-0.091-0.069-0.234-0.104-0.429-0.104c-0.212,0-0.365,0.049-0.461,0.146c-0.095,0.097-0.155,0.23-0.178,0.397
				c-0.023,0.167-0.035,0.357-0.035,0.569v1.905c0,0.246,0.018,0.451,0.054,0.616c0.036,0.165,0.105,0.288,0.206,0.368
				c0.102,0.081,0.246,0.12,0.432,0.12c0.186,0,0.33-0.044,0.432-0.133c0.101-0.088,0.171-0.22,0.209-0.393
				c0.038-0.174,0.057-0.39,0.057-0.648v-0.355h-0.654v-0.508h1.302v2.547h-0.451l-0.07-0.591c-0.068,0.19-0.174,0.348-0.318,0.47
				C621.353,273.199,621.154,273.26,620.901,273.26z"/>
			<path style="fill:#263238;" d="M623.072,273.196v-5.144h0.718v4.63h1.315v0.514H623.072z"/>
			<path style="fill:#263238;" d="M625.632,273.196v-5.144h0.705v5.144H625.632z"/>
			<path style="fill:#263238;" d="M628.381,273.253c-0.297,0-0.543-0.063-0.74-0.19c-0.197-0.127-0.346-0.302-0.448-0.527
				c-0.102-0.224-0.161-0.484-0.178-0.781l0.635-0.171c0.013,0.182,0.041,0.358,0.086,0.527c0.044,0.17,0.117,0.308,0.219,0.416
				c0.102,0.108,0.243,0.162,0.425,0.162c0.186,0,0.327-0.052,0.422-0.155c0.095-0.104,0.143-0.253,0.143-0.448
				c0-0.233-0.053-0.42-0.159-0.562c-0.106-0.142-0.239-0.285-0.4-0.428l-0.864-0.762c-0.17-0.148-0.294-0.31-0.375-0.486
				c-0.08-0.176-0.121-0.393-0.121-0.65c0-0.377,0.108-0.669,0.324-0.877c0.216-0.208,0.51-0.311,0.883-0.311
				c0.203,0,0.382,0.027,0.537,0.079c0.155,0.053,0.284,0.135,0.387,0.245c0.104,0.11,0.186,0.249,0.248,0.416
				c0.061,0.167,0.103,0.363,0.124,0.587l-0.61,0.165c-0.013-0.17-0.038-0.325-0.076-0.467c-0.038-0.142-0.105-0.256-0.2-0.343
				c-0.096-0.087-0.232-0.13-0.41-0.13c-0.178,0-0.316,0.047-0.416,0.143c-0.099,0.095-0.149,0.236-0.149,0.422
				c0,0.157,0.026,0.286,0.079,0.387c0.053,0.102,0.138,0.206,0.257,0.311l0.87,0.762c0.195,0.17,0.366,0.371,0.514,0.607
				c0.148,0.235,0.222,0.513,0.222,0.835c0,0.254-0.053,0.473-0.159,0.657c-0.106,0.184-0.251,0.325-0.435,0.422
				C628.836,273.205,628.623,273.253,628.381,273.253z"/>
			<path style="fill:#263238;" d="M630.172,273.196v-5.144h0.718v2.223h1.321v-2.223h0.718v5.144h-0.718v-2.407h-1.321v2.407
				H630.172z"/>
		</g>
	</g>
</g>
<g id="Device_2">
	<g>
		
			<rect x="534.062" y="284.229" transform="matrix(-1 -1.224647e-16 1.224647e-16 -1 1147.3326 571.6538)" style="fill:#FFFFFF;stroke:#263238;stroke-linecap:round;stroke-linejoin:round;stroke-miterlimit:10;" width="79.208" height="3.196"/>
		
			<rect x="511.729" y="284.229" transform="matrix(-1 -1.224647e-16 1.224647e-16 -1 1102.666 571.6538)" style="fill:#FFFFFF;stroke:#263238;stroke-linecap:round;stroke-linejoin:round;stroke-miterlimit:10;" width="79.208" height="3.196"/>
		<polygon style="fill:#FFFFFF;stroke:#263238;stroke-linecap:round;stroke-linejoin:round;stroke-miterlimit:10;" points="
			520.559,278.547 586.609,278.547 579.488,228.122 513.438,228.122 		"/>
		<polygon style="fill:#263238;stroke:#263238;stroke-linecap:round;stroke-linejoin:round;stroke-miterlimit:10;" points="
			517.827,278.547 583.876,278.547 576.755,228.122 510.706,228.122 		"/>
		<path style="fill:#FFFFFF;stroke:#263238;stroke-linecap:round;stroke-linejoin:round;stroke-miterlimit:10;" d="M538.063,255.11
			l-6.626,32.314h17.045l6.626-32.314H538.063z M549.628,264.699c-0.065,0.272-0.31,0.463-0.59,0.461l-9.655-0.093
			c-0.386-0.004-0.669-0.366-0.578-0.741l0.871-3.627c0.065-0.272,0.31-0.463,0.59-0.461l9.655,0.093
			c0.386,0.004,0.669,0.366,0.579,0.741L549.628,264.699z"/>
	</g>
</g>
<g id="Table_2">
	<g>
		<g>
			<path style="fill:#FFFFFF;stroke:#263238;stroke-linecap:round;stroke-linejoin:round;stroke-miterlimit:10;" d="
				M676.611,305.809l-3.425,129.308c-0.046,1.712-1.447,3.077-3.16,3.077l0,0c-1.729,0-3.138-1.39-3.16-3.119l-1.69-129.266H676.611
				z"/>
			<path style="fill:#FFFFFF;stroke:#263238;stroke-linecap:round;stroke-linejoin:round;stroke-miterlimit:10;" d="
				M634.835,305.809l-3.425,129.308c-0.045,1.712-1.446,3.077-3.159,3.077l0,0c-1.729,0-3.138-1.39-3.16-3.119l-1.69-129.266
				H634.835z"/>
			<path style="fill:#FFFFFF;stroke:#263238;stroke-linecap:round;stroke-linejoin:round;stroke-miterlimit:10;" d="
				M531.548,305.809l-3.425,129.308c-0.045,1.712-1.446,3.077-3.159,3.077l0,0c-1.73,0-3.138-1.39-3.16-3.119l-1.69-129.266H531.548
				z"/>
			<path style="fill:#FFFFFF;stroke:#263238;stroke-linecap:round;stroke-linejoin:round;stroke-miterlimit:10;" d="
				M489.773,305.809l-3.425,129.308c-0.046,1.712-1.447,3.077-3.16,3.077l0,0c-1.729,0-3.138-1.39-3.16-3.119l-1.69-129.266H489.773
				z"/>
			
				<rect x="474.523" y="291.686" transform="matrix(-1 -1.224647e-16 1.224647e-16 -1 1155.1987 715.3218)" style="fill:#92E3A9;stroke:#263238;stroke-linecap:round;stroke-linejoin:round;stroke-miterlimit:10;" width="206.153" height="131.949"/>
			
				<rect x="623.092" y="291.686" transform="matrix(-1 -1.224647e-16 1.224647e-16 -1 1303.7683 715.3218)" style="fill:#92E3A9;stroke:#263238;stroke-linecap:round;stroke-linejoin:round;stroke-miterlimit:10;" width="57.584" height="131.949"/>
			
				<rect x="474.523" y="291.686" transform="matrix(-1 -1.224647e-16 1.224647e-16 -1 1155.1987 591.1094)" style="fill:#263238;stroke:#263238;stroke-linecap:round;stroke-linejoin:round;stroke-miterlimit:10;" width="206.153" height="7.737"/>
			
				<rect x="471.327" y="286.36" transform="matrix(-1 -1.224647e-16 1.224647e-16 -1 1155.1987 581.2418)" style="fill:#92E3A9;stroke:#263238;stroke-linecap:round;stroke-linejoin:round;stroke-miterlimit:10;" width="212.545" height="8.523"/>
			
				<rect x="471.327" y="286.36" transform="matrix(-1 -1.224647e-16 1.224647e-16 -1 1090.5941 581.2418)" style="fill:#92E3A9;stroke:#263238;stroke-linecap:round;stroke-linejoin:round;stroke-miterlimit:10;" width="147.94" height="8.523"/>
		</g>
	</g>
</g>
<g id="Plant">
	<g>
		<g>
			<g>
				<g>
					<path style="fill:#92E3A9;" d="M328.668,239.866c0,0,0-4.724-6.613-11.337c-6.613-6.613-10.865-10.392-10.865-10.392
						s-3.307,10.865,2.834,17.478c6.141,6.613,14.644,12.754,14.644,12.754V239.866z"/>
					<path style="fill:#92E3A9;" d="M319.07,269.367c0,0,0-4.724-6.613-11.337c-6.613-6.613-10.865-10.392-10.865-10.392
						s-3.307,10.865,2.834,17.478c6.141,6.613,14.644,12.754,14.644,12.754V269.367z"/>
					<path style="fill:#92E3A9;" d="M328.252,247.912c0,0,0.499-4.697,7.774-10.575c7.275-5.878,11.902-9.186,11.902-9.186
						s2.14,11.154-4.665,17.081c-6.805,5.927-15.91,11.136-15.91,11.136L328.252,247.912z"/>
					<path style="fill:#92E3A9;" d="M316.657,282.752c0,0,0.99-4.619,8.842-9.7c7.852-5.081,12.801-7.885,12.801-7.885
						s0.957,11.316-6.433,16.496c-7.39,5.18-16.991,9.403-16.991,9.403L316.657,282.752z"/>
					<path style="fill:#92E3A9;" d="M318.837,320.739c0,0,0-4.724,6.613-11.337c6.613-6.613,10.865-10.392,10.865-10.392
						s3.307,10.865-2.835,17.478c-6.141,6.614-14.644,12.754-14.644,12.754V320.739z"/>
					<path style="fill:#92E3A9;" d="M318.727,330.011c0,0,0.671-4.676-4.935-12.162c-5.606-7.486-9.278-11.831-9.278-11.831
						s-4.817,10.285,0.322,17.703c5.139,7.419,12.683,14.706,12.683,14.706L318.727,330.011z"/>
					<path style="fill:#92E3A9;" d="M312.206,357.49c0,0,0-4.724,6.613-11.337c6.613-6.613,10.865-10.393,10.865-10.393
						s3.307,10.865-2.834,17.478c-6.141,6.613-14.644,12.754-14.644,12.754V357.49z"/>
					<path style="fill:#92E3A9;" d="M316.622,382.403c0,0-1.197-4.57,3.526-12.642c4.723-8.073,7.879-12.805,7.879-12.805
						s5.951,9.673,1.685,17.626c-4.266,7.953-10.936,16.048-10.936,16.048L316.622,382.403z"/>
				</g>
				<path style="fill:none;stroke:#263238;stroke-linecap:round;stroke-linejoin:round;stroke-miterlimit:10;" d="M329.267,238.655
					c-0.387,5.049-0.961,10.273-1.811,14.667c-2.614,13.507-9.15,22.221-11.764,34.421c-2.614,12.2,4.891,27.917,2.881,43.587
					c-2.009,15.67-8.109,24.384-6.367,34.841c1.743,10.457,10.893,38.778,10.893,38.778"/>
				
					<line style="fill:none;stroke:#263238;stroke-linecap:round;stroke-linejoin:round;stroke-miterlimit:10;" x1="328.187" y1="251.051" x2="335.314" y2="245.582"/>
				
					<line style="fill:none;stroke:#263238;stroke-linecap:round;stroke-linejoin:round;stroke-miterlimit:10;" x1="328.519" y1="244.753" x2="325.535" y2="239.449"/>
				<path style="fill:none;stroke:#263238;stroke-linecap:round;stroke-linejoin:round;stroke-miterlimit:10;" d="M316.088,287.183
					c0,0,5.967-4.475,12.099-8.95"/>
				<path style="fill:none;stroke:#263238;stroke-linecap:round;stroke-linejoin:round;stroke-miterlimit:10;" d="M319.07,277.87
					c0,0-4.971-9.747-10.607-16.211"/>
				<path style="fill:none;stroke:#263238;stroke-linecap:round;stroke-linejoin:round;stroke-miterlimit:10;" d="M319.071,327.459
					c0,0,4.641-9.116,12.762-17.072"/>
				<path style="fill:none;stroke:#263238;stroke-linecap:round;stroke-linejoin:round;stroke-miterlimit:10;" d="M317.911,334.089
					c0,0-2.984-7.127-6.464-12.265c-3.481-5.138-3.978-5.801-3.978-5.801"/>
				<path style="fill:none;stroke:#263238;stroke-linecap:round;stroke-linejoin:round;stroke-miterlimit:10;" d="M312.206,366.171
					c0,0,2.39-6.06,5.374-10.867c2.983-4.806,6.961-9.116,6.961-9.116"/>
				<path style="fill:none;stroke:#263238;stroke-linecap:round;stroke-linejoin:round;stroke-miterlimit:10;" d="M318.775,390.629
					c0,0-0.699-5.657,1.788-10.463c2.486-4.806,5.304-11.105,6.464-13.591"/>
			</g>
			<g>
				<g>
					<path style="fill:#92E3A9;" d="M285.361,302.974c0,0-0.513-2.962,2.916-7.827c3.429-4.865,5.685-7.697,5.685-7.697
						s3.253,6.454,0.12,11.268c-3.133,4.814-7.798,9.588-7.798,9.588L285.361,302.974z"/>
					<path style="fill:#92E3A9;" d="M294.583,320.431c0,0-0.513-2.962,2.916-7.827c3.429-4.865,5.685-7.696,5.685-7.696
						s3.253,6.454,0.12,11.268c-3.133,4.814-7.798,9.588-7.798,9.588L294.583,320.431z"/>
					<path style="fill:#92E3A9;" d="M286.495,307.974c0,0-0.823-2.892-6.023-5.787c-5.2-2.896-8.461-4.469-8.461-4.469
						s-0.131,7.227,4.78,10.205c4.911,2.978,11.186,5.256,11.186,5.256L286.495,307.974z"/>
					<path style="fill:#92E3A9;" d="M297.548,328.563c0,0-1.122-2.789-6.598-5.123c-5.476-2.334-8.883-3.555-8.883-3.555
						s0.629,7.2,5.825,9.646c5.197,2.446,11.676,4.052,11.676,4.052L297.548,328.563z"/>
					<path style="fill:#92E3A9;" d="M300.306,352.62c0,0-0.513-2.962-5.378-6.391c-4.865-3.429-7.941-5.337-7.941-5.337
						s-0.894,7.172,3.675,10.652c4.569,3.481,10.568,6.408,10.568,6.408L300.306,352.62z"/>
					<path style="fill:#92E3A9;" d="M301.381,358.422c0,0-0.928-2.86,1.775-8.162c2.703-5.303,4.533-8.426,4.533-8.426
						s4.137,5.926,1.72,11.136c-2.417,5.21-6.357,10.599-6.357,10.599L301.381,358.422z"/>
					<path style="fill:#92E3A9;" d="M309.682,382.317c0,0,0.343-2.987,5.004-6.688c4.661-3.701,7.624-5.782,7.624-5.782
						s1.302,7.109-3.061,10.845c-4.363,3.735-10.185,7.001-10.185,7.001L309.682,382.317z"/>
					<path style="fill:#92E3A9;" d="M308.454,374.946c0,0-0.513-2.962-5.378-6.391c-4.865-3.429-7.941-5.337-7.941-5.337
						s-0.894,7.172,3.675,10.653c4.569,3.48,10.567,6.408,10.567,6.408L308.454,374.946z"/>
					<path style="fill:#92E3A9;" d="M308.389,391.048c0,0,0.254-2.996-3.584-7.545c-3.838-4.55-6.331-7.175-6.331-7.175
						s-2.682,6.711,0.857,11.236c3.539,4.524,8.6,8.876,8.6,8.876L308.389,391.048z"/>
				</g>
				<path style="fill:none;stroke:#263238;stroke-linecap:round;stroke-linejoin:round;stroke-miterlimit:10;" d="M284.854,302.28
					c0.791,3.124,1.718,6.338,2.728,9.001c3.105,8.186,8.15,12.941,11.114,20.307c2.964,7.366-0.036,18.037,2.925,27.645
					c2.961,9.608,7.732,14.41,7.775,21.157c0.042,6.747-2.621,25.499-2.621,25.499"/>
				
					<line style="fill:none;stroke:#263238;stroke-linecap:round;stroke-linejoin:round;stroke-miterlimit:10;" x1="286.877" y1="309.935" x2="281.814" y2="307.279"/>
				
					<line style="fill:none;stroke:#263238;stroke-linecap:round;stroke-linejoin:round;stroke-miterlimit:10;" x1="285.986" y1="306.022" x2="287.28" y2="302.372"/>
				<path style="fill:none;stroke:#263238;stroke-linecap:round;stroke-linejoin:round;stroke-miterlimit:10;" d="M298.387,331.28
					c0,0-4.228-2.159-8.559-4.299"/>
				<path style="fill:none;stroke:#263238;stroke-linecap:round;stroke-linejoin:round;stroke-miterlimit:10;" d="M295.506,325.763
					c0,0,2.059-6.652,4.891-11.317"/>
				<path style="fill:none;stroke:#263238;stroke-linecap:round;stroke-linejoin:round;stroke-miterlimit:10;" d="M300.888,356.86
					c0,0-3.9-5.213-9.857-9.32"/>
				<path style="fill:none;stroke:#263238;stroke-linecap:round;stroke-linejoin:round;stroke-miterlimit:10;" d="M302.336,360.891
					c0,0,1.097-4.793,2.722-8.393c1.625-3.6,1.865-4.069,1.865-4.069"/>
				<path style="fill:none;stroke:#263238;stroke-linecap:round;stroke-linejoin:round;stroke-miterlimit:10;" d="M309.167,385.507
					c0,0,3.356-4.113,5.444-5.652c2.089-1.539,3.536-3.074,3.536-3.074"/>
				<path style="fill:none;stroke:#263238;stroke-linecap:round;stroke-linejoin:round;stroke-miterlimit:10;" d="M309.396,380.39
					c0,0-2.157-3.541-4.549-6.231c-2.392-2.69-5.355-4.961-5.355-4.961"/>
				<path style="fill:none;stroke:#263238;stroke-linecap:round;stroke-linejoin:round;stroke-miterlimit:10;" d="M307.931,396.44
					c0,0-0.176-3.623-2.257-6.367c-2.081-2.744-4.531-6.388-5.529-7.821"/>
			</g>
		</g>
		<g>
			<path style="fill:#263238;" d="M329.956,438.194h-30.122c-1.239,0-2.244-1.005-2.244-2.244l-4.326-33.332h43.261l-4.326,33.332
				C332.199,437.19,331.195,438.194,329.956,438.194z"/>
		</g>
	</g>
</g>
<g id="Speech_Bubble">
	<g>
		<path style="fill:#263238;stroke:#263238;stroke-linecap:round;stroke-linejoin:round;stroke-miterlimit:10;" d="M352.468,133.818
			l-5.813-11.626c2.116-0.965,3.59-3.094,3.59-5.572V91.029c0-3.383-2.742-6.125-6.126-6.125h-45.024
			c-3.383,0-6.126,2.742-6.126,6.125v25.591c0,3.383,2.743,6.126,6.126,6.126h34.128L352.468,133.818z"/>
		<path style="fill:#FFFFFF;stroke:#263238;stroke-linecap:round;stroke-linejoin:round;stroke-miterlimit:10;" d="M355.206,131.628
			l-5.813-11.626c2.116-0.965,3.59-3.094,3.59-5.572V88.839c0-3.383-2.743-6.126-6.126-6.126h-45.024
			c-3.383,0-6.126,2.743-6.126,6.126v25.591c0,3.383,2.743,6.126,6.126,6.126h34.128L355.206,131.628z"/>
		<g>
			<path style="fill:#263238;" d="M315.123,101.726c0-1.323-1.072-2.395-2.394-2.395c-1.323,0-2.395,1.072-2.395,2.395
				c0,1.322,1.072,2.394,2.395,2.394C314.051,104.12,315.123,103.048,315.123,101.726z"/>
			<path style="fill:#263238;" d="M327.019,101.726c0-1.323-1.072-2.395-2.395-2.395c-1.322,0-2.394,1.072-2.394,2.395
				c0,1.322,1.072,2.394,2.394,2.394C325.947,104.12,327.019,103.048,327.019,101.726z"/>
			<path style="fill:#263238;" d="M338.915,101.726c0-1.323-1.072-2.395-2.395-2.395s-2.394,1.072-2.394,2.395
				c0,1.322,1.072,2.394,2.394,2.394S338.915,103.048,338.915,101.726z"/>
		</g>
	</g>
</g>
<g id="Character_2">
	<g>
		<g>
			<g>
				<g>
					<path style="fill:#263238;stroke:#263238;stroke-linecap:round;stroke-linejoin:round;stroke-miterlimit:10;" d="
						M384.729,245.154c0,0-2.574,20.162-2.574,41.61c0,21.449-0.692,54.327,0.48,64.161c6.007,50.41,6.992,57.792,9.003,71.601
						c0.264,1.81,1.552,3.297,3.304,3.822l0,0c2.912,0.874,5.876-1.202,6.051-4.237l6.978-76.933l4.213-61.417
						c0,0,3.997,59.835,5.713,70.559c1.461,9.134,12.786,54.281,15.772,66.389c0.635,2.577,2.569,4.708,5.144,5.352
						c0.3,0.075,0.58,0.119,0.826,0.119c1.161,0,2.322-2.552,2.951-4.203c0.318-0.835,0.482-1.717,0.487-2.61l0.678-67.135
						l0.602-76.191c0,0,2.487-16.979,1.243-24.576C444.356,243.867,384.729,245.154,384.729,245.154z"/>
					
						<line style="fill:none;stroke:#FFFFFF;stroke-linecap:round;stroke-linejoin:round;stroke-miterlimit:10;" x1="410.896" y1="282.045" x2="397.598" y2="276.04"/>
				</g>
				<g>
					<path style="fill:#FFFFFF;stroke:#263238;stroke-linecap:round;stroke-linejoin:round;stroke-miterlimit:10;" d="
						M443.096,255.08c1.391-0.834,2.503-2.225,2.503-3.616c0-1.391,0-6.119,0-6.119l11.126-71.206c0,0-20.305-10.57-27.259-11.682
						c-6.954-1.113-12.795-1.391-12.795-1.391l-1.669,0.278c0,0-22.252,1.947-24.199,4.172c-1.663,1.9-17.324,35.449-21.859,45.199
						l9.731,19.462c3.196-2.799,6.843-6.807,6.843-6.807s-2.781,23.086-2.503,24.755c0.278,1.669,3.616,1.947,3.616,1.947
						S441.706,255.914,443.096,255.08z"/>
					
						<line style="fill:none;stroke:#263238;stroke-linecap:round;stroke-linejoin:round;stroke-miterlimit:10;" x1="385.52" y1="223.371" x2="392.123" y2="181.878"/>
					<path style="fill:#FFFFFF;stroke:#263238;stroke-linecap:round;stroke-linejoin:round;stroke-miterlimit:10;" d="
						M367.718,213.358l-18.587-25.304c0,0,0-5.839-0.649-8.65c-0.649-2.811-3.893-4.109-5.406-6.488
						c-1.514-2.379-4.541-4.974-5.19-2.811c-0.649,2.162,3.46,7.136,3.46,7.136l-11.029-3.027c0,0-4.974-3.028-4.974-1.298
						c0,1.73,4.325,11.894,6.92,13.408c2.595,1.514,10.38,6.271,10.38,6.271s17.026,32.458,18.107,34.62
						c1.081,2.163,6.92,6.92,9.948,6.704c3.028-0.216,7.978-3.742,7.978-3.742L367.718,213.358z"/>
					<path style="fill:#FFFFFF;stroke:#263238;stroke-linecap:round;stroke-linejoin:round;stroke-miterlimit:10;" d="
						M332.913,184.81c0,0-7.785-9.299-5.19-9.948c2.595-0.649,4.541,3.244,4.758,4.325c0.216,1.081,3.676,3.893,3.676,3.893
						s6.271,0.216,7.569,1.514c1.298,1.298,1.514,3.676,1.514,3.676"/>
					<path style="fill:#FFFFFF;stroke:#263238;stroke-linecap:round;stroke-linejoin:round;stroke-miterlimit:10;" d="
						M367.718,213.358c0,0,8.123,16.905,8.123,18.44c0,1.535,3.454,1.151,3.454,1.151s5.372-3.837,4.989-8.058
						c-0.384-4.221-11.512-21.873-11.512-21.873S366.119,206.046,367.718,213.358z"/>
				</g>
				<path style="fill:#FFFFFF;stroke:#263238;stroke-linecap:round;stroke-linejoin:round;stroke-miterlimit:10;" d="
					M417.785,156.615c0,0-3.894,1.669-4.45,4.172c-0.556,2.503-1.669,13.073-4.172,16.411c-2.503,3.338-3.06,5.285-3.06,5.285
					l10.013-3.338l11.126,12.795c0,0,1.947-8.622,5.563-15.02c3.616-6.398,6.119-8.066,6.119-13.351s-6.675-7.788-8.622-8.066
					C428.354,155.225,417.785,156.615,417.785,156.615z"/>
				<g>
					<g>
						<path style="fill:#FFFFFF;stroke:#263238;stroke-linecap:round;stroke-linejoin:round;stroke-miterlimit:10;" d="
							M403.877,115.45c0,0-1.669,6.397-0.556,7.788c1.113,1.391,1.947,4.45,0.834,6.119c-1.113,1.669-3.894,4.729-3.616,5.563
							c0.278,0.834,4.729,3.06,4.729,3.06s0.278,12.795,2.503,13.629c2.225,0.835,8.066,0.556,8.066,0.556l0.278,26.98l18.08-18.079
							l-0.556-18.08c0,0,5.563-2.782,6.954-5.285c1.391-2.503-0.835-8.066-0.835-8.066s-0.556-12.795-0.556-14.186
							c0-1.391-1.391-8.623-9.457-8.901C421.679,106.271,403.877,115.45,403.877,115.45z"/>
						<g>
							<path style="fill:#263238;" d="M411.109,127.549c0,0.998-0.498,1.808-1.113,1.808c-0.615,0-1.112-0.809-1.112-1.808
								c0-0.999,0.498-1.808,1.112-1.808C410.611,125.741,411.109,126.55,411.109,127.549z"/>
							<path style="fill:none;stroke:#263238;stroke-linecap:round;stroke-linejoin:round;stroke-miterlimit:10;" d="
								M407.493,124.629c0,0,2.781-2.503,5.841,0.834"/>
							<path style="fill:#263238;stroke:#263238;stroke-linecap:round;stroke-linejoin:round;stroke-miterlimit:10;" d="
								M415.838,152.165c0,0,5.781-2.27,9.771-4.813l-9.662,10.886L415.838,152.165z"/>
						</g>
					</g>
					<path style="fill:#263238;stroke:#263238;stroke-linecap:round;stroke-linejoin:round;stroke-miterlimit:10;" d="
						M428.354,112.668c0,0-22.808,5.285-27.537,4.729c-4.729-0.556-8.344-10.013-4.45-14.742c3.894-4.729,21.974-7.232,30.596-4.729
						c8.623,2.503,20.305,8.623,19.47,12.517c-0.834,3.894-6.676,19.192-6.676,19.192s-4.728-2.503-6.119,0.278
						c-1.391,2.781-1.669,4.172-1.669,4.172s-0.834,1.947-1.947,0c-1.112-1.947-1.112-3.894-3.338-7.232
						c-2.225-3.338-6.119-6.954-4.45-8.623C423.904,116.562,428.354,112.668,428.354,112.668z"/>
					<g>
						<path style="fill:#263238;stroke:#263238;stroke-linecap:round;stroke-linejoin:round;stroke-miterlimit:10;" d="
							M405.268,137.98c0,0,6.46-1.513,9.046-0.016s7.212,5.035,7.212,5.035s4.218-0.816,5.579-2.449s1.361-9.117,1.361-9.117h3.538
							c0,0-0.136,3.402-0.272,6.804c-0.136,3.402-1.225,5.579-2.586,7.076s-7.212,3.946-7.212,3.946l-7.212,3.13l-6.951-0.779
							C407.771,151.609,404.795,144.936,405.268,137.98z"/>
						<path style="fill:none;stroke:#FFFFFF;stroke-linecap:round;stroke-linejoin:round;stroke-miterlimit:10;" d="
							M406.421,141.093c0,0,2.313,1.089,5.851-1.361"/>
					</g>
				</g>
				<g>
					<polygon style="fill:#92E3A9;stroke:#263238;stroke-linecap:round;stroke-linejoin:round;stroke-miterlimit:10;" points="
						368.945,210.716 402.839,208.701 419.221,242.879 389.381,240.664 					"/>
					<polygon style="fill:#FFFFFF;stroke:#263238;stroke-linecap:round;stroke-linejoin:round;stroke-miterlimit:10;" points="
						370.2,211.938 401.493,210.04 417.876,244.217 390.636,241.887 					"/>
					<polygon style="fill:#92E3A9;stroke:#263238;stroke-linecap:round;stroke-linejoin:round;stroke-miterlimit:10;" points="
						368.945,210.716 386.969,242.926 417.285,245.228 400.784,211.459 					"/>
					<g>
						<path style="fill:#FFFFFF;stroke:#263238;stroke-linecap:round;stroke-linejoin:round;stroke-miterlimit:10;" d="
							M441.461,193.039l6.907,38.758l22.257,4.605c0,0-5.756-55.259-7.291-58.712c-1.535-3.454-11.512-6.14-12.663-6.14"/>
						<path style="fill:#FFFFFF;stroke:#263238;stroke-linecap:round;stroke-linejoin:round;stroke-miterlimit:10;" d="
							M442.996,231.03c0,0,1.919-9.594,6.524-10.361c4.605-0.767,18.036-1.535,21.106,5.756c3.07,7.291,3.454,11.512,1.151,14.199
							c-2.302,2.686-8.059,0.767-16.885-1.919C446.066,236.019,442.996,231.03,442.996,231.03z"/>
						<g>
							<path style="fill:#FFFFFF;stroke:#263238;stroke-linecap:round;stroke-linejoin:round;stroke-miterlimit:10;" d="
								M422.791,227.821l-15.02-4.172l-15.02,7.51c0,0-1.947,1.113-0.835,2.225c1.113,1.113,3.06,0.278,3.06,0.278
								s-1.113,1.669,0,2.503c1.113,0.835,7.51-1.112,7.51-1.112s-6.119,4.172-4.172,5.007c1.947,0.834,10.848-3.616,10.848-3.616
								l-4.994,4.281c-0.456,0.391-0.349,1.145,0.213,1.357c0.504,0.19,0.684,0.289,1.506,0.172c1.947-0.278,8.874-5.49,8.874-5.49
								l10.534-0.042c0,0,36.994,7.788,42,7.51c5.007-0.278,5.841-9.457,2.503-13.629c-3.338-4.172-11.126-3.616-13.073-3.616
								C454.778,226.987,422.791,227.821,422.791,227.821z"/>
							
								<line style="fill:none;stroke:#263238;stroke-linecap:round;stroke-linejoin:round;stroke-miterlimit:10;" x1="394.977" y1="233.662" x2="402.487" y2="230.881"/>
							
								<line style="fill:#FFFFFF;stroke:#263238;stroke-linecap:round;stroke-linejoin:round;stroke-miterlimit:10;" x1="402.487" y1="235.053" x2="406.103" y2="233.662"/>
						</g>
					</g>
				</g>
			</g>
		</g>
		<path style="fill:#FFFFFF;stroke:#263238;stroke-linecap:round;stroke-linejoin:round;stroke-miterlimit:10;" d="M391.638,422.526
			l-3.186,5.368c0,0-13.692,8.057-14.105,8.677c-0.413,0.62,1.239,2.065,3.924,1.859c2.685-0.207,15.905-1.033,15.905-1.033
			s3.924,0,5.577-0.413c1.652-0.413,2.479-0.413,2.479-3.305c0-2.892-1.239-11.567-1.239-11.567L391.638,422.526z"/>
		<path style="fill:#FFFFFF;stroke:#263238;stroke-linecap:round;stroke-linejoin:round;stroke-miterlimit:10;" d="M433.668,420.709
			l-0.597,8.717c0,0-2.954,8.728-2.82,9.802c0.134,1.074,3.625,2.551,5.774,2.551s5.505-1.074,6.982-2.014
			c1.477-0.94,2.148-2.686,1.88-4.565c-0.268-1.88-1.343-9.936-1.343-10.339s-0.134-4.297-0.134-4.297l-2.014,0.94
			c0,0-0.94-1.074-2.417-1.208C437.502,420.161,433.668,420.709,433.668,420.709z"/>
	</g>
</g>
<g id="Character_1">
	<g>
		<g>
			<g>
				<g>
					<path style="fill:#263238;stroke:#263238;stroke-linecap:round;stroke-linejoin:round;stroke-miterlimit:10;" d="
						M81.982,432.415c0-3.192-2.588-5.779-5.779-5.779c-3.192,0-5.779,2.587-5.779,5.779c0,3.192,2.588,5.78,5.779,5.78
						C79.395,438.194,81.982,435.607,81.982,432.415z"/>
					<path style="fill:#FFFFFF;stroke:#263238;stroke-linecap:round;stroke-linejoin:round;stroke-miterlimit:10;" d="
						M79.092,432.415c0-1.596-1.294-2.889-2.89-2.889s-2.89,1.294-2.89,2.889c0,1.596,1.294,2.89,2.89,2.89
						S79.092,434.011,79.092,432.415z"/>
				</g>
				<g>
					<path style="fill:#263238;stroke:#263238;stroke-linecap:round;stroke-linejoin:round;stroke-miterlimit:10;" d="
						M143.882,432.415c0-3.192-2.587-5.779-5.779-5.779s-5.779,2.587-5.779,5.779c0,3.192,2.588,5.78,5.779,5.78
						S143.882,435.607,143.882,432.415z"/>
					<path style="fill:#FFFFFF;stroke:#263238;stroke-linecap:round;stroke-linejoin:round;stroke-miterlimit:10;" d="
						M140.993,432.415c0-1.596-1.294-2.889-2.89-2.889c-1.596,0-2.89,1.294-2.89,2.889c0,1.596,1.294,2.89,2.89,2.89
						C139.699,435.305,140.993,434.011,140.993,432.415z"/>
				</g>
				<g>
					<path style="fill:#263238;stroke:#263238;stroke-linecap:round;stroke-linejoin:round;stroke-miterlimit:10;" d="
						M164.11,432.415c0-3.192-2.587-5.779-5.779-5.779c-3.192,0-5.779,2.587-5.779,5.779c0,3.192,2.588,5.78,5.779,5.78
						C161.522,438.194,164.11,435.607,164.11,432.415z"/>
					<path style="fill:#FFFFFF;stroke:#263238;stroke-linecap:round;stroke-linejoin:round;stroke-miterlimit:10;" d="
						M161.22,432.415c0-1.596-1.294-2.889-2.89-2.889c-1.596,0-2.89,1.294-2.89,2.889c0,1.596,1.294,2.89,2.89,2.89
						C159.927,435.305,161.22,434.011,161.22,432.415z"/>
				</g>
				<path style="fill:#263238;stroke:#263238;stroke-linecap:round;stroke-linejoin:round;stroke-miterlimit:10;" d="
					M129.145,425.807h-12.224v-62.541c0-0.02,0.016-0.036,0.036-0.036h12.152c0.02,0,0.036,0.016,0.036,0.036V425.807z"/>
				
					<rect x="113.665" y="381.614" style="fill:#263238;stroke:#263238;stroke-linecap:round;stroke-linejoin:round;stroke-miterlimit:10;" width="18.734" height="44.193"/>
				<path style="fill:#263238;stroke:#263238;stroke-linecap:round;stroke-linejoin:round;stroke-miterlimit:10;" d="
					M110.517,352.752H94.872c-0.02,0-0.036-0.016-0.036-0.036v-33.634h15.717v33.634
					C110.553,352.736,110.537,352.752,110.517,352.752z"/>
				<path style="fill:#92E3A9;stroke:#263238;stroke-linecap:round;stroke-linejoin:round;stroke-miterlimit:10;" d="
					M133.641,319.098H72.448c-6.029,0-10.874-4.967-10.725-10.994l1.478-59.745c0.144-5.82,4.904-10.464,10.726-10.464h50.529
					c5.296,0,9.799,3.864,10.604,9.098l9.186,59.745C145.245,313.237,140.217,319.098,133.641,319.098z"/>
				
					<line style="fill:none;stroke:#263238;stroke-linecap:round;stroke-linejoin:round;stroke-miterlimit:10;" x1="113.646" y1="365.413" x2="86.797" y2="383.094"/>
				<path style="fill:#263238;stroke:#263238;stroke-linecap:round;stroke-linejoin:round;stroke-miterlimit:10;" d="
					M85.781,380.418l-4.573,3.082c-1.573,1.06-1.777,3.297-0.421,4.625l0.317,0.31c1.094,1.071,2.82,1.145,4.001,0.171l4.202-3.465
					c1.329-1.096,1.441-3.092,0.242-4.329l0,0C88.555,379.785,86.966,379.619,85.781,380.418z"/>
				<path style="fill:#92E3A9;stroke:#263238;stroke-linecap:round;stroke-linejoin:round;stroke-miterlimit:10;" d="
					M172.802,368.469H73.263c-5.304,0-9.604-4.3-9.604-9.605l0,0c0-5.305,4.3-9.605,9.605-9.605h99.539
					c5.304,0,9.605,4.3,9.605,9.604l0,0C182.406,364.169,178.106,368.469,172.802,368.469z"/>
				<path style="fill:#92E3A9;stroke:#263238;stroke-linecap:round;stroke-linejoin:round;stroke-miterlimit:10;" d="
					M182.338,357.699c-0.576-4.899-5.006-8.439-9.939-8.439h-51.583c-4.932,0-9.362,3.54-9.939,8.439
					c-0.686,5.825,3.848,10.77,9.536,10.77h52.389C178.49,368.469,183.023,363.524,182.338,357.699z"/>
				<path style="fill:#263238;stroke:#263238;stroke-linecap:round;stroke-linejoin:round;stroke-miterlimit:10;" d="M165.965,429.3
					H70.392l0,0c0-2.89,2.343-5.233,5.233-5.233h85.108C163.623,424.067,165.965,426.41,165.965,429.3L165.965,429.3z"/>
				<path style="fill:#263238;stroke:#263238;stroke-linecap:round;stroke-linejoin:round;stroke-miterlimit:10;" d="M148.948,429.3
					h-31.104v-5.233h25.872C146.606,424.067,148.948,426.41,148.948,429.3L148.948,429.3z"/>
			</g>
			<g>
				<path style="fill:#263238;stroke:#263238;stroke-linecap:round;stroke-linejoin:round;stroke-miterlimit:10;" d="M155.629,309.1
					l6.886,11.362c0,0,24.101,2.41,37.872,5.509c13.772,3.099,16.526,18.248,17.215,21.346c0.769,3.46,5.042,75.714,3.664,76.058
					c-1.377,0.344-11.706,1.377-11.706,1.377s-17.436-70.205-22.601-71.238c-5.164-1.033-81.598,0.689-92.96-5.509
					c-11.362-6.197-14.116-24.101-7.575-36.495C92.967,299.115,155.629,309.1,155.629,309.1z"/>
				<path style="fill:#263238;stroke:#263238;stroke-linecap:round;stroke-linejoin:round;stroke-miterlimit:10;" d="
					M108.805,322.872c0,0,32.02,0,47.513,1.377s25.134,13.083,24.445,23.412c-0.689,10.329-13.206,78.124-13.206,78.124
					l-12.05-1.033l-6.45-72.631c0,0-10.754,6.99-52.697-3.764"/>
				<g>
					<path style="fill:#FFFFFF;stroke:#263238;stroke-linecap:round;stroke-linejoin:round;stroke-miterlimit:10;" d="
						M221.267,423.375c0,0,20.685,4.054,20.685,6.162c0,2.108-26.355,8.082-29.166,8.433c-2.811,0.352-3.226-13.218-3.226-13.218
						L221.267,423.375z"/>
					<path style="fill:#92E3A9;stroke:#263238;stroke-linecap:round;stroke-linejoin:round;stroke-miterlimit:10;" d="
						M211.061,435.946l29.51-7.528c0.866,0.405,1.381,0.786,1.381,1.118c0,2.108-26.354,8.082-29.166,8.433
						C212.064,438.06,211.501,437.228,211.061,435.946z"/>
				</g>
				<g>
					<path style="fill:#FFFFFF;stroke:#263238;stroke-linecap:round;stroke-linejoin:round;stroke-miterlimit:10;" d="
						M167.557,425.785c0,0,20.983,9.023,19.578,11.131c-1.406,2.108-28.814,1.054-31.625,0.703
						c-2.811-0.351-0.003-12.867-0.003-12.867L167.557,425.785z"/>
					<path style="fill:#92E3A9;stroke:#263238;stroke-linecap:round;stroke-linejoin:round;stroke-miterlimit:10;" d="
						M186.44,435.594c0.617,0.555,0.901,1.014,0.695,1.322c-1.406,2.108-28.814,1.054-31.625,0.703
						c-0.676-0.085-1.025-0.877-1.168-2.025H186.44z"/>
				</g>
			</g>
		</g>
		<g>
			<g>
				<polygon style="fill:#FFFFFF;stroke:#263238;stroke-linecap:round;stroke-linejoin:round;stroke-miterlimit:10;" points="
					195.28,277.818 207.868,274.913 221.101,283.627 210.45,283.305 191.73,285.564 				"/>
				<polygon style="fill:#FFFFFF;stroke:#263238;stroke-linecap:round;stroke-linejoin:round;stroke-miterlimit:10;" points="
					149.448,264.584 195.28,277.818 191.73,285.564 153.321,286.209 				"/>
			</g>
			
				<line style="fill:none;stroke:#263238;stroke-linecap:round;stroke-linejoin:round;stroke-miterlimit:10;" x1="145.758" y1="262.554" x2="146.434" y2="265.393"/>
			<g>
				<polygon style="fill:#FFFFFF;stroke:#263238;stroke-linecap:round;stroke-linejoin:round;stroke-miterlimit:10;" points="
					100.004,206.232 78.222,243.52 82.652,319.574 159.444,313.298 153.168,272.686 139.877,228.383 134.708,221.369 
					140.615,223.215 131.755,215.092 124.74,208.447 				"/>
				<polyline style="fill:none;stroke:#263238;stroke-linecap:round;stroke-linejoin:round;stroke-miterlimit:10;" points="
					134.917,226.139 139.383,235.776 145.032,259.503 				"/>
				<g>
					<g>
						<g>
							<path style="fill:#FFFFFF;stroke:#263238;stroke-linecap:round;stroke-linejoin:round;stroke-miterlimit:10;" d="
								M133.421,163.559c0,0-4.441-7.697-9.177-13.026c-4.737-5.329-19.538-5.033-26.051,2.072
								c-6.513,7.105-4.441,19.538-2.072,23.091c2.368,3.553,7.401,20.131,7.401,20.131l1.184,11.842l23.506,9.909l-1.599-19.382
								c0,0,10.657-2.072,11.545-5.329c0.888-3.257-1.776-14.506-1.776-14.506s3.553-2.368,3.256-4.441
								C139.342,171.848,133.421,163.559,133.421,163.559z"/>
							<path style="fill:#263238;stroke:#263238;stroke-linecap:round;stroke-linejoin:round;stroke-miterlimit:10;" d="
								M101.745,176.288c0,0,4.71,3.928,7.288-0.584c2.578-4.512,4.512-9.024,4.512-12.892c0-3.868-9.669-7.09-3.223-9.669
								c6.446-2.578,11.084,3.157,13.922-2.611c2.837-5.768,0.259-6.413-15.211-6.413c-15.47,0-23.205,7.735-19.982,17.404
								c3.223,9.669,9.668,20.626,9.668,20.626L101.745,176.288z"/>
							<path style="fill:none;stroke:#263238;stroke-linecap:round;stroke-linejoin:round;stroke-miterlimit:10;" d="
								M134.309,170.368c0,4.087-3.314,7.401-7.401,7.401c-4.087,0-7.401-3.314-7.401-7.401c0-4.088,3.314-7.401,7.401-7.401
								C130.995,162.967,134.309,166.28,134.309,170.368z"/>
							<path style="fill:none;stroke:#263238;stroke-linecap:round;stroke-linejoin:round;stroke-miterlimit:10;" d="
								M133.229,163.809c0.832-0.352,1.747-0.547,2.708-0.547c3.842,0,6.957,3.115,6.957,6.957c0,2.616-1.444,4.895-3.578,6.083"/>
							
								<line style="fill:#FFFFFF;stroke:#263238;stroke-linecap:round;stroke-linejoin:round;stroke-miterlimit:10;" x1="119.507" y1="170.368" x2="101.745" y2="176.288"/>
							<path style="fill:#FFFFFF;stroke:#263238;stroke-linecap:round;stroke-linejoin:round;stroke-miterlimit:10;" d="
								M106.777,180.137c0,0-3.552-7.401-7.105-5.921s-1.776,13.026,1.776,14.21c3.552,1.184,6.809-1.776,6.809-1.776
								s2.96,6.217,6.513,7.993"/>
						</g>
					</g>
					<path style="fill:#263238;" d="M129.743,168.691c0,1.137-0.346,2.059-0.772,2.059c-0.426,0-0.772-0.922-0.772-2.059
						c0-1.137,0.346-2.06,0.772-2.06C129.397,166.631,129.743,167.553,129.743,168.691z"/>
					<path style="fill:none;stroke:#263238;stroke-linecap:round;stroke-linejoin:round;stroke-miterlimit:10;" d="M123.05,161.997
						c0,0,1.545-1.545,4.806-1.373"/>
					<path style="fill:none;stroke:#263238;stroke-linecap:round;stroke-linejoin:round;stroke-miterlimit:10;" d="M136.436,181.391
						c0,0-2.574,1.545-4.806-0.172"/>
				</g>
				<polygon style="fill:#FFFFFF;stroke:#263238;stroke-linecap:round;stroke-linejoin:round;stroke-miterlimit:10;" points="
					100.372,199.973 132.305,216.349 130.258,228.631 97.097,206.523 				"/>
			</g>
			<g>
				<g>
					<path style="fill:#FFFFFF;stroke:#263238;stroke-linecap:round;stroke-linejoin:round;stroke-miterlimit:10;" d="
						M93.674,227.251c0,0-9.512,18.707-8.561,20.293c0.951,1.585,15.537,50.731,16.805,51.049
						c1.268,0.317,60.878-16.488,60.878-16.488l-1.902-8.244l-39.951-2.537l-3.488-31.39"/>
					<polyline style="fill:none;stroke:#263238;stroke-linecap:round;stroke-linejoin:round;stroke-miterlimit:10;" points="
						114.467,275.03 120.942,271.324 111.882,282.316 					"/>
				</g>
				<path style="fill:#FFFFFF;stroke:#263238;stroke-linecap:round;stroke-linejoin:round;stroke-miterlimit:10;" d="
					M160.893,273.861l14.902-1.268l11.415,6.659l4.439,3.805l-9.195,0.634l-7.927-2.537c0,0-1.268,2.219-7.293,1.585
					c-6.024-0.634-4.439-0.634-4.439-0.634L160.893,273.861z"/>
			</g>
		</g>
	</g>
</g>
<g id="Device_1">
	<g>
		
			<rect x="174.17" y="284.229" style="fill:#FFFFFF;stroke:#263238;stroke-linecap:round;stroke-linejoin:round;stroke-miterlimit:10;" width="79.208" height="3.196"/>
		
			<rect x="196.503" y="284.229" style="fill:#FFFFFF;stroke:#263238;stroke-linecap:round;stroke-linejoin:round;stroke-miterlimit:10;" width="79.208" height="3.196"/>
		<polygon style="fill:#FFFFFF;stroke:#263238;stroke-linecap:round;stroke-linejoin:round;stroke-miterlimit:10;" points="
			266.881,278.547 200.832,278.547 207.953,228.122 274.002,228.122 		"/>
		<polygon style="fill:#263238;stroke:#263238;stroke-linecap:round;stroke-linejoin:round;stroke-miterlimit:10;" points="
			269.614,278.547 203.564,278.547 210.685,228.122 276.735,228.122 		"/>
		<path style="fill:#FFFFFF;stroke:#263238;stroke-linecap:round;stroke-linejoin:round;stroke-miterlimit:10;" d="M249.378,255.11
			l6.626,32.314h-17.045l-6.626-32.314H249.378z M237.812,264.699c0.065,0.272,0.31,0.463,0.59,0.461l9.655-0.093
			c0.386-0.004,0.669-0.366,0.578-0.741l-0.871-3.627c-0.065-0.272-0.31-0.463-0.59-0.461l-9.655,0.093
			c-0.386,0.004-0.669,0.366-0.579,0.741L237.812,264.699z"/>
	</g>
</g>
<g id="Table_1">
	<g>
		<g>
			<path style="fill:#FFFFFF;stroke:#263238;stroke-linecap:round;stroke-linejoin:round;stroke-miterlimit:10;" d="M119.5,305.809
				l3.425,129.308c0.046,1.712,1.447,3.077,3.16,3.077l0,0c1.729,0,3.138-1.39,3.16-3.119l1.69-129.266H119.5z"/>
			<path style="fill:#FFFFFF;stroke:#263238;stroke-linecap:round;stroke-linejoin:round;stroke-miterlimit:10;" d="
				M161.276,305.809l3.426,129.308c0.045,1.712,1.446,3.077,3.159,3.077l0,0c1.73,0,3.138-1.39,3.16-3.119l1.69-129.266H161.276z"/>
			<path style="fill:#FFFFFF;stroke:#263238;stroke-linecap:round;stroke-linejoin:round;stroke-miterlimit:10;" d="
				M264.563,305.809l3.425,129.308c0.045,1.712,1.447,3.077,3.16,3.077l0,0c1.729,0,3.138-1.39,3.16-3.119l1.69-129.266H264.563z"/>
			<path style="fill:#FFFFFF;stroke:#263238;stroke-linecap:round;stroke-linejoin:round;stroke-miterlimit:10;" d="
				M306.339,305.809l3.425,129.308c0.046,1.712,1.447,3.077,3.159,3.077l0,0c1.729,0,3.138-1.39,3.16-3.119l1.69-129.266H306.339z"
				/>
			
				<rect x="115.436" y="291.686" style="fill:#92E3A9;stroke:#263238;stroke-linecap:round;stroke-linejoin:round;stroke-miterlimit:10;" width="206.153" height="15.474"/>
			
				<rect x="115.436" y="291.686" style="fill:#92E3A9;stroke:#263238;stroke-linecap:round;stroke-linejoin:round;stroke-miterlimit:10;" width="57.584" height="15.474"/>
			
				<rect x="115.436" y="291.686" style="fill:#263238;stroke:#263238;stroke-linecap:round;stroke-linejoin:round;stroke-miterlimit:10;" width="206.153" height="7.737"/>
			
				<rect x="112.24" y="286.36" style="fill:#92E3A9;stroke:#263238;stroke-linecap:round;stroke-linejoin:round;stroke-miterlimit:10;" width="212.545" height="8.523"/>
			
				<rect x="176.844" y="286.36" style="fill:#92E3A9;stroke:#263238;stroke-linecap:round;stroke-linejoin:round;stroke-miterlimit:10;" width="147.94" height="8.523"/>
		</g>
	</g>
</g>
</svg>
