<?xml version="1.0" encoding="utf-8"?>
<!-- Generator: Adobe Illustrator 27.5.0, SVG Export Plug-In . SVG Version: 6.00 Build 0)  -->
<svg version="1.1" xmlns="http://www.w3.org/2000/svg" xmlns:xlink="http://www.w3.org/1999/xlink" x="0px" y="0px"
	 viewBox="0 0 750 500" style="enable-background:new 0 0 750 500;" xml:space="preserve">
<g id="Background_Simple">
	<g>
		<path style="fill:#92E3A9;" d="M651.682,236.118c-4.77-12.772-13.117-24.28-24.428-31.832
			c-19.121-12.767-44.057-13.107-64.571-23.489c-12.894-6.525-23.74-17.029-30.675-29.707c-6.615-12.094-9.622-25.801-15.036-38.478
			c-5.414-12.677-14.24-25.07-27.368-29.273c-23.006-7.365-44.349,10.681-62.973,21.14c-27.732,15.574-54.757,14.748-84.019,4.221
			c-35.807-12.88-69.867-31.619-109.17-22.186c-20.874,5.01-40.202,17.798-51.129,36.275c-12.452,21.056-13.372,47.47-26.179,68.312
			c-12.014,19.551-32.758,31.255-53.803,38.846c-21.694,7.825-43.242,12.721-55.817,35.789c-8.027,14.726-4.671,33,1.026,48.774
			c21.649,59.934,69.588,101.94,132.41,112.628c47.784,8.13,97.428-4.028,140.36-26.528c19.456-10.196,39.204-22.862,61.162-22.273
			c33.645,0.904,58.045,31.805,88.992,45.036c21.993,9.403,47.419,9.493,70.215,2.247c53.663-17.059,93.555-71.779,109.914-123.635
			c6.089-19.299,8.54-40.546,2.934-60.252C652.987,239.841,652.372,237.966,651.682,236.118z"/>
		<path style="opacity:0.7;fill:#FFFFFF;" d="M651.682,236.118c-4.77-12.772-13.117-24.28-24.428-31.832
			c-19.121-12.767-44.057-13.107-64.571-23.489c-12.894-6.525-23.74-17.029-30.675-29.707c-6.615-12.094-9.622-25.801-15.036-38.478
			c-5.414-12.677-14.24-25.07-27.368-29.273c-23.006-7.365-44.349,10.681-62.973,21.14c-27.732,15.574-54.757,14.748-84.019,4.221
			c-35.807-12.88-69.867-31.619-109.17-22.186c-20.874,5.01-40.202,17.798-51.129,36.275c-12.452,21.056-13.372,47.47-26.179,68.312
			c-12.014,19.551-32.758,31.255-53.803,38.846c-21.694,7.825-43.242,12.721-55.817,35.789c-8.027,14.726-4.671,33,1.026,48.774
			c21.649,59.934,69.588,101.94,132.41,112.628c47.784,8.13,97.428-4.028,140.36-26.528c19.456-10.196,39.204-22.862,61.162-22.273
			c33.645,0.904,58.045,31.805,88.992,45.036c21.993,9.403,47.419,9.493,70.215,2.247c53.663-17.059,93.555-71.779,109.914-123.635
			c6.089-19.299,8.54-40.546,2.934-60.252C652.987,239.841,652.372,237.966,651.682,236.118z"/>
	</g>
</g>
<g id="Page">
	<path style="fill:#FFFFFF;stroke:#263238;stroke-linecap:round;stroke-linejoin:round;" d="M623.125,408.749H116.291
		c-5.221,0-9.453-4.232-9.453-9.453V122.473c0-5.221,4.232-9.453,9.453-9.453h506.834c5.221,0,9.453,4.232,9.453,9.453v276.822
		C632.579,404.517,628.346,408.749,623.125,408.749z"/>
	
		<rect x="501.449" y="133.742" style="fill:#263238;stroke:#BFBFBF;stroke-width:5;stroke-linecap:round;stroke-linejoin:round;" width="96.943" height="62.415"/>
	<g>
		<g>
			<path style="fill:#92E3A9;" d="M538.003,180.515c-1.914-6.708-3.575-15.022-10.559-13.415c-3.825,0.881-2.794-4.486-2.554-6.341
				c0.24-1.855,2.321-3.518,3.978-2.65c0.726,0.38,1.185,1.125,1.845,1.609c1.637,1.201,4.095,0.435,5.434-1.089
				c1.34-1.525,1.86-3.578,2.403-5.534c0.544-1.955,1.218-3.998,2.748-5.332c1.913-1.668,5.017-1.76,7.026-0.209
				c2.009,1.551,2.705,4.577,1.575,6.85c2.786-0.27,4.994-2.45,6.635-4.717c1.642-2.267,3.033-4.812,5.29-6.469
				c2.257-1.656,5.779-2.068,7.656,0.009c2,2.213,1.001,5.871-0.974,8.107c-1.975,2.236-4.711,3.687-6.708,5.902
				c-1.997,2.216-3.07,5.834-1.138,8.106c1.476,1.735,4.01,1.95,6.213,2.529c2.267,0.595,4.548,1.857,5.486,4.006
				s-0.156,5.195-2.469,5.579c-2.639,0.438-4.513-2.398-5.777-4.756s-3.614-5.01-6.095-4.008c-2.583,1.043-2.273,4.801-1.245,7.39
				c1.169,2.945,2.67,5.758,4.467,8.367c1.2,1.743,2.557,4.07,1.303,5.775c-1.393,1.893-4.615,0.73-5.796-1.302
				c-1.755-3.018-1.527-10.264-6.708-9.722c-1.353,0.142-2.487,1.578-3.81,1.941C543.879,181.789,538.652,182.787,538.003,180.515z"
				/>
			<path style="opacity:0.1;fill:#92E3A9;" d="M538.003,180.515c-1.914-6.708-3.575-15.022-10.559-13.415
				c-3.825,0.881-2.794-4.486-2.554-6.341c0.24-1.855,2.321-3.518,3.978-2.65c0.726,0.38,1.185,1.125,1.845,1.609
				c1.637,1.201,4.095,0.435,5.434-1.089c1.34-1.525,1.86-3.578,2.403-5.534c0.544-1.955,1.218-3.998,2.748-5.332
				c1.913-1.668,5.017-1.76,7.026-0.209c2.009,1.551,2.705,4.577,1.575,6.85c2.786-0.27,4.994-2.45,6.635-4.717
				c1.642-2.267,3.033-4.812,5.29-6.469c2.257-1.656,5.779-2.068,7.656,0.009c2,2.213,1.001,5.871-0.974,8.107
				c-1.975,2.236-4.711,3.687-6.708,5.902c-1.997,2.216-3.07,5.834-1.138,8.106c1.476,1.735,4.01,1.95,6.213,2.529
				c2.267,0.595,4.548,1.857,5.486,4.006s-0.156,5.195-2.469,5.579c-2.639,0.438-4.513-2.398-5.777-4.756s-3.614-5.01-6.095-4.008
				c-2.583,1.043-2.273,4.801-1.245,7.39c1.169,2.945,2.67,5.758,4.467,8.367c1.2,1.743,2.557,4.07,1.303,5.775
				c-1.393,1.893-4.615,0.73-5.796-1.302c-1.755-3.018-1.527-10.264-6.708-9.722c-1.353,0.142-2.487,1.578-3.81,1.941
				C543.879,181.789,538.652,182.787,538.003,180.515z"/>
		</g>
		<path style="fill:#92E3A9;" d="M580.481,163.117c-0.098,0.435,0.043,0.901,0.312,1.257c0.256,0.34,0.648,0.598,1.073,0.609
			c0.467,0.012,0.897-0.268,1.218-0.607c0.293-0.309,0.532-0.702,0.53-1.128c-0.002-0.438-0.272-0.851-0.643-1.084
			C582.081,161.603,580.724,162.034,580.481,163.117z"/>
		<path style="fill:#92E3A9;" d="M571.515,189.588c-0.072,0.322,0.032,0.667,0.231,0.93c0.19,0.251,0.479,0.443,0.794,0.451
			c0.346,0.009,0.664-0.198,0.902-0.449c0.217-0.229,0.394-0.52,0.392-0.835c-0.002-0.324-0.201-0.63-0.476-0.803
			C572.699,188.468,571.695,188.787,571.515,189.588z"/>
		<path style="fill:#92E3A9;" d="M547.312,141.52c-0.142,0.76,0.063,1.576,0.453,2.198c0.372,0.594,0.941,1.046,1.56,1.066
			c0.679,0.022,1.303-0.468,1.77-1.062c0.426-0.541,0.773-1.229,0.77-1.973c-0.003-0.767-0.395-1.488-0.934-1.896
			C549.637,138.872,547.666,139.626,547.312,141.52z"/>
		<g>
			<path style="fill:#92E3A9;" d="M572.299,147.114c-0.195,0.869,0.087,1.803,0.624,2.514c0.513,0.68,1.296,1.196,2.147,1.219
				c0.935,0.025,1.794-0.535,2.437-1.215c0.586-0.619,1.064-1.405,1.06-2.257c-0.005-0.877-0.544-1.701-1.286-2.168
				C575.5,144.086,572.786,144.948,572.299,147.114z"/>
			<path style="opacity:0.1;fill:#92E3A9;" d="M572.299,147.114c-0.195,0.869,0.087,1.803,0.624,2.514
				c0.513,0.68,1.296,1.196,2.147,1.219c0.935,0.025,1.794-0.535,2.437-1.215c0.586-0.619,1.064-1.405,1.06-2.257
				c-0.005-0.877-0.544-1.701-1.286-2.168C575.5,144.086,572.786,144.948,572.299,147.114z"/>
		</g>
		<g>
			<path style="fill:#92E3A9;" d="M538.003,180.515c-1.914-6.708-3.575-15.022-10.559-13.415c-3.825,0.881-2.794-4.486-2.554-6.341
				c0.24-1.855,2.321-3.518,3.978-2.65c0.726,0.38,1.185,1.125,1.845,1.609c1.637,1.201,4.095,0.435,5.434-1.089
				c1.34-1.525,1.86-3.578,2.403-5.534c0.544-1.955,1.218-3.998,2.748-5.332c1.913-1.668,5.017-1.76,7.026-0.209
				c2.009,1.551,2.705,4.577,1.575,6.85c2.786-0.27,4.994-2.45,6.635-4.717c1.642-2.267,3.033-4.812,5.29-6.469
				c2.257-1.656,5.779-2.068,7.656,0.009c2,2.213,1.001,5.871-0.974,8.107c-1.975,2.236-4.711,3.687-6.708,5.902
				c-1.997,2.216-3.07,5.834-1.138,8.106c1.476,1.735,4.01,1.95,6.213,2.529c2.267,0.595,4.548,1.857,5.486,4.006
				s-0.156,5.195-2.469,5.579c-2.639,0.438-4.513-2.398-5.777-4.756s-3.614-5.01-6.095-4.008c-2.583,1.043-2.273,4.801-1.245,7.39
				c1.169,2.945,2.67,5.758,4.467,8.367c1.2,1.743,2.557,4.07,1.303,5.775c-1.393,1.893-4.615,0.73-5.796-1.302
				c-1.755-3.018-1.527-10.264-6.708-9.722c-1.353,0.142-2.487,1.578-3.81,1.941C543.879,181.789,538.652,182.787,538.003,180.515z"
				/>
			<path style="opacity:0.1;fill:#92E3A9;" d="M538.003,180.515c-1.914-6.708-3.575-15.022-10.559-13.415
				c-3.825,0.881-2.794-4.486-2.554-6.341c0.24-1.855,2.321-3.518,3.978-2.65c0.726,0.38,1.185,1.125,1.845,1.609
				c1.637,1.201,4.095,0.435,5.434-1.089c1.34-1.525,1.86-3.578,2.403-5.534c0.544-1.955,1.218-3.998,2.748-5.332
				c1.913-1.668,5.017-1.76,7.026-0.209c2.009,1.551,2.705,4.577,1.575,6.85c2.786-0.27,4.994-2.45,6.635-4.717
				c1.642-2.267,3.033-4.812,5.29-6.469c2.257-1.656,5.779-2.068,7.656,0.009c2,2.213,1.001,5.871-0.974,8.107
				c-1.975,2.236-4.711,3.687-6.708,5.902c-1.997,2.216-3.07,5.834-1.138,8.106c1.476,1.735,4.01,1.95,6.213,2.529
				c2.267,0.595,4.548,1.857,5.486,4.006s-0.156,5.195-2.469,5.579c-2.639,0.438-4.513-2.398-5.777-4.756s-3.614-5.01-6.095-4.008
				c-2.583,1.043-2.273,4.801-1.245,7.39c1.169,2.945,2.67,5.758,4.467,8.367c1.2,1.743,2.557,4.07,1.303,5.775
				c-1.393,1.893-4.615,0.73-5.796-1.302c-1.755-3.018-1.527-10.264-6.708-9.722c-1.353,0.142-2.487,1.578-3.81,1.941
				C543.879,181.789,538.652,182.787,538.003,180.515z"/>
		</g>
		<path style="fill:#92E3A9;" d="M580.481,163.117c-0.098,0.435,0.043,0.901,0.312,1.257c0.256,0.34,0.648,0.598,1.073,0.609
			c0.467,0.012,0.897-0.268,1.218-0.607c0.293-0.309,0.532-0.702,0.53-1.128c-0.002-0.438-0.272-0.851-0.643-1.084
			C582.081,161.603,580.724,162.034,580.481,163.117z"/>
		<path style="fill:#92E3A9;" d="M571.515,189.588c-0.072,0.322,0.032,0.667,0.231,0.93c0.19,0.251,0.479,0.443,0.794,0.451
			c0.346,0.009,0.664-0.198,0.902-0.449c0.217-0.229,0.394-0.52,0.392-0.835c-0.002-0.324-0.201-0.63-0.476-0.803
			C572.699,188.468,571.695,188.787,571.515,189.588z"/>
		<path style="fill:#92E3A9;" d="M547.312,141.52c-0.142,0.76,0.063,1.576,0.453,2.198c0.372,0.594,0.941,1.046,1.56,1.066
			c0.679,0.022,1.303-0.468,1.77-1.062c0.426-0.541,0.773-1.229,0.77-1.973c-0.003-0.767-0.395-1.488-0.934-1.896
			C549.637,138.872,547.666,139.626,547.312,141.52z"/>
		<g>
			<path style="fill:#92E3A9;" d="M572.299,147.114c-0.195,0.869,0.087,1.803,0.624,2.514c0.513,0.68,1.296,1.196,2.147,1.219
				c0.935,0.025,1.794-0.535,2.437-1.215c0.586-0.619,1.064-1.405,1.06-2.257c-0.005-0.877-0.544-1.701-1.286-2.168
				C575.5,144.086,572.786,144.948,572.299,147.114z"/>
			<path style="opacity:0.1;fill:#92E3A9;" d="M572.299,147.114c-0.195,0.869,0.087,1.803,0.624,2.514
				c0.513,0.68,1.296,1.196,2.147,1.219c0.935,0.025,1.794-0.535,2.437-1.215c0.586-0.619,1.064-1.405,1.06-2.257
				c-0.005-0.877-0.544-1.701-1.286-2.168C575.5,144.086,572.786,144.948,572.299,147.114z"/>
		</g>
		<path style="opacity:0.5;fill:#FFFFFF;" d="M571.515,189.588c-0.072,0.322,0.032,0.667,0.231,0.93
			c0.19,0.251,0.479,0.443,0.794,0.451c0.346,0.009,0.664-0.198,0.902-0.449c0.217-0.229,0.394-0.52,0.392-0.835
			c-0.002-0.324-0.201-0.63-0.476-0.803C572.699,188.468,571.695,188.787,571.515,189.588z"/>
		<path style="opacity:0.5;fill:#FFFFFF;" d="M547.312,141.52c-0.142,0.76,0.063,1.576,0.453,2.198
			c0.372,0.594,0.941,1.046,1.56,1.066c0.679,0.022,1.303-0.468,1.77-1.062c0.426-0.541,0.773-1.229,0.77-1.973
			c-0.003-0.767-0.395-1.488-0.934-1.896C549.637,138.872,547.666,139.626,547.312,141.52z"/>
		<g style="opacity:0.5;">
			<path style="fill:#FFFFFF;" d="M572.299,147.114c-0.195,0.869,0.087,1.803,0.624,2.514c0.513,0.68,1.296,1.196,2.147,1.219
				c0.935,0.025,1.794-0.535,2.437-1.215c0.586-0.619,1.064-1.405,1.06-2.257c-0.005-0.877-0.544-1.701-1.286-2.168
				C575.5,144.086,572.786,144.948,572.299,147.114z"/>
			<path style="opacity:0.1;fill:#FFFFFF;" d="M572.299,147.114c-0.195,0.869,0.087,1.803,0.624,2.514
				c0.513,0.68,1.296,1.196,2.147,1.219c0.935,0.025,1.794-0.535,2.437-1.215c0.586-0.619,1.064-1.405,1.06-2.257
				c-0.005-0.877-0.544-1.701-1.286-2.168C575.5,144.086,572.786,144.948,572.299,147.114z"/>
		</g>
	</g>
	<g>
		<g>
			<path style="fill:#92E3A9;" d="M214.288,370.143h-3.343v-13.778c0-1.193-0.97-2.163-2.163-2.163h-9.889
				c-3.036,0-5.506-2.471-5.506-5.507v-9.888c0-1.193-0.97-2.164-2.164-2.164h-9.89c-3.036,0-5.506-2.469-5.506-5.505v-9.89
				c0-1.193-0.97-2.164-2.163-2.164h-9.889c-3.036,0-5.506-2.47-5.506-5.506v-9.89c0-1.193-0.97-2.163-2.163-2.163h-13.777v-3.343
				h13.777c3.036,0,5.506,2.47,5.506,5.506v9.89c0,1.193,0.97,2.164,2.164,2.164h9.889c3.036,0,5.506,2.47,5.506,5.506v9.89
				c0,1.193,0.97,2.163,2.163,2.163h9.89c3.036,0,5.507,2.471,5.507,5.507v9.888c0,1.193,0.97,2.164,2.163,2.164h9.889
				c3.036,0,5.506,2.47,5.506,5.505V370.143z"/>
		</g>
		<g style="opacity:0.7;">
			<path style="fill:#FFFFFF;" d="M214.288,370.143h-3.343v-13.778c0-1.193-0.97-2.163-2.163-2.163h-9.889
				c-3.036,0-5.506-2.471-5.506-5.507v-9.888c0-1.193-0.97-2.164-2.164-2.164h-9.89c-3.036,0-5.506-2.469-5.506-5.505v-9.89
				c0-1.193-0.97-2.164-2.163-2.164h-9.889c-3.036,0-5.506-2.47-5.506-5.506v-9.89c0-1.193-0.97-2.163-2.163-2.163h-13.777v-3.343
				h13.777c3.036,0,5.506,2.47,5.506,5.506v9.89c0,1.193,0.97,2.164,2.164,2.164h9.889c3.036,0,5.506,2.47,5.506,5.506v9.89
				c0,1.193,0.97,2.163,2.163,2.163h9.89c3.036,0,5.507,2.471,5.507,5.507v9.888c0,1.193,0.97,2.164,2.163,2.164h9.889
				c3.036,0,5.506,2.47,5.506,5.505V370.143z"/>
		</g>
	</g>
	<g>
		
			<rect x="523.84" y="224.576" transform="matrix(0.7071 0.7071 -0.7071 0.7071 338.5463 -315.5354)" style="fill:#92E3A9;" width="52.634" height="52.634"/>
		
			<rect x="523.84" y="224.576" transform="matrix(0.7071 0.7071 -0.7071 0.7071 338.5463 -315.5354)" style="opacity:0.7;fill:#FFFFFF;" width="52.634" height="52.634"/>
	</g>
	<g>
		<g>
			<polygon style="fill:#92E3A9;" points="236.448,212.554 200.112,240.021 236.744,288.481 			"/>
		</g>
		<g style="opacity:0.7;">
			<polygon style="fill:#FFFFFF;" points="236.448,212.554 200.112,240.021 236.744,288.481 			"/>
		</g>
	</g>
	<g>
		
			<ellipse transform="matrix(0.1607 -0.987 0.987 0.1607 -103.8505 656.4246)" style="fill:#FFFFFF;" cx="334.037" cy="389.274" rx="9.818" ry="9.818"/>
		
			<ellipse transform="matrix(0.1607 -0.987 0.987 0.1607 -81.8756 682.266)" style="fill:#FFFFFF;" cx="360.218" cy="389.274" rx="9.818" ry="9.818"/>
		
			<ellipse transform="matrix(0.1544 -0.988 0.988 0.1544 -58.7854 709.863)" style="fill:#FFFFFF;" cx="385.309" cy="389.274" rx="9.818" ry="9.818"/>
		
			<ellipse transform="matrix(0.1607 -0.987 0.987 0.1607 -40.2149 731.257)" style="fill:#FFFFFF;" cx="409.854" cy="389.274" rx="9.818" ry="9.818"/>
		<g>
			
				<line style="fill-rule:evenodd;clip-rule:evenodd;fill:none;stroke:#263238;stroke-width:2;stroke-miterlimit:10;" x1="331.445" y1="388.307" x2="336.538" y2="388.307"/>
			<path style="fill-rule:evenodd;clip-rule:evenodd;fill:none;stroke:#263238;stroke-width:2;stroke-miterlimit:10;" d="
				M333.584,395.079v-8.554c0-1.05,0.851-1.901,1.901-1.901h0.951"/>
		</g>
		<g>
			<polyline style="fill-rule:evenodd;clip-rule:evenodd;fill:none;stroke:#263238;stroke-width:2;stroke-miterlimit:10;" points="
				382.088,386.2 382.088,390.151 382.088,392.695 			"/>
			<polyline style="fill-rule:evenodd;clip-rule:evenodd;fill:none;stroke:#263238;stroke-width:2;stroke-miterlimit:10;" points="
				385.177,386.349 385.177,390.151 385.177,392.695 			"/>
			<path style="fill-rule:evenodd;clip-rule:evenodd;fill:none;stroke:#263238;stroke-width:2;stroke-miterlimit:10;" d="
				M385.178,388.992c0.39-0.42,1.45-1.34,3.06-1.22c1.81,0.13,1.34,4.76,1.34,4.93"/>
			<path style="fill:#263238;" d="M382.754,385.673h-1.374c-0.177,0-0.321-0.144-0.321-0.321v-1.378
				c0-0.177,0.144-0.321,0.321-0.321h1.374c0.177,0,0.321,0.144,0.321,0.321v1.378C383.075,385.529,382.932,385.673,382.754,385.673
				z"/>
		</g>
		<g>
			<path style="fill:none;stroke:#263238;stroke-miterlimit:10;" d="M362.718,389.198c0,1.299-1.053,2.352-2.352,2.352
				s-2.351-1.053-2.351-2.352s1.053-2.352,2.351-2.352S362.718,387.899,362.718,389.198z"/>
			<path style="fill:none;stroke:#263238;stroke-miterlimit:10;" d="M362.624,394.663h-4.515c-1.772,0-3.208-1.436-3.208-3.208
				v-4.515c0-1.772,1.436-3.208,3.208-3.208h4.515c1.772,0,3.208,1.436,3.208,3.208v4.515
				C365.832,393.227,364.395,394.663,362.624,394.663z"/>
		</g>
		<g>
			<g>
				
					<path style="fill:none;stroke:#263238;stroke-width:1.25;stroke-linecap:round;stroke-linejoin:round;stroke-miterlimit:10;" d="
					M406.046,392.228v-5.465h2.665c0.651,0,1.178,0.527,1.178,1.178l0,0c0,0.651-0.528,1.178-1.178,1.178h-2.125v0.406h2.324
					c0.74,0,1.34,0.6,1.34,1.34l0,0c0,0.748-0.61,1.35-1.358,1.339C407.643,392.185,405.99,392.172,406.046,392.228z"/>
			</g>
			<g>
				
					<path style="fill:none;stroke:#263238;stroke-width:1.25;stroke-linecap:round;stroke-linejoin:round;stroke-miterlimit:10;" d="
					M411.762,390.03h3.386c0,0,0.286-1.604-1.556-1.782C411.751,388.069,411.762,390.03,411.762,390.03z"/>
				
					<path style="fill:none;stroke:#263238;stroke-width:1.25;stroke-linecap:square;stroke-linejoin:round;stroke-miterlimit:10;" d="
					M411.788,390.07c0.022,1.615,1.033,2.083,1.749,2.083c1.196,0,1.381-0.624,1.381-0.624l0-0.036"/>
			</g>
		</g>
	</g>
	<g id="Frame">
		
			<rect x="271.272" y="134.11" style="fill:#92E3A9;stroke:#FFFFFF;stroke-width:5;stroke-linecap:round;stroke-linejoin:round;" width="199.857" height="232.856"/>
	</g>
	<circle style="fill:#263238;stroke:#263238;stroke-linecap:round;stroke-linejoin:round;" cx="157.577" cy="162.688" r="32.727"/>
	
		<line style="fill:none;stroke:#263238;stroke-linecap:round;stroke-linejoin:round;" x1="125.854" y1="207.96" x2="189.987" y2="207.96"/>
	
		<line style="fill:none;stroke:#263238;stroke-linecap:round;stroke-linejoin:round;" x1="125.854" y1="369.71" x2="189.987" y2="369.71"/>
	<g>
		
			<rect x="130.568" y="380.28" style="fill:#FFFFFF;stroke:#263238;stroke-linecap:round;stroke-linejoin:round;stroke-miterlimit:10;" width="15.421" height="8.842"/>
		
			<line style="fill:#FFFFFF;stroke:#263238;stroke-linecap:round;stroke-linejoin:round;stroke-miterlimit:10;" x1="145.989" y1="380.28" x2="130.568" y2="380.28"/>
		<polygon style="fill:#FFFFFF;stroke:#263238;stroke-linecap:round;stroke-linejoin:round;stroke-miterlimit:10;" points="
			145.989,389.121 130.567,389.121 135.4,384.116 138.279,386.4 141.21,384.073 		"/>
		<polygon style="fill:#FFFFFF;stroke:#263238;stroke-linecap:round;stroke-linejoin:round;stroke-miterlimit:10;" points="
			145.989,380.28 141.21,384.073 138.279,386.4 135.4,384.116 130.567,380.28 		"/>
	</g>
	<g>
		
			<line style="fill:none;stroke:#263238;stroke-linecap:round;stroke-linejoin:round;" x1="506.17" y1="291.751" x2="595.244" y2="291.751"/>
		
			<line style="fill:none;stroke:#263238;stroke-linecap:round;stroke-linejoin:round;" x1="506.17" y1="331.622" x2="595.244" y2="331.622"/>
		<path style="fill:#263238;stroke:#263238;stroke-linecap:round;stroke-linejoin:round;" d="M574.164,372.504h-47.845
			c-5.945,0-10.765-4.82-10.765-10.765l0,0c0-5.945,4.82-10.765,10.765-10.765h47.845c5.945,0,10.765,4.82,10.765,10.765l0,0
			C584.93,367.685,580.11,372.504,574.164,372.504z"/>
		<g>
			<polyline style="fill:none;stroke:#FFFFFF;stroke-linecap:round;stroke-linejoin:round;" points="576.643,358.151 
				580.411,361.514 569.513,361.514 			"/>
			
				<line style="fill:none;stroke:#FFFFFF;stroke-linecap:round;stroke-linejoin:round;" x1="576.509" y1="364.878" x2="580.411" y2="361.514"/>
		</g>
	</g>
</g>
<g id="Tools">
	<g>
		<g>
			<g>
				<path style="fill:#263238;stroke:#263238;stroke-linecap:round;stroke-linejoin:round;" d="M638.026,294.167
					c0.427,0.025,8.441-2.067,7.768-16.201c-0.673-14.134-5.636-13.51-5.896-21.946c0,0-6.431,7.676-8.434,21.287
					C629.461,290.918,636.348,294.068,638.026,294.167z"/>
				<g>
					<path style="fill:#FFFFFF;stroke:#263238;stroke-linecap:round;stroke-linejoin:round;" d="M628.04,335.62
						c-1.088,18.537-1.039,72.487,2.915,72.719c3.954,0.232,10.316-53.341,11.405-71.878c1.088-18.537-1.235-33.753-5.189-33.985
						C633.216,302.243,629.128,317.083,628.04,335.62z"/>
					<path style="fill:#BFBFBF;stroke:#263238;stroke-linecap:round;stroke-linejoin:round;" d="M628.04,335.62
						c-1.088,18.537-1.039,72.487,2.915,72.719c3.954,0.232,10.316-53.341,11.405-71.878c1.088-18.537-1.235-33.753-5.189-33.985
						C633.216,302.243,629.128,317.083,628.04,335.62z"/>
				</g>
				<path style="fill:#FFFFFF;stroke:#263238;stroke-linecap:round;stroke-linejoin:round;" d="M633.197,309.198l7.133,0.419
					c0.447,0.026,0.83-0.315,0.856-0.761l1.016-17.312l-8.75-0.514l-1.016,17.312C632.409,308.789,632.75,309.172,633.197,309.198z"
					/>
				<path style="opacity:0.5;fill:#FFFFFF;stroke:#263238;stroke-linecap:round;stroke-linejoin:round;" d="M633.197,309.198
					l7.133,0.419c0.447,0.026,0.83-0.315,0.856-0.761l1.016-17.312l-8.75-0.514l-1.016,17.312
					C632.409,308.789,632.75,309.172,633.197,309.198z"/>
				<path style="fill:#92E3A9;stroke:#263238;stroke-linecap:round;stroke-linejoin:round;" d="M639.898,256.02
					c0.26,8.435,5.223,7.812,5.896,21.946c0.073,1.539,0.028,2.911-0.084,4.178c-0.346,0.948-0.853,1.531-1.597,1.398
					c-3.036-0.544-1.504-11.346-3.651-11.746c-2.147-0.4-1.28,5.233-4.024,4.798c-2.735-0.434-2.922,4.647-5.286,4.082
					c0.047-1.052,0.133-2.154,0.312-3.368C633.466,263.696,639.898,256.02,639.898,256.02z"/>
			</g>
		</g>
		<g>
			<g>
				<g>
					<g>
						<path style="fill:#FFFFFF;stroke:#263238;stroke-linecap:round;stroke-linejoin:round;" d="M679.987,394.059
							c10.15-8.001,19.573-22.52,20.261-32.795c2.238-33.444-22.181-38.96-27.899-38.953c-5.721,0.005-11.568,2.073-17.176,4.508
							c-5.255,2.282-10.463,4.945-15.15,8.571c-4.688,3.631-8.857,8.298-11.369,13.74c-1.248,2.708-2.069,5.848-1.055,8.297
							c1.416,3.429,5.679,4.053,9.426,3.983c3.75-0.072,7.944-0.322,10.407,2.271c2.117,2.233,2.266,6.091,1.115,9.461
							c-1.151,3.37-3.4,6.344-5.741,9.091c-1.798,2.106-3.695,4.153-5.14,6.518c-1.446,2.362-2.422,5.134-2.082,7.659
							c0.322,2.415,1.823,4.349,3.721,5.545s4.17,1.728,6.46,2.051C657.109,405.598,669.833,402.059,679.987,394.059z
							 M648.414,386.508c-1.168-2.259-0.56-5.153,1.359-6.467c1.917-1.313,4.419-0.55,5.587,1.709
							c1.166,2.256,0.557,5.154-1.359,6.467C652.082,389.532,649.581,388.764,648.414,386.508z"/>
					</g>
				</g>
				<g>
					<g>
						<g>
							<g>
								<g>
									<g>
										<g>
											<path style="fill:#FFFFFF;stroke:#263238;stroke-linecap:round;stroke-linejoin:round;" d="M679.984,392.817
												c10.15-8.001,19.573-22.52,20.261-32.795c2.238-33.444-22.181-38.96-27.899-38.953
												c-5.721,0.005-11.568,2.073-17.176,4.508c-5.255,2.282-10.463,4.944-15.15,8.571c-4.688,3.631-8.857,8.298-11.369,13.74
												c-1.248,2.708-2.069,5.848-1.055,8.297c1.416,3.429,5.679,4.053,9.427,3.983c3.749-0.072,7.944-0.322,10.407,2.271
												c2.117,2.233,2.266,6.091,1.114,9.461c-1.151,3.37-3.4,6.344-5.741,9.091c-1.798,2.106-3.695,4.153-5.14,6.518
												c-1.446,2.362-2.422,5.134-2.082,7.659c0.322,2.414,1.823,4.349,3.721,5.545c1.898,1.196,4.17,1.728,6.46,2.051
												C657.106,404.355,669.831,400.816,679.984,392.817z M648.411,385.266c-1.168-2.259-0.56-5.153,1.359-6.467
												c1.917-1.313,4.419-0.55,5.587,1.709c1.166,2.256,0.557,5.154-1.359,6.467
												C652.079,388.289,649.578,387.522,648.411,385.266z"/>
										</g>
									</g>
								</g>
							</g>
							<g style="opacity:0.5;">
								<g>
									<path style="fill:#FFFFFF;stroke:#263238;stroke-linecap:round;stroke-linejoin:round;" d="M679.984,392.817
										c10.15-8.001,19.573-22.52,20.261-32.795c2.238-33.444-22.181-38.96-27.899-38.953c-5.721,0.005-11.568,2.073-17.176,4.508
										c-5.255,2.282-10.463,4.944-15.15,8.571c-4.688,3.631-8.857,8.298-11.369,13.74c-1.248,2.708-2.069,5.848-1.055,8.297
										c1.416,3.429,5.679,4.053,9.427,3.983c3.749-0.072,7.944-0.322,10.407,2.271c2.117,2.233,2.266,6.091,1.114,9.461
										c-1.151,3.37-3.4,6.344-5.741,9.091c-1.798,2.106-3.695,4.153-5.14,6.518c-1.446,2.362-2.422,5.134-2.082,7.659
										c0.322,2.414,1.823,4.349,3.721,5.545c1.898,1.196,4.17,1.728,6.46,2.051C657.106,404.355,669.831,400.816,679.984,392.817
										z M648.411,385.266c-1.168-2.259-0.56-5.153,1.359-6.467c1.917-1.313,4.419-0.55,5.587,1.709
										c1.166,2.256,0.557,5.154-1.359,6.467C652.079,388.289,649.578,387.522,648.411,385.266z"/>
								</g>
							</g>
						</g>
					</g>
				</g>
			</g>
			<g>
				<g>
					<path style="fill:#92E3A9;" d="M661.547,359.324c-1.049,0.255-2.021,0.813-2.942,1.439c-0.494,0.336-0.99,0.707-1.326,1.245
						c-0.336,0.539-0.484,1.285-0.233,1.895c0.091,0.221,0.232,0.421,0.275,0.66c0.109,0.61-0.441,1.091-0.552,1.696
						c-0.129,0.705,0.396,1.401,0.989,1.634c0.593,0.233,1.234,0.134,1.854,0.082c0.459-0.038,0.927-0.048,1.375,0.087
						c0.325,0.098,0.631,0.268,0.95,0.393c1.452,0.568,3.078,0.116,4.337-0.851c0.374-0.287,0.734-0.634,0.923-1.108
						c0.289-0.725,0.115-1.618-0.269-2.296c-0.384-0.679-0.949-1.188-1.503-1.682c0.044,0.039,0.108-1.372,0.074-1.532
						c-0.112-0.536-0.34-0.985-0.724-1.3C663.958,359.015,662.447,359.105,661.547,359.324z"/>
					<path style="fill:#92E3A9;" d="M662.552,351.491c-1.049,0.255-2.021,0.813-2.942,1.439c-0.494,0.336-0.99,0.707-1.326,1.245
						c-0.336,0.539-0.484,1.285-0.232,1.895c0.091,0.221,0.232,0.421,0.274,0.66c0.109,0.61-0.441,1.091-0.552,1.696
						c-0.129,0.706,0.396,1.401,0.989,1.634c0.593,0.233,1.234,0.134,1.854,0.082c0.459-0.038,0.927-0.048,1.375,0.087
						c0.325,0.098,0.631,0.268,0.95,0.393c1.452,0.568,3.078,0.116,4.337-0.851c0.374-0.287,0.734-0.635,0.923-1.108
						c0.289-0.725,0.115-1.618-0.269-2.296c-0.384-0.679-0.949-1.188-1.503-1.682c0.044,0.039,0.108-1.372,0.074-1.532
						c-0.112-0.536-0.34-0.985-0.724-1.3C664.963,351.182,663.452,351.272,662.552,351.491z"/>
				</g>
				<g>
					<path style="fill:#92E3A9;" d="M672.105,388.951c0.728,0.85,1.556,1.576,2.294,2.413c0.095,0.108,0.194,0.23,0.209,0.382
						c0.034,0.349-0.368,0.51-0.666,0.46c-1.197-0.201-1.893-1.664-2.397-2.95c-0.269,0.167-0.248,0.612-0.237,0.969
						c0.012,0.357-0.128,0.825-0.434,0.787c-0.21-0.026-0.333-0.286-0.415-0.513c-0.592-1.638-0.994-3.366-1.19-5.12
						C670.253,385.024,671.458,388.195,672.105,388.951z"/>
					<g>
						<g>
							<path style="fill:#92E3A9;" d="M676.847,384.876c-0.443-0.417-1.19-0.215-1.436,0.371c-0.246,0.585,0.048,1.389,0.578,1.628
								c0.476,0.214,1.052-0.024,1.329-0.511c0.277-0.487,0.257-1.169-0.014-1.674c-0.107-0.2-0.463-0.272-0.418-0.043
								L676.847,384.876z"/>
						</g>
						<g>
							<path style="fill:#92E3A9;" d="M674.11,384.719c-0.146-0.137-0.392-0.071-0.473,0.122c-0.081,0.193,0.016,0.458,0.19,0.537
								c0.157,0.071,0.347-0.008,0.438-0.169c0.091-0.16,0.085-0.385-0.005-0.552c-0.035-0.066-0.153-0.09-0.138-0.014
								L674.11,384.719z"/>
						</g>
					</g>
					<g>
						<g>
							<path style="fill:#92E3A9;" d="M668.936,382.537c-0.317-0.298-0.85-0.154-1.026,0.265c-0.176,0.418,0.034,0.993,0.413,1.163
								c0.34,0.153,0.751-0.017,0.95-0.365c0.198-0.348,0.184-0.836-0.01-1.196c-0.077-0.143-0.331-0.194-0.299-0.031
								L668.936,382.537z"/>
						</g>
					</g>
				</g>
				<g>
					<g>
						<path style="fill:#92E3A9;" d="M666.444,384.802c-1.329-0.573-2.816-0.437-4.027,0.373c-0.517,0.346-1.001,0.813-1.291,1.426
							c-0.145,0.307-0.24,0.647-0.411,0.936c-0.827,1.403-2.859,0.916-3.912,2.094c-0.242,0.27-0.43,0.655-0.21,1.09
							c0.179,0.355,0.553,0.509,0.897,0.431c0.776-0.176,1.137-1.002,1.7-1.529c0.601-0.563,1.031-0.611,1.784-0.362
							c0.897,0.666-3.181,2.981-4.866,5.594c-0.195,0.303-1.563,1.415-1.395,1.747c0.533,1.055,2.021-0.59,2.79-1.882
							c0.53-0.891,1.209-1.76,2.027-2.228c0.45-0.257,0.819,0.507,0.395,0.817c-0.232,0.17-0.486,0.319-0.717,0.469
							c-0.626,0.406-1.226,1.334-0.778,2.004c0.935-0.538,1.539-1.6,2.24-2.496c0.412-0.526,0.921-1.019,1.481-1.287
							c0.494-0.236,0.964,0.436,0.665,0.95c-0.451,0.777-0.979,1.493-1.571,2.129c0.207,0.492,0.853,0.49,1.214,0.153
							c0.361-0.336,0.531-0.871,0.752-1.344c0.222-0.474,0.57-0.944,1.036-0.965c0.256-0.011,0.501,0.117,0.746,0.21
							C669.7,394.932,670.953,386.745,666.444,384.802z"/>
						<path style="opacity:0.7;fill:#92E3A9;" d="M666.444,384.802c-1.329-0.573-2.816-0.437-4.027,0.373
							c-0.517,0.346-1.001,0.813-1.291,1.426c-0.145,0.307-0.24,0.647-0.411,0.936c-0.827,1.403-2.859,0.916-3.912,2.094
							c-0.242,0.27-0.43,0.655-0.21,1.09c0.179,0.355,0.553,0.509,0.897,0.431c0.776-0.176,1.137-1.002,1.7-1.529
							c0.601-0.563,1.031-0.611,1.784-0.362c0.897,0.666-3.181,2.981-4.866,5.594c-0.195,0.303-1.563,1.415-1.395,1.747
							c0.533,1.055,2.021-0.59,2.79-1.882c0.53-0.891,1.209-1.76,2.027-2.228c0.45-0.257,0.819,0.507,0.395,0.817
							c-0.232,0.17-0.486,0.319-0.717,0.469c-0.626,0.406-1.226,1.334-0.778,2.004c0.935-0.538,1.539-1.6,2.24-2.496
							c0.412-0.526,0.921-1.019,1.481-1.287c0.494-0.236,0.964,0.436,0.665,0.95c-0.451,0.777-0.979,1.493-1.571,2.129
							c0.207,0.492,0.853,0.49,1.214,0.153c0.361-0.336,0.531-0.871,0.752-1.344c0.222-0.474,0.57-0.944,1.036-0.965
							c0.256-0.011,0.501,0.117,0.746,0.21C669.7,394.932,670.953,386.745,666.444,384.802z"/>
						<g>
							<g>
								<g>
									<path style="fill:#92E3A9;" d="M654.533,392.871c-0.317-0.298-0.85-0.154-1.026,0.265
										c-0.176,0.418,0.034,0.993,0.413,1.164c0.34,0.153,0.751-0.017,0.95-0.365c0.198-0.348,0.184-0.835-0.01-1.196
										c-0.077-0.143-0.331-0.194-0.299-0.031L654.533,392.871z"/>
								</g>
								<g>
									<path style="fill:#92E3A9;" d="M654.533,392.871c-0.317-0.298-0.85-0.154-1.026,0.265
										c-0.176,0.418,0.034,0.993,0.413,1.164c0.34,0.153,0.751-0.017,0.95-0.365c0.198-0.348,0.184-0.835-0.01-1.196
										c-0.077-0.143-0.331-0.194-0.299-0.031L654.533,392.871z"/>
								</g>
							</g>
							<g>
								<g>
									<path style="fill:#92E3A9;" d="M654.533,392.871c-0.317-0.298-0.85-0.154-1.026,0.265
										c-0.176,0.418,0.034,0.993,0.413,1.164c0.34,0.153,0.751-0.017,0.95-0.365c0.198-0.348,0.184-0.835-0.01-1.196
										c-0.077-0.143-0.331-0.194-0.299-0.031L654.533,392.871z"/>
								</g>
							</g>
							<path style="opacity:0.7;fill:#92E3A9;" d="M654.533,392.871c-0.317-0.298-0.85-0.154-1.026,0.265
								c-0.176,0.418,0.034,0.993,0.413,1.164c0.34,0.153,0.751-0.017,0.95-0.365c0.198-0.348,0.184-0.835-0.01-1.196
								c-0.077-0.143-0.331-0.194-0.299-0.031L654.533,392.871z"/>
						</g>
					</g>
				</g>
				<g>
					<g>
						<path style="fill:#92E3A9;" d="M681.267,370.822c-1.474,0.143-3.191,0.773-3.565,2.433c-0.097,0.43-0.097,0.913-0.331,1.262
							c-0.347,0.517-1.119,0.594-1.272,1.228c0.119,0.12,0.237,0.24,0.356,0.36c-1.353-0.009-2.704,0.185-4.008,0.577
							c1.111-0.002,2.222-0.004,3.334-0.005c-0.827,0.275-1.653,0.55-2.48,0.825c1.267-0.274,2.573-0.328,3.861-0.161
							c-0.473,0.448-1.039,0.762-1.638,0.909c0.283,0.648,1.168,0.403,1.664,0.848c0.237,0.213,0.353,0.556,0.526,0.841
							c0.358,0.59,1.006,0.924,1.615,0.834c0.608-0.09,1.15-0.6,1.35-1.272c1.068,0.845,2.552,0.362,3.539-0.565
							c0.336-0.316,0.648-0.684,1.048-0.879c0.986-0.481,1.576-0.655,0.79-0.741c0.601-0.227,0.354-0.991-0.37-1.146
							c1.025-0.085,1.141-0.87,0.21-0.823c-0.108-0.354-0.351-0.684-0.55-0.964C687.219,371.902,682.456,370.707,681.267,370.822z"
							/>
						<g>
							<path style="fill:#92E3A9;" d="M675.526,371.438c-0.156-0.309-0.53-0.384-0.815-0.262c-0.284,0.122-0.499,0.39-0.703,0.65
								c-0.088,0.112-0.178,0.229-0.219,0.373c-0.115,0.409,0.208,0.818,0.535,1.032c0.36,0.236,0.783,0.379,1.183,0.283
								c0.4-0.096,0.759-0.475,0.792-0.95c0.033-0.474-0.344-0.969-0.749-0.902L675.526,371.438z"/>
						</g>
					</g>
					<g style="opacity:0.4;">
						<path style="fill:#92E3A9;" d="M681.267,370.822c-1.474,0.143-3.191,0.773-3.565,2.433c-0.097,0.43-0.097,0.913-0.331,1.262
							c-0.347,0.517-1.119,0.594-1.272,1.228c0.119,0.12,0.237,0.24,0.356,0.36c-1.353-0.009-2.704,0.185-4.008,0.577
							c1.111-0.002,2.222-0.004,3.334-0.005c-0.827,0.275-1.653,0.55-2.48,0.825c1.267-0.274,2.573-0.328,3.861-0.161
							c-0.473,0.448-1.039,0.762-1.638,0.909c0.283,0.648,1.168,0.403,1.664,0.848c0.237,0.213,0.353,0.556,0.526,0.841
							c0.358,0.59,1.006,0.924,1.615,0.834c0.608-0.09,1.15-0.6,1.35-1.272c1.068,0.845,2.552,0.362,3.539-0.565
							c0.336-0.316,0.648-0.684,1.048-0.879c0.986-0.481,1.576-0.655,0.79-0.741c0.601-0.227,0.354-0.991-0.37-1.146
							c1.025-0.085,1.141-0.87,0.21-0.823c-0.108-0.354-0.351-0.684-0.55-0.964C687.219,371.902,682.456,370.707,681.267,370.822z"
							/>
						<g>
							<path style="fill:#92E3A9;" d="M675.526,371.438c-0.156-0.309-0.53-0.384-0.815-0.262c-0.284,0.122-0.499,0.39-0.703,0.65
								c-0.088,0.112-0.178,0.229-0.219,0.373c-0.115,0.409,0.208,0.818,0.535,1.032c0.36,0.236,0.783,0.379,1.183,0.283
								c0.4-0.096,0.759-0.475,0.792-0.95c0.033-0.474-0.344-0.969-0.749-0.902L675.526,371.438z"/>
						</g>
					</g>
				</g>
				<g>
					<path style="fill:#92E3A9;" d="M687.703,356.206c-1.019-0.337-2.125-0.058-3.04,0.531c-0.915,0.59-1.664,1.467-2.352,2.38
						c-0.433,0.575-0.871,1.362-0.575,2.059c0.079,0.186,0.205,0.345,0.26,0.542c0.078,0.277,0,0.574,0.001,0.863
						c0.001,0.29,0.146,0.638,0.395,0.639c0.326-0.191,0.36-0.701,0.43-1.12c0.189-1.133,0.982-2.085,1.948-2.34
						c-0.125,0.016-0.24,0.101-0.305,0.225c0.648,0.757,1.483,1.294,2.374,1.525c-0.575,0.157-1.172,0.218-1.765,0.182
						c0.433,0.154,0.865,0.307,1.298,0.46c-0.253,0.352-0.646,0.562-1.044,0.557c0.388,0.355,0.777,0.71,1.165,1.065
						c-0.903,0.694-2.018,1.015-3.107,0.894c0.318,0.771,1.091,1.257,1.81,1.138c0.234-0.039,0.466-0.134,0.702-0.099
						c0.233,0.034,0.439,0.192,0.662,0.279c0.432,0.169,0.9,0.067,1.341-0.044c1.458-0.367,3.118-1.055,3.538-2.719
						C692.212,360.163,690.299,357.041,687.703,356.206z"/>
					<g>
						<path style="fill:#92E3A9;" d="M689.174,365.394c-0.318-0.298-0.852-0.154-1.028,0.265c-0.176,0.419,0.034,0.995,0.414,1.166
							c0.341,0.154,0.753-0.018,0.952-0.366c0.199-0.349,0.184-0.837-0.01-1.199c-0.077-0.143-0.332-0.195-0.3-0.031
							L689.174,365.394z"/>
					</g>
					<g>
						<path style="fill:#92E3A9;" d="M683.921,365.187c-0.318-0.298-0.852-0.154-1.028,0.265c-0.176,0.419,0.034,0.995,0.414,1.166
							c0.341,0.153,0.753-0.017,0.952-0.366c0.199-0.349,0.184-0.837-0.01-1.199c-0.077-0.143-0.332-0.195-0.3-0.031
							L683.921,365.187z"/>
					</g>
					<g>
						<path style="fill:#92E3A9;" d="M679.334,362.815c-0.201-0.189-0.54-0.098-0.651,0.168c-0.112,0.266,0.022,0.63,0.262,0.739
							c0.216,0.097,0.477-0.011,0.603-0.232c0.126-0.221,0.117-0.53-0.006-0.759c-0.049-0.091-0.21-0.123-0.19-0.02L679.334,362.815
							z"/>
					</g>
				</g>
				<g>
					<g>
						<g>
							<path style="fill:#92E3A9;" d="M688.025,340.186c-1.582-0.299-3.182,0.295-4.584,1.154c-0.888,0.545-1.753,1.23-2.268,2.232
								c-0.516,1.002-0.602,2.38,0.017,3.326c0.158,0.241,0.357,0.451,0.46,0.728c0.124,0.333,0.092,0.717,0.205,1.055
								c0.152,0.456,0.551,0.788,0.612,1.27c0.053,0.419-0.172,0.809-0.413,1.12c-0.24,0.311-0.518,0.615-0.61,1.022
								c-0.091,0.407,0.116,0.945,0.48,0.961c0.638-0.721,1.276-1.443,1.913-2.164c0.318-0.36,0.763-0.746,1.167-0.514
								c-0.369,0.492-0.738,0.985-1.107,1.477c0.014,0.242,0.268,0.39,0.471,0.343c0.204-0.047,0.363-0.223,0.509-0.393
								c0.698-0.816,1.362-1.67,1.99-2.56c-0.119-0.14-0.239-0.28-0.358-0.42c0.249-0.311,0.498-0.621,0.748-0.932
								c0.331,0.148,0.632,0.389,0.87,0.697c-0.616,0.747-1.115,1.623-1.468,2.576c0.587,0.263,1.138-0.403,1.493-0.993
								c0.552-0.916,1.103-1.833,1.654-2.749c-0.27,0.448,0.859,0.132,0.853,0.134c0.357-0.14,0.82-1.079,0.987-1.453
								c0.323-0.72,0.537-1.38,0.356-2.202C691.614,342.124,689.447,340.455,688.025,340.186z"/>
							<g>
								<path style="fill:#92E3A9;" d="M681.435,339.448c-0.245-0.23-0.658-0.119-0.793,0.205c-0.136,0.324,0.027,0.768,0.319,0.9
									c0.263,0.118,0.581-0.014,0.734-0.283c0.153-0.269,0.142-0.646-0.008-0.925c-0.059-0.111-0.256-0.15-0.231-0.024
									L681.435,339.448z"/>
							</g>
							<g>
								<path style="fill:#92E3A9;" d="M680.25,347.766c-0.144-0.135-0.386-0.07-0.465,0.12c-0.08,0.19,0.016,0.45,0.187,0.527
									c0.154,0.069,0.341-0.008,0.431-0.166c0.09-0.158,0.083-0.379-0.005-0.542c-0.035-0.065-0.15-0.088-0.136-0.014
									L680.25,347.766z"/>
							</g>
						</g>
						<g style="opacity:0.8;">
							<path style="fill:#92E3A9;" d="M688.025,340.186c-1.582-0.299-3.182,0.295-4.584,1.154c-0.888,0.545-1.753,1.23-2.268,2.232
								c-0.516,1.002-0.602,2.38,0.017,3.326c0.158,0.241,0.357,0.451,0.46,0.728c0.124,0.333,0.092,0.717,0.205,1.055
								c0.152,0.456,0.551,0.788,0.612,1.27c0.053,0.419-0.172,0.809-0.413,1.12c-0.24,0.311-0.518,0.615-0.61,1.022
								c-0.091,0.407,0.116,0.945,0.48,0.961c0.638-0.721,1.276-1.443,1.913-2.164c0.318-0.36,0.763-0.746,1.167-0.514
								c-0.369,0.492-0.738,0.985-1.107,1.477c0.014,0.242,0.268,0.39,0.471,0.343c0.204-0.047,0.363-0.223,0.509-0.393
								c0.698-0.816,1.362-1.67,1.99-2.56c-0.119-0.14-0.239-0.28-0.358-0.42c0.249-0.311,0.498-0.621,0.748-0.932
								c0.331,0.148,0.632,0.389,0.87,0.697c-0.616,0.747-1.115,1.623-1.468,2.576c0.587,0.263,1.138-0.403,1.493-0.993
								c0.552-0.916,1.103-1.833,1.654-2.749c-0.27,0.448,0.859,0.132,0.853,0.134c0.357-0.14,0.82-1.079,0.987-1.453
								c0.323-0.72,0.537-1.38,0.356-2.202C691.614,342.124,689.447,340.455,688.025,340.186z"/>
							<g>
								<path style="fill:#92E3A9;" d="M681.435,339.448c-0.245-0.23-0.658-0.119-0.793,0.205c-0.136,0.324,0.027,0.768,0.319,0.9
									c0.263,0.118,0.581-0.014,0.734-0.283c0.153-0.269,0.142-0.646-0.008-0.925c-0.059-0.111-0.256-0.15-0.231-0.024
									L681.435,339.448z"/>
							</g>
							<g>
								<path style="fill:#92E3A9;" d="M680.25,347.766c-0.144-0.135-0.386-0.07-0.465,0.12c-0.08,0.19,0.016,0.45,0.187,0.527
									c0.154,0.069,0.341-0.008,0.431-0.166c0.09-0.158,0.083-0.379-0.005-0.542c-0.035-0.065-0.15-0.088-0.136-0.014
									L680.25,347.766z"/>
							</g>
						</g>
						<g style="opacity:0.4;">
							<path style="opacity:0.5;fill:#92E3A9;" d="M688.025,340.186c-1.582-0.299-3.182,0.295-4.584,1.154
								c-0.888,0.545-1.753,1.23-2.268,2.232c-0.516,1.002-0.602,2.38,0.017,3.326c0.158,0.241,0.357,0.451,0.46,0.728
								c0.124,0.333,0.092,0.717,0.205,1.055c0.152,0.456,0.551,0.788,0.612,1.27c0.053,0.419-0.172,0.809-0.413,1.12
								c-0.24,0.311-0.518,0.615-0.61,1.022c-0.091,0.407,0.116,0.945,0.48,0.961c0.638-0.721,1.276-1.443,1.913-2.164
								c0.318-0.36,0.763-0.746,1.167-0.514c-0.369,0.492-0.738,0.985-1.107,1.477c0.014,0.242,0.268,0.39,0.471,0.343
								c0.204-0.047,0.363-0.223,0.509-0.393c0.698-0.816,1.362-1.67,1.99-2.56c-0.119-0.14-0.239-0.28-0.358-0.42
								c0.249-0.311,0.498-0.621,0.748-0.932c0.331,0.148,0.632,0.389,0.87,0.697c-0.616,0.747-1.115,1.623-1.468,2.576
								c0.587,0.263,1.138-0.403,1.493-0.993c0.552-0.916,1.103-1.833,1.654-2.749c-0.27,0.448,0.859,0.132,0.853,0.134
								c0.357-0.14,0.82-1.079,0.987-1.453c0.323-0.72,0.537-1.38,0.356-2.202C691.614,342.124,689.447,340.455,688.025,340.186z"/>
							<g style="opacity:0.2;">
								<path style="fill:#92E3A9;" d="M681.435,339.448c-0.245-0.23-0.658-0.119-0.793,0.205c-0.136,0.324,0.027,0.768,0.319,0.9
									c0.263,0.118,0.581-0.014,0.734-0.283c0.153-0.269,0.142-0.646-0.008-0.925c-0.059-0.111-0.256-0.15-0.231-0.024
									L681.435,339.448z"/>
							</g>
							<g style="opacity:0.2;">
								<path style="fill:#92E3A9;" d="M680.25,347.766c-0.144-0.135-0.386-0.07-0.465,0.12c-0.08,0.19,0.016,0.45,0.187,0.527
									c0.154,0.069,0.341-0.008,0.431-0.166c0.09-0.158,0.083-0.379-0.005-0.542c-0.035-0.065-0.15-0.088-0.136-0.014
									L680.25,347.766z"/>
							</g>
						</g>
					</g>
					<g>
						<g>
							<path style="fill:#92E3A9;" d="M684.77,328.714c-0.766-0.725-1.62-1.387-2.584-1.597c-1.113-0.242-2.251,0.145-3.265,0.699
								c-0.305,0.166-0.612,0.356-0.823,0.66c-0.293,0.421-0.379,1.03-0.747,1.362c-0.535,0.482-1.57,0.326-1.691,1.105
								c-0.057,0.367,0.181,0.734,0.473,0.897c0.292,0.164,0.626,0.173,0.948,0.178c0.057,0.268-0.153,0.511-0.373,0.606
								c-0.219,0.095-0.466,0.109-0.669,0.245c-0.406,0.271-0.473,0.995-0.187,1.438c0.286,0.443,0.827,0.597,1.281,0.455
								c-0.615,0.456-1.23,0.911-1.845,1.367c-0.236,0.175-0.492,0.383-0.546,0.704c-0.072,0.429,0.267,0.829,0.626,0.97
								c1.445,0.568,2.683-1.559,4.199-1.545c0.722,0.007,1.453,0.509,2.137,0.252c0.235-0.088,0.445-0.263,0.69-0.309
								c0.303-0.057,0.607,0.093,0.908,0.173c1.442,0.385,3.046-1.235,3.406-2.807C687.135,331.704,685.951,329.832,684.77,328.714z
								"/>
							<path style="opacity:0.8;fill:#92E3A9;" d="M684.77,328.714c-0.766-0.725-1.62-1.387-2.584-1.597
								c-1.113-0.242-2.251,0.145-3.265,0.699c-0.305,0.166-0.612,0.356-0.823,0.66c-0.293,0.421-0.379,1.03-0.747,1.362
								c-0.535,0.482-1.57,0.326-1.691,1.105c-0.057,0.367,0.181,0.734,0.473,0.897c0.292,0.164,0.626,0.173,0.948,0.178
								c0.057,0.268-0.153,0.511-0.373,0.606c-0.219,0.095-0.466,0.109-0.669,0.245c-0.406,0.271-0.473,0.995-0.187,1.438
								c0.286,0.443,0.827,0.597,1.281,0.455c-0.615,0.456-1.23,0.911-1.845,1.367c-0.236,0.175-0.492,0.383-0.546,0.704
								c-0.072,0.429,0.267,0.829,0.626,0.97c1.445,0.568,2.683-1.559,4.199-1.545c0.722,0.007,1.453,0.509,2.137,0.252
								c0.235-0.088,0.445-0.263,0.69-0.309c0.303-0.057,0.607,0.093,0.908,0.173c1.442,0.385,3.046-1.235,3.406-2.807
								C687.135,331.704,685.951,329.832,684.77,328.714z"/>
						</g>
						<g>
							<path style="fill:#92E3A9;" d="M673.585,339.348c-0.271,0.22-0.502,0.582-0.443,0.966c0.047,0.303,0.262,0.536,0.486,0.705
								c0.312,0.236,0.718,0.396,1.045,0.205c0.21-0.123,0.348-0.372,0.414-0.636c0.147-0.587-0.023-1.027-0.068-1.584
								C674.521,338.895,673.996,339.014,673.585,339.348z"/>
							<path style="opacity:0.8;fill:#92E3A9;" d="M673.585,339.348c-0.271,0.22-0.502,0.582-0.443,0.966
								c0.047,0.303,0.262,0.536,0.486,0.705c0.312,0.236,0.718,0.396,1.045,0.205c0.21-0.123,0.348-0.372,0.414-0.636
								c0.147-0.587-0.023-1.027-0.068-1.584C674.521,338.895,673.996,339.014,673.585,339.348z"/>
						</g>
					</g>
					<path style="fill:#92E3A9;" d="M672.591,335.897c-0.162-0.075-0.345,0.134-0.311,0.332c0.034,0.198,0.232,0.323,0.401,0.285
						c0.169-0.038,0.3-0.204,0.356-0.393c-0.088-0.069-0.175-0.139-0.263-0.208L672.591,335.897z"/>
					<path style="fill:#92E3A9;" d="M674.483,333.886c-0.131,0.116-0.329,0.11-0.438,0.253c-0.117,0.154-0.041,0.444,0.132,0.501
						c-0.047,0.162-0.187,0.254-0.287,0.378c-0.1,0.124-0.147,0.355-0.022,0.449c0.099,0.075,0.227,0.003,0.326-0.069
						c0.133-0.097,0.267-0.193,0.4-0.29c0.095-0.069,0.197-0.147,0.235-0.27c0.038-0.123-0.03-0.297-0.144-0.293
						c0.07-0.091,0.14-0.182,0.21-0.273c-0.067-0.138-0.186-0.241-0.318-0.276c-0.078-0.02-0.189-0.108-0.127-0.164L674.483,333.886
						z"/>
				</g>
				<path style="fill:#92E3A9;" d="M665.445,380.062c-0.443-0.417-1.19-0.215-1.436,0.37c-0.246,0.586,0.048,1.389,0.578,1.628
					c0.476,0.214,1.052-0.024,1.329-0.511c0.277-0.487,0.257-1.169-0.014-1.673c-0.107-0.2-0.463-0.272-0.418-0.043L665.445,380.062
					z"/>
				<path style="fill:#92E3A9;" d="M668.242,378.02c-0.146-0.137-0.392-0.071-0.473,0.122c-0.081,0.193,0.016,0.458,0.19,0.537
					c0.157,0.071,0.347-0.008,0.438-0.169c0.091-0.16,0.085-0.385-0.004-0.552c-0.035-0.066-0.153-0.09-0.138-0.014L668.242,378.02z
					"/>
			</g>
		</g>
	</g>
	<g>
		
			<rect x="80.996" y="183.261" transform="matrix(-1 -1.224647e-16 1.224647e-16 -1 169.0834 591.5411)" style="fill:#FFFFFF;stroke:#263238;stroke-linecap:round;stroke-linejoin:round;" width="7.091" height="225.019"/>
		<polygon style="fill:#FFFFFF;stroke:#263238;stroke-linecap:round;stroke-linejoin:round;" points="105.082,408.28 
			110.173,408.28 101.289,188.997 96.198,188.997 		"/>
		<polygon style="fill:#FFFFFF;stroke:#263238;stroke-linecap:round;stroke-linejoin:round;" points="61.994,408.28 56.903,408.28 
			65.788,188.998 70.879,188.998 		"/>
		<g>
			<polygon style="fill:#FFFFFF;stroke:#263238;stroke-linecap:round;stroke-linejoin:round;" points="51.005,286.973 
				117.462,286.973 111.064,195.47 44.607,195.47 			"/>
			<polygon style="fill:#BFBFBF;stroke:#263238;stroke-linecap:round;stroke-linejoin:round;" points="111.698,204.54 
				101.993,195.47 111.064,195.47 			"/>
			<polygon style="fill:#BFBFBF;stroke:#263238;stroke-linecap:round;stroke-linejoin:round;" points="53.677,195.47 45.241,204.54 
				44.607,195.47 			"/>
			<polygon style="fill:#BFBFBF;stroke:#263238;stroke-linecap:round;stroke-linejoin:round;" points="117.462,286.973 
				108.391,286.973 116.828,277.902 			"/>
			<polygon style="fill:#BFBFBF;stroke:#263238;stroke-linecap:round;stroke-linejoin:round;" points="50.371,277.902 
				60.076,286.973 51.005,286.973 			"/>
		</g>
		
			<rect x="41.349" y="285.9" transform="matrix(-1 -1.224647e-16 1.224647e-16 -1 167.6413 583.8627)" style="fill:#263238;stroke:#263238;stroke-linecap:round;stroke-linejoin:round;" width="84.942" height="12.062"/>
		
			<rect x="57.208" y="326.636" transform="matrix(-1 -1.224647e-16 1.224647e-16 -1 167.266 659.0232)" style="fill:#263238;stroke:#263238;stroke-linecap:round;stroke-linejoin:round;" width="52.851" height="5.752"/>
	</g>
	<g>
		<g>
			<g>
				<g>
					<g>
						<path style="fill:none;stroke:#263238;stroke-linecap:round;stroke-linejoin:round;stroke-miterlimit:10;" d="
							M108.036,282.407c-0.007,0.007-0.007,0.014,0,0.022c0.007,0.029,0.014,0.058,0.022,0.087c0.029,0.145,0.058,0.297,0.094,0.456
							c0.268,1.282,0.579,3.057,0.804,5.294c0.152,1.528,0.268,3.267,0.304,5.208c0.073,3.745-0.138,8.235-0.92,13.37
							c-0.174,1.173-0.384,2.383-0.63,3.629c-0.391,2.028-0.876,4.15-1.463,6.352c-0.268,1.021-0.565,2.064-0.884,3.122
							c-0.13,0.427-0.254,0.855-0.377,1.282c-0.145,0.522-0.29,1.043-0.427,1.565c0,0.007-0.007,0.014-0.007,0.022
							c-0.927,3.534-1.644,7.163-2.194,10.763c-0.681,4.512-1.101,8.988-1.333,13.233c-0.311,5.649-0.297,10.871-0.159,15.188
							c0,0.073,0,0.138,0.007,0.21c0.145,4.375,0.413,7.793,0.601,9.749c0.101,1.137,0.174,1.782,0.181,1.825"/>
					</g>
					<g>
						<g>
							<path style="fill:#FFFFFF;stroke:#263238;stroke-linecap:round;stroke-linejoin:round;stroke-miterlimit:10;" d="
								M108.058,282.516c-0.007-0.014-0.007-0.014-0.014-0.014c-0.007-0.014-0.007-0.014-0.015-0.014
								c-0.572-0.507-1.202-0.942-1.869-1.304c-0.731-0.384-1.514-0.688-2.325-0.876"/>
						</g>
					</g>
					<g>
						
							<line style="fill:none;stroke:#263238;stroke-linecap:round;stroke-linejoin:round;stroke-miterlimit:10;" x1="108.954" y1="288.267" x2="111.08" y2="286.342"/>
					</g>
					<g>
						<path style="fill:none;stroke:#263238;stroke-linecap:round;stroke-linejoin:round;stroke-miterlimit:10;" d="
							M106.247,316.832v-0.007c-0.109-0.558-0.275-1.108-0.5-1.637c-0.312-0.775-0.739-1.499-1.267-2.151
							c-0.391-0.485-0.84-0.927-1.333-1.318"/>
					</g>
					<g>
						<path style="fill:none;stroke:#263238;stroke-linecap:round;stroke-linejoin:round;stroke-miterlimit:10;" d="
							M104.549,322.817c0.586-1.488,1.829-2.715,3.325-3.282"/>
					</g>
					<g>
						<path style="fill:#FFFFFF;stroke:#263238;stroke-linecap:round;stroke-linejoin:round;stroke-miterlimit:10;" d="
							M100.855,352.522c0.711-0.858,1.249-4.124,1.538-5.879c0.069-0.42,0.128-0.777,0.177-1.036"/>
					</g>
				</g>
				<path style="fill:none;stroke:#263238;stroke-linecap:round;stroke-linejoin:round;stroke-miterlimit:10;" d="M107.707,310.503
					c0,0,0.378-12.962-6.741-17.66"/>
				<g>
					<path style="fill:#92E3A9;" d="M108.348,338.319c0.934,3.022-5.579,8.776-5.579,8.776s-8.623-1.078-9.557-4.1
						c-0.934-3.022,1.25-7.968,5.43-9.259C102.822,332.445,107.414,335.297,108.348,338.319z"/>
					<path style="fill:#92E3A9;" d="M115.575,301.641c-0.826,3.21-6.994,5.49-6.994,5.49s-4.3-4.975-3.474-8.185
						c0.826-3.21,4.236-6.747,7.126-6.002C115.124,293.688,116.401,298.431,115.575,301.641z"/>
					<path style="fill:#92E3A9;" d="M99.317,311.922c0.819,0.608,1.663,1.228,2.647,1.495c0.984,0.267,2.154,0.104,2.822-0.666
						c0.829-0.954,0.607-2.432,0.084-3.583c-1.035-2.28-4.851-6.15-7.783-5.039C92.856,305.731,97.429,310.521,99.317,311.922z"/>
					<path style="fill:#92E3A9;" d="M107.978,317.733c-0.555,0.688-1.145,1.555-0.841,2.386c0.27,0.737,1.174,1.074,1.95,0.957
						c0.775-0.117,1.45-0.577,2.094-1.024c1.494-1.037,4.557-3.214,2.602-5.25C111.75,312.686,109.148,316.283,107.978,317.733z"/>
					<path style="fill:#92E3A9;" d="M95.48,288.762c-0.639,0.071-1.287,0.499-1.396,1.132c-0.127,0.741,0.487,1.389,1.083,1.848
						c1.483,1.143,5.942,4.229,6.937,1.252C103.044,290.182,97.45,288.544,95.48,288.762z"/>
					<g>
						<path style="fill:#92E3A9;" d="M103.698,278.971c-0.92,0.087-1.838-0.246-2.76-0.188c-0.922,0.059-1.945,0.8-1.741,1.701
							c0.189,0.833,1.225,1.111,2.077,1.165c1.454,0.091,2.92-0.01,4.348-0.3c0.331-0.067,0.692-0.166,0.882-0.445
							c0.373-0.549-0.22-1.285-0.855-1.48c-0.634-0.194-1.351-0.13-1.927-0.459L103.698,278.971z"/>
					</g>
					<g>
						<path style="fill:#92E3A9;" d="M112.687,285.301c0.924,0.026,1.817-0.367,2.741-0.369c0.924-0.003,1.994,0.67,1.849,1.583
							c-0.134,0.843-1.149,1.19-1.995,1.299c-1.445,0.187-2.915,0.183-4.359-0.013c-0.335-0.045-0.702-0.12-0.91-0.386
							c-0.408-0.523,0.135-1.297,0.755-1.533c0.62-0.236,1.339-0.219,1.892-0.585L112.687,285.301z"/>
					</g>
				</g>
			</g>
			<path style="fill:none;stroke:#263238;stroke-linecap:round;stroke-linejoin:round;stroke-miterlimit:10;" d="M108.353,283.401
				c0,0-0.423-3.679,0.467-3.98"/>
			<g>
				<path style="fill:#92E3A9;" d="M107.573,279.548c0.558-1.252,1.161-2.563,2.27-3.369c1.109-0.806,2.885-0.867,3.692,0.241
					c0.903,1.238,0,3.121-1.383,3.781c-1.383,0.66-3.004,0.462-4.521,0.249c-0.012-0.225-0.025-0.451-0.037-0.676L107.573,279.548z"
					/>
			</g>
		</g>
		<g>
			<g>
				<g>
					<g>
						<path style="fill:#92E3A9;" d="M97.663,355.5c-0.069,0.116,0.553,0.703-1.494,0.793c-5.042,0.223-13.96-0.092-17.322-4.667
							c-4.8-6.532,6.228-5.964,5.145-9.57c-1.083-3.607-12.92-0.624-15.247-5.771c-2.327-5.147,6.291-4.166,5.884-6.816
							c-0.407-2.65-9.437,0.812-12.432-4.646c-2.995-5.457,4.91-2.556,3.624-4.817c-1.286-2.261-11.338-11.66-7.283-13.773
							c4.055-2.113,13.504,7.701,16.613,8.745c3.109,1.044,3.8-8.612,7.892-5.393c4.093,3.219,1.456,17.799,6.223,19.594
							c3.551,1.337,1.601-3.88,5.978-3.692C101.192,325.743,103.207,346.17,97.663,355.5z"/>
						<g style="opacity:0.1;">
							<path d="M97.663,355.5c-0.069,0.116,0.553,0.703-1.494,0.793c-5.042,0.223-13.96-0.092-17.322-4.667
								c-4.8-6.532,6.228-5.964,5.145-9.57c-1.083-3.607-12.92-0.624-15.247-5.771c-2.327-5.147,6.291-4.166,5.884-6.816
								c-0.407-2.65-9.437,0.812-12.432-4.646c-2.995-5.457,4.91-2.556,3.624-4.817c-1.286-2.261-11.338-11.66-7.283-13.773
								c4.055-2.113,13.504,7.701,16.613,8.745c3.109,1.044,3.8-8.612,7.892-5.393c4.093,3.219,1.456,17.799,6.223,19.594
								c3.551,1.337,1.601-3.88,5.978-3.692C101.192,325.743,103.207,346.17,97.663,355.5z"/>
						</g>
					</g>
					<g>
						<g>
							<g>
								<g>
									<g>
										
											<path style="fill:none;stroke:#263238;stroke-width:0.75;stroke-linecap:round;stroke-linejoin:round;stroke-miterlimit:10;" d="
											M77.634,325.532c0,0,19.578,13.37,23.847,47.475"/>
										
											<path style="fill:none;stroke:#263238;stroke-width:0.75;stroke-linecap:round;stroke-linejoin:round;stroke-miterlimit:10;" d="
											M74.641,329.709c4.727-1.017,7.618-0.083,7.618-0.083"/>
										
											<path style="fill:none;stroke:#263238;stroke-width:0.75;stroke-linecap:round;stroke-linejoin:round;stroke-miterlimit:10;" d="
											M80,315.619c0,0,5.947,7.859,5.877,18.11"/>
										
											<path style="fill:none;stroke:#263238;stroke-width:0.75;stroke-linecap:round;stroke-linejoin:round;stroke-miterlimit:10;" d="
											M91.713,342.383c0,0-4.233-3.974-9.853-1.941"/>
										
											<path style="fill:none;stroke:#263238;stroke-width:0.75;stroke-linecap:round;stroke-linejoin:round;stroke-miterlimit:10;" d="
											M94.769,348.423c0,0,2.203-5.201,0.998-12.526"/>
									</g>
								</g>
							</g>
						</g>
					</g>
				</g>
				<g>
					<g>
						<path style="fill:#92E3A9;" d="M103.639,360.745c4.148,0.079,11.232-3.773,14.014-7.521c2.822-3.803-5.117-1.443-4.302-4.429
							c0.815-2.986,10.604-0.779,12.41-5.056c1.806-4.277-5.256-3.294-4.976-5.48c0.28-2.186,7.597-1.742,9.945-6.288
							c2.349-4.546-4.087-1.999-3.077-3.884c1.01-1.884,9.076-9.815,5.701-11.468c-3.376-1.653-10.938,6.607-13.471,7.528
							c-2.533,0.922-3.126-4.783-6.422-2.054c-3.297,2.729-0.829,14.655-4.71,16.229c-2.89,1.172-1.661-4.289-4.989-2.91
							C97.938,337.825,101.954,360.713,103.639,360.745z"/>
						<g style="opacity:0.3;">
							<path style="fill:#FFFFFF;" d="M103.639,360.745c4.148,0.079,11.232-3.773,14.014-7.521c2.822-3.803-5.117-1.443-4.302-4.429
								c0.815-2.986,10.604-0.779,12.41-5.056c1.806-4.277-5.256-3.294-4.976-5.48c0.28-2.186,7.597-1.742,9.945-6.288
								c2.349-4.546-4.087-1.999-3.077-3.884c1.01-1.884,9.076-9.815,5.701-11.468c-3.376-1.653-10.938,6.607-13.471,7.528
								c-2.533,0.922-3.126-4.783-6.422-2.054c-3.297,2.729-0.829,14.655-4.71,16.229c-2.89,1.172-1.661-4.289-4.989-2.91
								C97.938,337.825,101.954,360.713,103.639,360.745z"/>
						</g>
					</g>
					<g>
						
							<path style="fill:none;stroke:#263238;stroke-width:0.75;stroke-linecap:round;stroke-linejoin:round;stroke-miterlimit:10;" d="
							M123.657,325.523c0,0-20.688,20.288-21.874,50.61"/>
						
							<path style="fill:none;stroke:#263238;stroke-width:0.75;stroke-linecap:round;stroke-linejoin:round;stroke-miterlimit:10;" d="
							M124.163,334.919c-4.693-0.092-8.387,1.622-8.676,1.73c-0.014,0.01-0.021,0.012-0.021,0.012"/>
						
							<path style="fill:none;stroke:#263238;stroke-width:0.75;stroke-linecap:round;stroke-linejoin:round;stroke-miterlimit:10;" d="
							M116.4,324.173c0,0-4.655,7.313-3.816,16.338"/>
						
							<path style="fill:none;stroke:#263238;stroke-width:0.75;stroke-linecap:round;stroke-linejoin:round;stroke-miterlimit:10;" d="
							M109.612,345.621c0,0,3.409-3.479,8.53-2.129"/>
						
							<path style="fill:none;stroke:#263238;stroke-width:0.75;stroke-linecap:round;stroke-linejoin:round;stroke-miterlimit:10;" d="
							M105.847,354.037c0,0-2.339-4.437-1.829-10.968"/>
					</g>
				</g>
			</g>
			<path style="fill:#FFFFFF;stroke:#263238;stroke-linecap:round;stroke-linejoin:round;" d="M124.157,387.645
				c0,11.583-10.053,20.957-22.456,20.957c-12.402,0-22.456-9.375-22.456-20.957c0-6.524,7.146-12.359,13.374-16.209h18.163
				C117.01,375.285,124.157,381.121,124.157,387.645z"/>
			
				<line style="fill:#FFFFFF;stroke:#263238;stroke-linecap:round;stroke-linejoin:round;" x1="115.218" y1="388.515" x2="119.139" y2="388.515"/>
			
				<line style="fill:#FFFFFF;stroke:#263238;stroke-linecap:round;stroke-linejoin:round;" x1="83.852" y1="388.515" x2="110.941" y2="388.515"/>
		</g>
	</g>
</g>
<g id="Character">
	<g>
		<g>
			<g>
				<path style="fill:#BFBFBF;stroke:#263238;stroke-linecap:round;stroke-linejoin:round;" d="M294.314,258.729
					c0.556,1.244,1.658,2.143,2.72,2.992c8.421,6.713,17.055,13.163,25.881,19.34c3.235,2.275,6.591,4.61,9.715,7.158
					c14.526,9.723,15.68,11.613,17.991,25.399c1.802,10.752,2.736,21.633,2.827,32.534c0.086,10.435,6.014,17.193,8.188,15.757
					c0,0,0.01,0.01,0.01,0c0.374-0.253,0.728-0.465,1.051-0.617c0,0,0.01,0.01,0.01,0c0.404-0.202,0.779-0.324,1.082-0.344
					c1.85-0.111,8.795,0.728,15.832,0.263c0.607-0.03,1.213-0.081,1.82-0.152c1.031-0.101,2.042-0.232,3.043-0.405
					c0.991-0.182,1.961-0.384,2.891-0.647c5.277-1.466,12.617-4.57,19.613-7.572l0.01-0.01c1.072-0.465,2.133-0.92,3.184-1.375
					c0.526-0.233,1.051-0.455,1.567-0.677c0.485-0.212,0.96-0.414,1.436-0.617c0.344-0.152,0.688-0.293,1.021-0.435
					c0.334-0.152,0.667-0.283,0.991-0.425c0.01,0,0.01,0,0.02,0.01c1.648-0.698,3.205-1.335,4.63-1.88
					c0.667-0.253,1.334-0.455,1.992-0.607c0.101,1.496,0.243,3.023,0.435,4.519c0.89,7.148,2.841,13.739,6.319,14.659
					c0.071,0.03,0.152,0.051,0.233,0.061c0.303,0.05,0.617,0.091,0.92,0.091c0.101,0.01,0.192,0.01,0.283,0
					c0.748-0.01,1.506-0.172,2.265-0.435c0.01-0.01,0.02-0.01,0.03-0.01c2.952-1.072,5.813-3.862,7.339-6.854
					c0.718-1.415,1.143-2.871,1.143-4.206c0-5.308,1.486-36.678,1.486-45.817c0-9.139-1.921-25.112-6.379-31.037
					c-2.699-3.589-5.126-5.429-6.622-6.329c-3.538-2.993-7.734-5.156-11.262-6.298c-4.873-1.577-15.741-5.641-23.313-8.502v0.081
					c3.357,1.304,7.421,2.881,11.444,4.418c-2.902,4.974-9.19,12.849-20.361,13.8c-10.565,0.889-17.106-8.664-20.442-15.63
					c-0.289,0.102-18.671-3.378-22.939-3.189c-13.853,0.614-25.173-6.909-30.286-9.884c-6.636-3.861-15.268-0.729-17.478,6.623
					c-0.015,0.051-0.03,0.101-0.045,0.151C294.021,254.625,293.445,256.839,294.314,258.729z"/>
				<g>
					<path style="fill:#263238;stroke:#263238;stroke-linecap:round;stroke-linejoin:round;" d="M372.192,181.177
						c-3.974,1.997-18.739,16.044-20.979,21.225c-2.241,5.181-2.481,11.528,0.647,16.227c1.01,1.518,2.367,2.89,2.781,4.666
						c0.604,2.595-0.967,5.137-2.344,7.418c-1.377,2.281-2.646,5.111-1.478,7.505c0.891,1.825,3.06,2.991,3.345,5.002
						c0.256,1.809-1.133,3.376-1.941,5.015c-1.444,2.926-0.96,6.696,1.175,9.164c4.728,0.834,9.595,1.667,14.293,0.68
						c3.236-0.68,7.835-2.929,7.835-3.048c0-3.376,0.714-9.712-0.832-12.713c-1.545-3.001-3.898-5.069-5.284-8.147
						c-1.753-3.892-2.156-8.255-2.165-12.523c-0.008-3.249,0.214-6.569,1.455-9.572c1.77-4.284,5.465-7.517,9.497-9.804
						c4.032-2.287,8.46-3.766,12.725-5.581c6.184,4.453,11.035,10.732,13.782,17.841c-0.939-0.899,0.158-2.666,1.458-2.671
						c1.3-0.005,2.344,1.088,2.963,2.231c2.447,4.521,0.056,10.945-4.752,12.765c-1.287,5.916-6.471,10.25-8.453,15.971
						c-1.017,2.936-1.14,6.095-1.253,9.201c-0.052,1.44-0.065,3.013,0.819,4.151c0.633,0.815,1.619,1.259,2.572,1.653
						c5.402,2.236,11.052,3.874,16.812,4.876c2.472-4.275,2.568-9.829,0.245-14.187c-0.576-1.08-1.307-2.154-1.338-3.377
						c-0.045-1.826,1.454-3.276,2.85-4.452c1.31-1.104,2.664-2.224,3.52-3.708c0.856-1.485,1.117-3.442,0.187-4.882
						c-1.218-1.886-4.073-2.395-4.899-4.482c-0.775-1.959,0.687-4.017,1.941-5.71c3.734-5.042,5.44-6.408,4.842-12.653
						c-0.494-5.157-13.777-25.113-18.293-27.652c-2.36-1.327-4.859-2.608-7.563-2.748c-2.703-0.14-8.741,0.743-9.554,0.401
						c-1.138-0.478-2.333-0.374-3.545-0.436C379.371,178.62,375.681,179.424,372.192,181.177z"/>
					<g>
						<g>
							<path style="fill:#FFFFFF;stroke:#263238;stroke-linecap:round;stroke-linejoin:round;" d="M365.345,258.911
								c0,0.01,0.01,0.01,0.01,0.02c0.273-0.101,0.546-0.202,0.829-0.293L365.345,258.911z"/>
							<path style="fill:#FFFFFF;stroke:#263238;stroke-linecap:round;stroke-linejoin:round;" d="M386.574,284.346h-26.376
								c0,0-11.643,32.317-12.832,33.743c-0.722,0.866,0.928,5.254,2.334,8.564c2.171,5.111,3.346,10.592,3.369,16.145
								c0,0.08,0.001,0.16,0.001,0.241c0,8.079,1.188,21.624,1.188,21.624l69.624-0.475l-1.426-31.604l-1.188-15.446l-10.931-33.743
								L386.574,284.346z"/>
							<path style="fill:#FFFFFF;stroke:#263238;stroke-linecap:round;stroke-linejoin:round;" d="M348.308,366.274
								c-0.009,0.07,0.001,0.143,0.002,0.214c0.086,0.736,1.022,1.135,1.841,0.805c0.884-0.362,2.578-3.218,2.578-3.218l1.621-1.305
								l1.084-0.866c-0.001,0.01-0.001,0.01-0.013,0.019c-0.187,0.332-1.688,2.968-1.266,4.32c0.028,0.095,0.058,0.181,0.109,0.259
								c0.165,0.297,0.363,0.568,0.596,0.813c0.677,0.742,1.611,1.233,2.623,1.367l0.05,0.007c0.776,0.072,3.031,0.677,5.008,1.071
								c0.07,0.009,0.13,0.017,0.199,0.037l0.01,0.001c0.688,0.121,1.336,0.228,1.872,0.268c1.633-0.008,3.254-0.313,4.763-0.929
								c0,0,6.617-0.143,9.667-0.994c0.201-0.055,0.394-0.121,0.589-0.208c0.184-0.078,0.367-0.155,0.531-0.236
								c0.347-0.158,0.678-0.349,0.982-0.563c1.633-1.089,2.77-2.591,3.059-3.001c0.038-0.056,0.051-0.075,0.051-0.075l0.001-0.01
								c0,0,7.387,0.663,17.37,1.21c3.635,0.196,7.617,0.387,11.711,0.511c6.328,0.196,11.464,0.917,15.577,0.891
								c0.103-0.007,0.194-0.005,0.297-0.012c0.808-0.015,1.578-0.056,2.302-0.134c0.011-0.009,0.021-0.008,0.031-0.006
								c3.68-0.451,6.357-1.952,8.176-5.831c0.327-0.701,0.626-1.488,0.904-2.358l-2.415-5.867c0,0-1.909-2.14-5.074-3.885
								c-2.488-1.39-5.765-2.518-9.504-2.157c-0.672,0.064-1.359,0.177-2.054,0.34c-1.485,0.354-3.112,0.781-4.837,1.256
								c-0.348,0.086-0.697,0.183-1.057,0.278c-0.349,0.096-0.709,0.192-1.069,0.297c-0.498,0.138-0.995,0.276-1.504,0.423
								c-8.653,2.423-18.748,5.42-25.429,6.35c-1.912,0.267-3.96,0.332-6.021,0.263c-0.611-0.009-1.219-0.039-1.824-0.089
								c-7.037-0.463-13.812-2.207-15.66-2.34c-1.99-0.141-6.87,3.516-10.076,5.773c-0.878,0.618-1.639,1.129-2.167,1.426
								c-0.077,0.041-0.155,0.091-0.234,0.152c-0.065,0.032-0.121,0.066-0.189,0.118c-1.237,0.866-2.094,2.333-2.614,3.57
								c0,0-0.01-0.001-0.001,0.01c-0.226,0.551-0.385,1.061-0.487,1.445C348.353,365.933,348.315,366.142,348.308,366.274z"/>
							<g>
								
									<rect x="356.518" y="344.303" transform="matrix(0.5623 -0.8269 0.8269 0.5623 -139.2536 454.0349)" style="fill:#263238;stroke:#263238;stroke-linecap:round;stroke-linejoin:round;" width="5.517" height="28.52"/>
								<polygon style="fill:#FFFFFF;stroke:#263238;stroke-linecap:round;stroke-linejoin:round;" points="349.036,348.264 
									345.933,352.826 340.973,346.488 343.92,347.134 								"/>
								
									<line style="fill:none;stroke:#FFFFFF;stroke-linecap:round;stroke-linejoin:round;" x1="349.596" y1="352.35" x2="368.107" y2="364.938"/>
								<polygon style="fill:#263238;" points="340.974,346.487 342.792,348.79 343.956,347.078 								"/>
							</g>
							<path style="fill:#FFFFFF;stroke:#263238;stroke-linecap:round;stroke-linejoin:round;" d="M348.308,366.274
								c-0.009,0.07,0.001,0.143,0.002,0.214c0.119,0.72,1.044,1.128,1.845,0.775c0.877-0.384,2.578-3.218,2.578-3.218l1.617-1.275
								l1.071-0.847l0.021-0.007c-0.159,0.275-1.706,2.946-1.287,4.327c0.028,0.095,0.058,0.181,0.109,0.259
								c0.165,0.297,0.363,0.568,0.596,0.813c0.689,0.724,1.615,1.203,2.627,1.337c0.01,0.001,0.01,0.001,0.02,0.003l0.05,0.007
								c0.806,0.076,3.032,0.667,4.988,1.069c0.09,0.012,0.169,0.033,0.239,0.042c0.688,0.122,1.336,0.228,1.861,0.267
								c1.633-0.008,3.254-0.313,4.763-0.929c0,0,6.618-0.153,9.667-0.994c0.191-0.056,0.382-0.112,0.564-0.18
								c0.184-0.078,0.367-0.155,0.531-0.236c0.349-0.168,0.68-0.359,0.982-0.563c1.633-1.089,2.77-2.591,3.059-3.001
								c0.025-0.037,0.038-0.056,0.051-0.075l0.001-0.01c0.023-0.017,0.024-0.027,0.024-0.027s7.176,0.645,16.935,1.183
								c3.755,0.212,7.891,0.403,12.146,0.538c5.798,0.187,10.559,0.664,14.447,0.567c0.41-0.017,0.82-0.034,1.211-0.054
								c0.484-0.038,0.949-0.078,1.404-0.13c0.479-1.844,0.773-4.221,0.192-6.685c-0.697-2.978-2.671-6.085-7.146-8.493
								c-0.02-0.003-0.039-0.015-0.057-0.028c-2.155-1.132-4.391-2.112-6.671-2.913c-0.009-0.011-0.009-0.011-0.019-0.013
								c-0.339,0.098-0.687,0.184-1.038,0.291c-0.349,0.096-0.709,0.192-1.069,0.297c-0.498,0.138-0.995,0.276-1.504,0.423
								c-8.667,2.452-18.743,5.462-25.42,6.362c-1.922,0.266-3.97,0.331-6.03,0.252c-0.611-0.009-1.219-0.039-1.824-0.089
								c-7.038-0.453-13.804-2.186-15.652-2.328c-1.989-0.151-6.86,3.517-10.054,5.766c-0.899,0.625-1.661,1.146-2.199,1.432
								c-0.077,0.041-0.155,0.092-0.233,0.142c-0.065,0.032-0.121,0.066-0.189,0.118c-1.244,0.845-2.101,2.312-2.614,3.57
								c0,0-0.01-0.001-0.001,0.01c-0.235,0.54-0.394,1.049-0.487,1.445C348.353,365.933,348.315,366.142,348.308,366.274z"/>
							<path style="fill:#FFFFFF;stroke:#263238;stroke-linecap:round;stroke-linejoin:round;" d="M370.619,364.327
								c0,0-4.382,1.592-6.122,2.105c-1.741,0.514-1.977,3.532-1.977,3.532"/>
							<path style="fill:#FFFFFF;stroke:#263238;stroke-linecap:round;stroke-linejoin:round;" d="M366.614,360.839
								c0,0-6.891,3.748-8.251,4.934c-0.818,0.742-1.151,1.88-0.859,2.946"/>
							<path style="fill:#FFFFFF;stroke:#263238;stroke-linecap:round;stroke-linejoin:round;" d="M355.451,361.889
								c0,0,6.842-5.457,7.658-5.614"/>
							<path style="fill:#FFFFFF;stroke:#263238;stroke-linecap:round;stroke-linejoin:round;" d="M365.364,258.935
								c3.319,6.96,9.861,16.518,20.424,15.627c11.189-0.948,17.466-8.819,20.368-13.806c-4.021-1.536-8.079-3.11-11.436-4.419
								v-0.076c0-3.395,0.114-7.472,0.474-11.511c0.076-0.872,0.19-1.764,0.285-2.655c0.095-0.702,0.19-1.403,0.303-2.086h-21.24
								c0,0,0.133,0.853,0.285,2.257c0,0.019,0,0.038,0.019,0.057c0.133,1.252,0.303,2.939,0.417,4.836
								c0.171,2.522,0.285,5.405,0.208,8.269c-1.024,0.36-2.067,0.739-3.11,1.138c-0.664,0.228-1.327,0.474-2.01,0.702
								c-0.797,0.285-1.593,0.55-2.428,0.815l-1.745,0.55C365.895,258.727,365.629,258.821,365.364,258.935z"/>
							<path style="fill:#263238;" d="M395.482,242.099c0,0-3.962,10.298-9.722,12.064c-5.76,1.766-10.922-11.831-10.922-11.831
								s8.104,8.671,11.121,7.239C388.975,248.137,395.482,242.099,395.482,242.099"/>
							<path style="fill:#FFFFFF;stroke:#263238;stroke-linecap:round;stroke-linejoin:round;" d="M403.858,213.865
								c0,0,2.734-5.27,5.591-0.265c2.067,3.623-0.91,9.404-2.184,11.537c-0.846,1.273-2.305,2.001-3.831,1.911L403.858,213.865z"/>
							<path style="fill:#FFFFFF;stroke:#263238;stroke-linecap:round;stroke-linejoin:round;" d="M368.095,232.99
								c0.506,1.628,3.336,5.651,6.743,9.341c0.536,0.576,1.082,1.152,1.638,1.698c3.397,3.367,7.077,6.025,9.483,5.54
								c2.093-0.415,4.832-2.578,7.532-5.328c0.667-0.677,1.335-1.405,1.992-2.143v-0.01c3.387-3.842,6.389-8.189,7.471-10.585
								c0.485-1.082,0.829-2.649,1.072-4.469c0.566-4.286,0.536-9.948,0.475-13.79c-0.03-1.618-0.061-2.911-0.061-3.639
								c0-3.195-11.899-14.245-11.899-14.245c-0.253-0.111-0.596-0.142-1.011-0.101c-1.324,0.111-3.427,0.9-5.843,2.083
								c-7.218,3.508-17.277,10.464-18.016,13.112C366.609,214.277,367.023,229.553,368.095,232.99z"/>
							<g>
								<g>
									<path style="fill:none;stroke:#263238;stroke-linecap:round;stroke-linejoin:round;" d="M382.654,220.307
										c0,3.642-2.952,6.594-6.594,6.594c-3.642,0-6.594-2.952-6.594-6.594s2.952-6.594,6.594-6.594
										C379.701,213.713,382.654,216.665,382.654,220.307z"/>
									<path style="fill:none;stroke:#263238;stroke-linecap:round;stroke-linejoin:round;" d="M399.762,220.307
										c0,3.642-2.952,6.594-6.594,6.594c-3.642,0-6.594-2.952-6.594-6.594s2.952-6.594,6.594-6.594
										C396.81,213.713,399.762,216.665,399.762,220.307z"/>
									<path style="fill:none;stroke:#263238;stroke-linecap:round;stroke-linejoin:round;" d="M380.979,220.744
										c0.842-1.124,2.264-1.787,3.667-1.709c1.402,0.077,2.743,0.893,3.456,2.103"/>
								</g>
								<polyline style="fill:none;stroke:#263238;stroke-linecap:round;stroke-linejoin:round;" points="399.762,219.416 
									402.436,219.416 406.178,211.04 								"/>
								
									<line style="fill:none;stroke:#263238;stroke-linecap:round;stroke-linejoin:round;" x1="369.465" y1="219.594" x2="367.327" y2="219.594"/>
							</g>
							<path style="fill:#263238;" d="M391.746,218.324c0,1.284,0.475,2.335,1.011,2.335c0.536,0,1.062-1.011,1.062-2.335
								c0-1.324-0.475-2.345-1.062-2.345C392.171,215.978,391.746,217.049,391.746,218.324z"/>
							<path style="fill:#263238;" d="M378.139,215.988c-0.586,0-1.062,1.046-1.062,2.335s0.475,2.335,1.062,2.335
								c0.586,0,1.061-1.046,1.061-2.335S378.725,215.988,378.139,215.988z"/>
							<path style="fill:none;stroke:#263238;stroke-linecap:round;stroke-linejoin:round;" d="M398.55,212.581
								c0,0-1.921-3.619-8.3-2.548"/>
							<path style="fill:none;stroke:#263238;stroke-linecap:round;stroke-linejoin:round;" d="M372.129,212.581
								c0,0,1.911-3.619,8.29-2.548"/>
							<path style="fill:none;stroke:#263238;stroke-linecap:round;stroke-linejoin:round;" d="M384.086,227.265
								c-1.43-0.163-2.596-1.148-2.79-2.356c0,0,3.556-5.524,2.477-10.856"/>
							<g>
								<path style="fill:none;stroke:#FFFFFF;stroke-linecap:round;stroke-linejoin:round;" d="M406.169,201.192
									c1.47,1.997,2.579,4.237,3.277,6.619"/>
								<path style="fill:none;stroke:#FFFFFF;stroke-linecap:round;stroke-linejoin:round;" d="M390.883,186.577
									c0,0,2.028,3.371,10.923,10.215c0.571,0.428,1.116,0.882,1.636,1.359"/>
							</g>
						</g>
						<path style="fill:#263238;stroke:#263238;stroke-linecap:round;stroke-linejoin:round;" d="M419.538,293.61
							c1.196,17.383,2.391,34.766,3.587,52.15c-0.007-0.446-0.014-0.892-0.02-1.338"/>
						<path style="fill:#FFFFFF;stroke:#263238;stroke-linecap:round;stroke-linejoin:round;" d="M304.13,236.272
							c-3.246-1.401-7.162-0.782-10.107,1.175c-2.945,1.956-4.966,5.109-6.011,8.487c-1.057,3.417-1.152,7.233,0.328,10.489
							c1.481,3.256,4.705,5.811,8.279,5.937c2.628,0.092,5.16-1.079,7.269-2.649C310.761,254.592,314.182,240.61,304.13,236.272z"/>
					</g>
					<g>
						<g>
							<path style="fill:#FFFFFF;stroke:#263238;stroke-linecap:round;stroke-linejoin:round;" d="M285.199,175.512
								c0.784,1.064,0.781,1.844,0.646,3.105c-0.006,0.052-0.011,0.093-0.018,0.12c-0.692,3.098,0.839,11.199,4.815,12.694
								c-1.427,4.799-5.443,39.175-4.662,52.399c0.212,3.769,1.125,8.172,5.302,9.731c6.953,2.579,13.055-3.741,12.932-8.915
								c-0.208-8.81-1.18-12.881-1.363-21.677c-0.178-8.584,0.762-20.802,0.606-34.034c7.108-3.767,6.449-11.182,6.408-12.256
								c-0.194-5.06,1.29-10.413,1.341-11.891c-1.206-2.348-2.931-0.18-3.856,1.343c-0.654,1.091-1.321,3.563-1.357,6.035
								c-0.023,1.577-1.68,1.591-1.68,1.591c-2.689-0.367-2.267-2.311-2.22-3.929c0.083-5.67,0.192-11.486,0.28-17.432
								c0.015-0.998-0.25-3.755-1.239-3.852c-1.085-0.096-2.443,0.697-2.607,3.958c-0.181,3.601-0.241,14.342-0.241,14.342
								c-0.186,0.156-0.465,0.289-0.697,0.2c-0.231-0.111-0.323-0.378-0.392-0.601c-1.32-5.346-2.695-10.821-4.079-16.43
								c-0.172-0.672-1.183-2.059-1.885-2.06c-1.723-0.001-1.744,1.996-1.832,2.57c-0.557,3.016,3.754,15.049,4.462,17.741
								c0.117,0.464-0.285,0.53-1.101,0.197l-5.903-12.663c-1.013-2.487-1.391-3.446-2.479-3.907
								c-0.851-0.36-1.587,0.364-1.682,0.412c-0.118,0.047-0.211,0.166-0.279,0.285c-0.612,1.134,0.077,2.709,0.492,3.946
								c0.412,1.208,5.178,10.711,6.267,14.405c0.603,2.043-0.813,3.084-2.056,1.298c-1.331-1.913-1.975-3.353-3.909-6.14
								c-0.403-0.581-1.203-1.275-1.928-1.122C277.68,165.738,282.568,171.942,285.199,175.512z"/>
							<path style="fill:#FFFFFF;stroke:#263238;stroke-linecap:round;stroke-linejoin:round;" d="M301.908,174.616
								c-2.423,1.172-4.391,3.127-5.477,5.427c-1.075,2.276-1.276,4.866-0.574,7.207"/>
							<path style="fill:#FFFFFF;stroke:#263238;stroke-linecap:round;stroke-linejoin:round;" d="M287.771,175.803
								c3.827-0.974,7.498-2.551,10.834-4.661"/>
						</g>
					</g>
					<g>
						<path style="fill:none;stroke:#263238;stroke-linecap:round;stroke-linejoin:round;" d="M379.555,232.103
							c1.054,0.214,2.11,0.423,3.177,0.557c3.554,0.448,7.556-0.111,9.943-2.782c-0.183,2.399-1.871,11.444-6.729,11.682
							C380.839,241.811,379.555,232.103,379.555,232.103z"/>
					</g>
					<path style="fill:none;stroke:#FFFFFF;stroke-linecap:round;stroke-linejoin:round;" d="M384.309,187.066
						c-2.087,4.761-5.482,8.94-9.715,11.957c-3.087,2.201-6.61,3.798-9.439,6.323c-3.732,3.331-6.055,8.642-4.645,13.442"/>
					<path style="fill:none;stroke:#263238;stroke-linecap:round;stroke-linejoin:round;" d="M348.984,260.402
						c0,0,5.276,3.69,6.491,11.338c0.609,3.836,0.208,11.893,0.208,11.893"/>
				</g>
			</g>
			<g>
				<g>
					<path style="fill:#FFFFFF;stroke:#263238;stroke-linecap:round;stroke-linejoin:round;" d="M392.172,175.92
						c-8.418-0.309-17.991-2.606-35.396,8.234c-12.07,7.517,5.013,12.33,8.64,12.38c3.626,0.051,8.239-2.324,11.788-2.498
						c7.024-0.343,14.639,0.724,21.324,2.99c4.282,1.451,8.491,3.441,13.123,3.683c6.107,0.319,9.498-5.566,10.281-8.953
						C424.17,182.068,409.664,176.561,392.172,175.92z"/>
					<path style="fill:none;stroke:#263238;stroke-linecap:round;stroke-linejoin:round;" d="M375.281,194.08
						c10.772-1.935,22.07-0.856,32.28,3.085"/>
				</g>
				<polygon style="fill:#FFFFFF;stroke:#263238;stroke-linecap:round;stroke-linejoin:round;" points="389.782,177.891 
					391.564,169.693 395.485,170.049 				"/>
			</g>
			<path style="fill:#FFFFFF;stroke:#263238;stroke-linecap:round;stroke-linejoin:round;" d="M359.723,257.78v37.841l4.04,5.121
				l2.852-6.259l-1.25-35.263C365.364,259.22,362.574,256.642,359.723,257.78z"/>
			<path style="fill:#FFFFFF;stroke:#263238;stroke-linecap:round;stroke-linejoin:round;" d="M405.346,259.772l-1.426,34.427
				l3.089,5.406l3.327-6.259l0.475-32.15C410.812,261.195,407.485,257.496,405.346,259.772z"/>
			<path style="fill:none;stroke:#263238;stroke-linecap:round;stroke-linejoin:round;" d="M421.332,321.504
				c-1.202,6.706-1.719,13.535-1.542,20.346"/>
			<circle style="fill:none;stroke:#263238;stroke-linecap:round;stroke-linejoin:round;" cx="362.584" cy="294.129" r="1.96"/>
			<circle style="fill:none;stroke:#263238;stroke-linecap:round;stroke-linejoin:round;" cx="407.247" cy="293.376" r="1.96"/>
			<g>
				
					<rect x="382.798" y="298.893" transform="matrix(-0.9936 -0.1127 0.1127 -0.9936 730.8134 672.2896)" style="fill:#BFBFBF;stroke:#263238;stroke-linecap:round;stroke-linejoin:round;" width="3.208" height="33.206"/>
				<g>
					<polygon style="fill:#263238;stroke:#263238;stroke-linecap:round;stroke-linejoin:round;" points="387.527,302.175 
						389.887,296.594 383.276,295.779 384.339,301.813 					"/>
				</g>
				<polygon style="fill:#FFFFFF;stroke:#263238;stroke-linecap:round;stroke-linejoin:round;" points="383.276,295.779 
					388.713,287.317 389.887,296.594 				"/>
			</g>
			<g>
				<g>
					<path style="fill:#263238;stroke:#263238;stroke-linecap:round;stroke-linejoin:round;" d="M373.518,299.881
						c0.155-0.039,2.777-1.673,0.968-6.632c-1.808-4.959-3.507-4.186-4.535-7.161c0,0-1.438,3.448-0.641,8.517
						C370.107,299.674,372.91,300.032,373.518,299.881z"/>
					<g>
						<path style="fill:#FFFFFF;stroke:#263238;stroke-linecap:round;stroke-linejoin:round;" d="M374.563,315.752
							c1.67,6.723,7.675,25.931,9.109,25.574c1.434-0.356-2.246-20.142-3.916-26.864c-1.67-6.723-4.186-11.884-5.62-11.528
							C372.702,303.291,372.893,309.029,374.563,315.752z"/>
						<path style="fill:#BFBFBF;stroke:#263238;stroke-linecap:round;stroke-linejoin:round;" d="M374.563,315.752
							c1.67,6.723,7.675,25.931,9.109,25.574c1.434-0.356-2.246-20.142-3.916-26.864c-1.67-6.723-4.186-11.884-5.62-11.528
							C372.702,303.291,372.893,309.029,374.563,315.752z"/>
					</g>
					<path style="fill:#FFFFFF;stroke:#263238;stroke-linecap:round;stroke-linejoin:round;" d="M373.959,305.647l1.601-0.398
						c0.434-0.108,0.699-0.547,0.591-0.981l-1.437-5.785l-3.173,0.788l1.437,5.785C373.086,305.491,373.525,305.755,373.959,305.647
						z"/>
					<path style="opacity:0.5;fill:#FFFFFF;stroke:#263238;stroke-linecap:round;stroke-linejoin:round;" d="M373.959,305.647
						l1.601-0.398c0.434-0.108,0.699-0.547,0.591-0.981l-1.437-5.785l-3.173,0.788l1.437,5.785
						C373.086,305.491,373.525,305.755,373.959,305.647z"/>
					<path style="fill:#92E3A9;stroke:#263238;stroke-linecap:round;stroke-linejoin:round;" d="M369.951,286.087
						c1.029,2.975,2.727,2.202,4.535,7.161c0.197,0.54,0.333,1.034,0.434,1.497c-0.018,0.376-0.134,0.64-0.414,0.675
						c-1.142,0.143-1.795-3.874-2.604-3.778c-0.809,0.096,0.125,2.006-0.901,2.155c-1.022,0.149-0.525,1.979-1.43,2.041
						c-0.1-0.38-0.192-0.782-0.263-1.234C368.513,289.535,369.951,286.087,369.951,286.087z"/>
				</g>
			</g>
			<path style="fill:#FFFFFF;stroke:#263238;stroke-linecap:round;stroke-linejoin:round;" d="M401.307,339.713l-0.793,0.347
				c-9.163,4.009-19.608,3.882-28.672-0.347l0,0v-32.317h29.465V339.713z"/>
		</g>
		<g>
			<path style="fill:none;stroke:#263238;stroke-linecap:round;stroke-linejoin:round;" d="M394.911,221.555
				c0.059,0,0.119,0,0.178,0"/>
			<path style="fill:none;stroke:#263238;stroke-linecap:round;stroke-linejoin:round;" d="M397.762,221.733
				c0.059-0.059,0.119-0.119,0.178-0.178"/>
			<path style="fill:none;stroke:#263238;stroke-linecap:round;stroke-linejoin:round;" d="M396.32,225.111
				c0.06-0.118,0.12-0.237,0.18-0.355"/>
		</g>
		<path style="fill:none;stroke:#263238;stroke-linecap:round;stroke-linejoin:round;" d="M372.139,221.376c0.059,0,0.119,0,0.178,0
			"/>
		<path style="fill:none;stroke:#263238;stroke-linecap:round;stroke-linejoin:round;" d="M374.099,225.475c0,0.059,0,0.119,0,0.178
			"/>
		<path style="fill:none;stroke:#263238;stroke-linecap:round;stroke-linejoin:round;" d="M376.238,221.911c0.119,0,0.238,0,0.357,0
			"/>
	</g>
</g>
<g id="Text">
	<g>
		<path style="fill:#FFFFFF;" d="M533.869,360.763v1.189h-2.906v4.233h3.569v1.207h-4.895v-11.898h4.895v1.206h-3.569v4.064H533.869
			z"/>
		<path style="fill:#FFFFFF;" d="M537.269,367.392h-1.189v-11.898h1.683l2.754,8.601v-8.601h1.173v11.898h-1.377l-3.043-9.621
			V367.392z"/>
		<path style="fill:#FFFFFF;" d="M545.124,367.392v-10.692h-2.193v-1.206h5.712v1.206h-2.193v10.692H545.124z"/>
		<path style="fill:#FFFFFF;" d="M554.133,360.763v1.189h-2.906v4.233h3.569v1.207H549.9v-11.898h4.896v1.206h-3.569v4.064H554.133z
			"/>
		<path style="fill:#FFFFFF;" d="M559.013,355.493c1.869,0,2.651,0.951,2.651,2.72v0.969c0,1.309-0.459,2.125-1.479,2.447
			c1.088,0.323,1.495,1.207,1.495,2.482v1.853c0,0.526,0.018,1.02,0.238,1.428h-1.343c-0.153-0.34-0.221-0.646-0.221-1.445v-1.869
			c0-1.343-0.629-1.767-1.734-1.767h-0.935v5.082h-1.326v-11.898H559.013z M558.672,361.103c1.055,0,1.684-0.34,1.684-1.632v-1.14
			c0-1.07-0.392-1.632-1.377-1.632h-1.292v4.403H558.672z"/>
	</g>
	<g>
		<path d="M126.248,250.059l-0.351,1.833h-0.937l1.742-9.101h1.469l1.742,9.101H128.9l-0.351-1.833H126.248z M126.378,249.188h2.028
			l-1.027-5.252L126.378,249.188z"/>
		<path d="M132.748,242.791c1.417,0,1.976,0.676,1.976,2.015v0.429c0,0.962-0.273,1.56-1.066,1.807
			c0.884,0.247,1.222,0.949,1.222,1.95v0.767c0,1.365-0.663,2.132-2.08,2.132h-2.093v-9.101H132.748z M132.5,246.652
			c0.806,0,1.222-0.26,1.222-1.209v-0.533c0-0.806-0.273-1.196-1.001-1.196h-1.001v2.938H132.5z M132.8,250.969
			c0.741,0,1.079-0.39,1.079-1.235v-0.806c0-1.014-0.403-1.353-1.274-1.353h-0.884v3.394H132.8z"/>
		<path d="M135.725,244.988c0-1.391,0.689-2.288,2.08-2.288c1.404,0,2.093,0.897,2.093,2.288v4.706c0,1.378-0.689,2.288-2.093,2.288
			c-1.391,0-2.08-0.91-2.08-2.288V244.988z M136.726,249.747c0,0.832,0.351,1.313,1.079,1.313c0.741,0,1.079-0.481,1.079-1.313
			v-4.81c0-0.819-0.338-1.313-1.079-1.313c-0.728,0-1.079,0.494-1.079,1.313V249.747z"/>
		<path d="M141.821,249.747c0,0.819,0.325,1.313,1.066,1.313c0.729,0,1.053-0.494,1.053-1.313v-6.956h0.949v6.903
			c0,1.378-0.637,2.302-2.041,2.302c-1.391,0-2.028-0.924-2.028-2.302v-6.903h1.001V249.747z"/>
		<path d="M147.217,251.892v-8.177h-1.677v-0.923h4.368v0.923h-1.677v8.177H147.217z"/>
		<path d="M155.979,251.879h-0.975l-1.508-7.242v7.254h-0.884v-9.101h1.417l1.495,7.268l1.443-7.268h1.417v9.101h-0.962v-7.319
			L155.979,251.879z"/>
		<path d="M162.661,246.821v0.91h-2.223v3.237h2.73v0.923h-3.744v-9.101h3.744v0.923h-2.73v3.107H162.661z"/>
	</g>
	<g>
		<path d="M129.374,283.022v0.247h-0.962v-0.299c0-0.819-0.312-1.301-1.04-1.301c-0.728,0-1.04,0.482-1.04,1.287
			c0,2.041,3.055,2.236,3.055,4.797c0,1.379-0.663,2.275-2.054,2.275s-2.041-0.896-2.041-2.275v-0.52h0.949v0.572
			c0,0.818,0.338,1.3,1.066,1.3s1.066-0.481,1.066-1.3c0-2.028-3.042-2.224-3.042-4.784c0-1.404,0.65-2.275,2.015-2.275
			C128.724,280.747,129.374,281.645,129.374,283.022z"/>
		<path d="M133.508,284.868v0.91h-2.223v3.237h2.73v0.923h-3.744v-9.101h3.744v0.923h-2.73v3.107H133.508z"/>
		<path d="M136.978,280.838c1.43,0,2.028,0.729,2.028,2.08v0.741c0,1.001-0.351,1.625-1.131,1.872
			c0.832,0.247,1.144,0.923,1.144,1.898v1.417c0,0.402,0.013,0.78,0.182,1.092h-1.027c-0.117-0.26-0.169-0.494-0.169-1.105v-1.43
			c0-1.027-0.481-1.352-1.326-1.352h-0.715v3.887h-1.014v-9.101H136.978z M136.718,285.128c0.806,0,1.287-0.26,1.287-1.248v-0.871
			c0-0.818-0.299-1.248-1.053-1.248h-0.988v3.367H136.718z"/>
		<path d="M140.814,280.838l1.482,7.918l1.469-7.918h0.936l-1.703,9.101h-1.495l-1.716-9.101H140.814z"/>
		<path d="M146.495,280.838v9.101h-1.014v-9.101H146.495z"/>
		<path d="M151.551,283.035v0.819h-0.962v-0.871c0-0.819-0.325-1.314-1.066-1.314c-0.728,0-1.066,0.494-1.066,1.314v4.81
			c0,0.819,0.338,1.313,1.066,1.313c0.741,0,1.066-0.494,1.066-1.313v-1.183h0.962v1.131c0,1.378-0.65,2.288-2.054,2.288
			c-1.391,0-2.041-0.91-2.041-2.288v-4.706c0-1.378,0.65-2.288,2.041-2.288C150.901,280.747,151.551,281.657,151.551,283.035z"/>
		<path d="M155.711,284.868v0.91h-2.223v3.237h2.73v0.923h-3.744v-9.101h3.744v0.923h-2.73v3.107H155.711z"/>
		<path d="M161.093,283.022v0.247h-0.962v-0.299c0-0.819-0.312-1.301-1.04-1.301c-0.728,0-1.04,0.482-1.04,1.287
			c0,2.041,3.055,2.236,3.055,4.797c0,1.379-0.663,2.275-2.054,2.275c-1.391,0-2.041-0.896-2.041-2.275v-0.52h0.949v0.572
			c0,0.818,0.338,1.3,1.066,1.3c0.728,0,1.066-0.481,1.066-1.3c0-2.028-3.042-2.224-3.042-4.784c0-1.404,0.65-2.275,2.015-2.275
			C160.443,280.747,161.093,281.645,161.093,283.022z"/>
	</g>
	<g>
		<path d="M126.996,270.535h-1.391l-1.248-9.101h0.988l1.066,7.749l1.014-7.735h1.001l1.001,7.748l1.027-7.762h0.884l-1.235,9.101
			h-1.339l-0.871-6.175L126.996,270.535z"/>
		<path d="M132.079,263.632c0-1.391,0.689-2.288,2.08-2.288c1.404,0,2.093,0.897,2.093,2.288v4.706c0,1.378-0.689,2.288-2.093,2.288
			c-1.391,0-2.08-0.91-2.08-2.288V263.632z M133.08,268.39c0,0.832,0.351,1.314,1.079,1.314c0.741,0,1.079-0.481,1.079-1.314v-4.809
			c0-0.819-0.338-1.314-1.079-1.314c-0.728,0-1.079,0.494-1.079,1.314V268.39z"/>
		<path d="M139.242,261.435c1.43,0,2.028,0.728,2.028,2.08v0.741c0,1.001-0.351,1.625-1.131,1.872
			c0.832,0.247,1.144,0.923,1.144,1.898v1.417c0,0.402,0.013,0.779,0.182,1.092h-1.027c-0.117-0.26-0.169-0.494-0.169-1.105V268
			c0-1.027-0.481-1.352-1.326-1.352h-0.715v3.887h-1.014v-9.101H139.242z M138.981,265.725c0.806,0,1.287-0.26,1.287-1.248v-0.871
			c0-0.818-0.299-1.248-1.053-1.248h-0.988v3.367H138.981z"/>
		<path d="M143.882,266.583l-0.533,0.897v3.055h-1.014v-9.101h1.014v4.395l2.418-4.395h1.027l-2.301,4.147l2.379,4.953h-1.04
			L143.882,266.583z"/>
		<path d="M151.526,263.619v0.247h-0.962v-0.3c0-0.818-0.312-1.3-1.04-1.3s-1.04,0.481-1.04,1.287c0,2.041,3.055,2.236,3.055,4.798
			c0,1.378-0.663,2.274-2.054,2.274c-1.391,0-2.041-0.897-2.041-2.274v-0.521h0.949v0.572c0,0.818,0.338,1.3,1.066,1.3
			c0.728,0,1.066-0.481,1.066-1.3c0-2.028-3.042-2.224-3.042-4.784c0-1.404,0.65-2.275,2.015-2.275
			C150.876,261.344,151.526,262.241,151.526,263.619z"/>
	</g>
	<g>
		<path d="M128.761,356.848v0.819h-0.962v-0.871c0-0.819-0.325-1.314-1.066-1.314c-0.728,0-1.066,0.494-1.066,1.314v4.81
			c0,0.819,0.338,1.313,1.066,1.313c0.741,0,1.066-0.494,1.066-1.313v-1.183h0.962v1.131c0,1.378-0.65,2.288-2.054,2.288
			c-1.391,0-2.041-0.91-2.041-2.288v-4.706c0-1.378,0.65-2.288,2.041-2.288C128.111,354.56,128.761,355.47,128.761,356.848z"/>
		<path d="M129.606,356.848c0-1.391,0.689-2.288,2.08-2.288c1.404,0,2.093,0.897,2.093,2.288v4.706c0,1.378-0.689,2.288-2.093,2.288
			c-1.391,0-2.08-0.91-2.08-2.288V356.848z M130.607,361.605c0,0.832,0.351,1.313,1.079,1.313c0.741,0,1.079-0.481,1.079-1.313
			v-4.81c0-0.819-0.338-1.314-1.079-1.314c-0.728,0-1.079,0.494-1.079,1.314V361.605z"/>
		<path d="M135.638,363.751h-0.91v-9.101h1.287l2.106,6.578v-6.578h0.897v9.101h-1.053l-2.327-7.358V363.751z"/>
		<path d="M141.384,363.751v-8.178h-1.677v-0.923h4.368v0.923h-1.677v8.178H141.384z"/>
		<path d="M145.31,361.918l-0.351,1.833h-0.936l1.742-9.101h1.469l1.742,9.101h-1.014l-0.351-1.833H145.31z M145.44,361.047h2.028
			l-1.027-5.252L145.44,361.047z"/>
		<path d="M153.786,356.848v0.819h-0.962v-0.871c0-0.819-0.325-1.314-1.066-1.314c-0.728,0-1.066,0.494-1.066,1.314v4.81
			c0,0.819,0.338,1.313,1.066,1.313c0.741,0,1.066-0.494,1.066-1.313v-1.183h0.962v1.131c0,1.378-0.65,2.288-2.054,2.288
			c-1.391,0-2.041-0.91-2.041-2.288v-4.706c0-1.378,0.65-2.288,2.041-2.288C153.136,354.56,153.786,355.47,153.786,356.848z"/>
		<path d="M156.021,363.751v-8.178h-1.677v-0.923h4.356v0.923h-1.677v8.178H156.021z"/>
	</g>
	<g>
		<path d="M126.337,229.153v4.095h-1.014v-9.1h1.014v4.095h2.236v-4.095h1.014v9.1h-1.014v-4.095H126.337z"/>
		<path d="M130.549,226.345c0-1.391,0.689-2.288,2.08-2.288c1.404,0,2.093,0.897,2.093,2.288v4.706c0,1.378-0.689,2.288-2.093,2.288
			c-1.391,0-2.08-0.91-2.08-2.288V226.345z M131.55,231.104c0,0.832,0.351,1.313,1.079,1.313c0.741,0,1.079-0.481,1.079-1.313v-4.81
			c0-0.819-0.338-1.313-1.079-1.313c-0.728,0-1.079,0.494-1.079,1.313V231.104z"/>
		<path d="M139.038,233.235h-0.975l-1.508-7.241v7.254h-0.884v-9.1h1.417l1.495,7.267l1.443-7.267h1.417v9.1h-0.962v-7.319
			L139.038,233.235z"/>
		<path d="M145.72,228.178v0.91h-2.223v3.237h2.73v0.923h-3.744v-9.1h3.744v0.923h-2.73v3.107H145.72z"/>
	</g>
	<g>
		<path d="M524.678,230.613v9.048h-0.586v-18.628h0.586v9.048h6.733v-9.048h0.585v18.628h-0.585v-9.048H524.678z"/>
		<path d="M540.19,229.947v0.532h-5.483v8.622h6.521v0.559h-7.105v-18.628h7.105v0.559h-6.521v8.355H540.19z"/>
		<path d="M543.301,239.661v-18.628h0.586v18.069h6.253v0.559H543.301z"/>
		<path d="M552.16,239.661v-18.628h0.586v18.069h6.253v0.559H552.16z"/>
		<path d="M560.992,225.61c0-2.608,1.117-4.71,3.938-4.71c2.874,0,3.991,2.103,3.991,4.71v9.474c0,2.608-1.117,4.71-3.991,4.71
			c-2.821,0-3.938-2.102-3.938-4.71V225.61z M561.577,235.11c0,2.288,0.878,4.151,3.354,4.151c2.501,0,3.406-1.863,3.406-4.151
			v-9.527c0-2.288-0.905-4.151-3.406-4.151c-2.476,0-3.354,1.863-3.354,4.151V235.11z"/>
		<path d="M575.146,231.464v-10.458h0.586v10.458l-0.08,4.072h-0.426L575.146,231.464z M575.732,237.532v2.129h-0.586v-2.129
			H575.732z"/>
	</g>
	<g>
		<path d="M541.225,245.393v10.703h-0.337v-10.703H541.225z"/>
		<path d="M548.076,253.573l-0.627,2.523h-0.306l2.584-10.718h0.475l2.645,10.718h-0.336l-0.627-2.523H548.076z M548.138,253.268
			h3.685l-1.865-7.492L548.138,253.268z"/>
		<path d="M557.358,256.065h-0.382l-2.645-10.167v10.198h-0.306v-10.703h0.521l2.629,10.152l2.63-10.152h0.521v10.703h-0.337
			v-10.198L557.358,256.065z"/>
	</g>
	<g>
		<path d="M516.012,280.035c0.399,0.026,0.771,0,1.117-0.027c2.076-0.186,3.008-1.33,3.008-3.938v-14.105h0.585v14.077
			c0,3.087-1.277,4.364-3.539,4.524c-0.372,0.026-0.745,0.053-1.171,0.026V280.035z"/>
		<path d="M524.365,276.203l-1.091,4.391h-0.532l4.498-18.654h0.824l4.604,18.654h-0.585l-1.091-4.391H524.365z M524.473,275.671
			h6.413l-3.247-13.04L524.473,275.671z"/>
		<path d="M535.273,280.594h-0.559v-18.628h0.825l6.546,17.431v-17.431h0.559v18.628h-0.718l-6.653-17.776V280.594z"/>
		<path d="M550.839,270.881v0.532h-5.482v8.622h6.52v0.559h-7.106v-18.628h7.106v0.559h-6.52v8.356H550.839z"/>
		<path d="M561.959,261.966c2.847,0,4.045,1.996,4.045,4.657v9.34c0,2.635-1.198,4.631-4.018,4.631h-3.912v-18.628H561.959z
			 M561.959,280.035c2.501,0,3.459-1.73,3.459-4.045v-9.395c0-2.342-0.984-4.071-3.459-4.071h-3.301v17.511H561.959z"/>
		<path d="M568.051,266.543c0-3.087,1.357-4.71,3.939-4.71c2.634,0,3.991,1.623,3.991,4.71v9.474c0,3.087-1.357,4.71-3.991,4.71
			c-2.581,0-3.939-1.623-3.939-4.71V266.543z M568.636,276.043c0,2.741,1.145,4.151,3.354,4.151c2.235,0,3.406-1.41,3.406-4.151
			v-9.526c0-2.741-1.171-4.151-3.406-4.151c-2.209,0-3.354,1.41-3.354,4.151V276.043z"/>
		<path d="M584.147,270.881v0.532h-5.481v8.622h6.519v0.559h-7.105v-18.628h7.105v0.559h-6.519v8.356H584.147z"/>
	</g>
	<g>
		<path d="M524.182,316.074l-1.092,4.391h-0.532l4.497-18.654h0.825l4.604,18.654h-0.586l-1.091-4.391H524.182z M524.287,315.542
			h6.414l-3.247-13.04L524.287,315.542z"/>
		<path d="M538.229,301.837c2.768,0,3.832,1.623,3.832,4.178v1.677c0,2.289-0.905,3.539-2.954,3.912
			c2.076,0.319,2.954,1.676,2.954,3.726v2.927c0,0.719,0.079,1.623,0.505,2.209h-0.639c-0.372-0.586-0.452-1.41-0.452-2.209v-2.927
			c0-2.741-1.649-3.46-4.071-3.46h-2.289v8.596h-0.585v-18.628H538.229z M537.404,311.31c2.581,0,4.071-0.665,4.071-3.539v-1.703
			c0-2.262-0.878-3.673-3.273-3.673h-3.088v8.915H537.404z"/>
		<path d="M548.232,320.465v-18.069h-4.072v-0.559h8.728v0.559h-4.071v18.069H548.232z"/>
		<path d="M555.176,301.837v18.628h-0.586v-18.628H555.176z"/>
		<path d="M565.021,306.334v0.346h-0.586v-0.372c0-2.209-0.825-4.071-3.246-4.071c-2.449,0-3.273,1.836-3.273,4.045
			c0,4.764,7.132,4.63,7.132,9.686c0,2.581-1.065,4.63-3.912,4.63c-2.821,0-3.886-2.049-3.886-4.63v-0.905h0.56v0.932
			c0,2.262,0.878,4.045,3.326,4.045c2.448,0,3.326-1.783,3.326-4.045c0-4.71-7.132-4.551-7.132-9.687
			c0-2.714,1.145-4.577,3.832-4.603C563.983,301.704,565.021,303.779,565.021,306.334z"/>
		<path d="M570.713,320.465v-18.069h-4.072v-0.559h8.729v0.559h-4.071v18.069H570.713z"/>
	</g>
</g>
</svg>
